<?xml version="1.0" standalone="no"?>
<!DOCTYPE svg PUBLIC "-//W3C//DTD SVG 20010904//EN"
 "http://www.w3.org/TR/2001/REC-SVG-20010904/DTD/svg10.dtd">
<svg version="1.0" xmlns="http://www.w3.org/2000/svg"
 width="1902.000000pt" height="947.000000pt" viewBox="0 0 1902.000000 947.000000"
 preserveAspectRatio="xMidYMid meet">

<g transform="translate(0.000000,947.000000) scale(0.100000,-0.100000)"
fill="#000000" stroke="none">
<path d="M13500 9097 c0 -18 -5 -23 -21 -23 -12 1 -26 -7 -33 -16 -16 -26 4
-53 43 -55 l31 -1 0 59 c0 33 -4 59 -10 59 -5 0 -10 -10 -10 -23z m0 -51 c0
-8 -5 -18 -11 -22 -14 -8 -33 11 -25 25 10 16 36 13 36 -3z"/>
<path d="M14800 9060 c0 -33 4 -60 10 -60 6 0 10 27 10 60 0 33 -4 60 -10 60
-6 0 -10 -27 -10 -60z"/>
<path d="M15100 9097 c0 -18 -5 -23 -21 -23 -12 1 -26 -7 -33 -16 -16 -26 4
-53 43 -55 l31 -1 0 59 c0 33 -4 59 -10 59 -5 0 -10 -10 -10 -23z m0 -51 c0
-8 -5 -18 -11 -22 -14 -8 -33 11 -25 25 10 16 36 13 36 -3z"/>
<path d="M15140 9105 c0 -8 5 -15 10 -15 6 0 10 7 10 15 0 8 -4 15 -10 15 -5
0 -10 -7 -10 -15z"/>
<path d="M16610 9105 c0 -8 5 -15 10 -15 6 0 10 7 10 15 0 8 -4 15 -10 15 -5
0 -10 -7 -10 -15z"/>
<path d="M16660 9060 c0 -33 4 -60 10 -60 6 0 10 27 10 60 0 33 -4 60 -10 60
-6 0 -10 -27 -10 -60z"/>
<path d="M13276 9094 c-32 -32 -10 -94 34 -94 26 0 50 27 50 55 0 28 -24 55
-50 55 -10 0 -26 -7 -34 -16z m59 -39 c0 -25 -4 -30 -25 -30 -16 0 -26 6 -28
18 -6 30 6 49 30 45 18 -2 23 -9 23 -33z"/>
<path d="M13743 9103 c-22 -8 -14 -43 12 -55 14 -6 25 -16 25 -21 0 -5 -11 -7
-25 -5 -17 4 -25 1 -25 -8 0 -15 27 -18 54 -8 25 9 19 43 -9 56 -14 6 -25 16
-25 21 0 5 11 7 25 5 17 -4 25 -1 25 8 0 14 -32 18 -57 7z"/>
<path d="M16052 9098 c-15 -15 -16 -32 -2 -23 6 4 10 -10 10 -34 0 -23 5 -41
10 -41 6 0 10 25 10 55 0 56 -6 65 -28 43z"/>
<path d="M16142 9094 c-48 -33 -12 -99 50 -91 l33 4 -31 1 c-39 2 -58 24 -50
57 12 47 86 42 86 -6 0 -10 -4 -21 -10 -24 -6 -4 -10 5 -10 20 0 23 -4 26 -27
23 -22 -2 -28 -8 -28 -28 0 -21 5 -26 33 -28 57 -6 82 37 44 71 -23 21 -61 22
-90 1z m48 -44 c0 -11 -4 -20 -10 -20 -5 0 -10 9 -10 20 0 11 5 20 10 20 6 0
10 -9 10 -20z"/>
<path d="M13817 9087 c-9 -25 8 -82 26 -85 9 -2 17 1 17 7 0 6 -4 11 -10 11
-14 0 -12 38 2 42 9 3 8 9 -4 21 -20 20 -24 21 -31 4z"/>
<path d="M13967 9087 c-9 -25 8 -82 26 -85 9 -2 17 1 17 7 0 6 -4 11 -10 11
-14 0 -12 38 2 42 9 3 8 9 -4 21 -20 20 -24 21 -31 4z"/>
<path d="M15687 9087 c-9 -25 8 -82 26 -85 9 -2 17 1 17 7 0 6 -4 11 -10 11
-14 0 -12 38 2 42 9 3 8 9 -4 21 -20 20 -24 21 -31 4z"/>
<path d="M13380 9039 c0 -22 5 -39 10 -39 6 0 10 11 10 25 0 14 7 28 15 31 23
9 18 22 -10 22 -22 0 -25 -5 -25 -39z"/>
<path d="M13552 9068 c-25 -25 -6 -68 30 -68 26 0 22 18 -4 23 -20 4 -19 4 5
6 28 1 32 7 21 35 -7 19 -35 21 -52 4z m35 -14 c-3 -3 -12 -4 -19 -1 -8 3 -5
6 6 6 11 1 17 -2 13 -5z"/>
<path d="M13630 9039 c0 -22 5 -39 10 -39 6 0 10 11 10 25 0 14 7 28 15 31 23
9 18 22 -10 22 -22 0 -25 -5 -25 -39z"/>
<path d="M13880 9071 c0 -6 10 -11 23 -12 21 -1 21 -1 -3 -8 -16 -4 -25 -14
-25 -26 0 -16 7 -20 33 -22 32 -1 33 0 30 35 -3 32 -7 37 -30 40 -16 2 -28 -1
-28 -7z m40 -41 c0 -5 -7 -10 -16 -10 -8 0 -12 5 -9 10 3 6 10 10 16 10 5 0 9
-4 9 -10z"/>
<path d="M14032 9043 c3 -35 6 -38 36 -40 31 -1 32 0 32 38 0 21 -4 39 -10 39
-5 0 -10 -13 -10 -30 0 -20 -5 -30 -15 -30 -10 0 -15 10 -15 30 0 17 -5 30
-11 30 -6 0 -9 -16 -7 -37z"/>
<path d="M14133 9064 c-4 -11 1 -22 12 -30 17 -13 17 -14 2 -14 -9 0 -17 -4
-17 -10 0 -5 9 -10 20 -10 27 0 39 30 18 44 -15 9 -15 11 0 23 15 11 15 12 -6
13 -12 0 -25 -7 -29 -16z"/>
<path d="M14732 9068 c-25 -25 -6 -68 30 -68 10 0 18 6 18 14 0 8 -7 13 -16
12 -25 -2 -29 24 -5 31 12 3 21 9 21 14 0 13 -34 11 -48 -3z"/>
<path d="M14850 9071 c0 -6 10 -11 23 -12 21 -1 21 -1 -3 -8 -16 -4 -25 -14
-25 -26 0 -16 7 -20 33 -22 32 -1 33 0 30 35 -3 32 -7 37 -30 40 -16 2 -28 -1
-28 -7z m40 -41 c0 -5 -7 -10 -16 -10 -8 0 -12 5 -9 10 3 6 10 10 16 10 5 0 9
-4 9 -10z"/>
<path d="M14942 9043 c3 -35 6 -38 36 -40 31 -1 32 0 32 38 0 21 -4 39 -10 39
-5 0 -10 -13 -10 -30 0 -20 -5 -30 -15 -30 -10 0 -15 10 -15 30 0 17 -5 30
-11 30 -6 0 -9 -16 -7 -37z"/>
<path d="M15140 9040 c0 -22 5 -40 10 -40 6 0 10 18 10 40 0 22 -4 40 -10 40
-5 0 -10 -18 -10 -40z"/>
<path d="M15192 9043 c3 -35 6 -38 36 -40 31 -1 32 0 32 38 0 21 -4 39 -10 39
-5 0 -10 -13 -10 -30 0 -20 -5 -30 -15 -30 -10 0 -15 10 -15 30 0 17 -5 30
-11 30 -6 0 -9 -16 -7 -37z"/>
<path d="M15342 9068 c-25 -25 -6 -68 30 -68 10 0 18 6 18 14 0 8 -7 13 -16
12 -25 -2 -29 24 -5 31 12 3 21 9 21 14 0 13 -34 11 -48 -3z"/>
<path d="M15410 9071 c0 -6 10 -11 23 -12 21 -1 21 -1 -3 -8 -16 -4 -25 -14
-25 -26 0 -16 7 -20 33 -22 32 -1 33 0 30 35 -3 32 -7 37 -30 40 -16 2 -28 -1
-28 -7z m40 -41 c0 -5 -7 -10 -16 -10 -8 0 -12 5 -9 10 3 6 10 10 16 10 5 0 9
-4 9 -10z"/>
<path d="M15500 9018 c0 -32 4 -58 10 -58 6 0 10 11 10 24 0 18 4 23 18 19 25
-6 46 21 38 52 -5 20 -12 24 -41 23 l-35 -1 0 -59z m60 27 c0 -16 -27 -32 -37
-22 -3 4 -3 13 0 22 8 20 37 20 37 0z"/>
<path d="M15600 9071 c0 -6 10 -11 23 -12 21 -1 21 -1 -3 -8 -16 -4 -25 -14
-25 -26 0 -16 7 -20 33 -22 32 -1 33 0 30 35 -3 32 -7 37 -30 40 -16 2 -28 -1
-28 -7z m40 -41 c0 -5 -7 -10 -16 -10 -8 0 -12 5 -9 10 3 6 10 10 16 10 5 0 9
-4 9 -10z"/>
<path d="M15750 9071 c0 -6 10 -11 23 -12 21 -1 21 -1 -3 -8 -16 -4 -25 -14
-25 -26 0 -16 7 -20 33 -22 32 -1 33 0 30 35 -3 32 -7 37 -30 40 -16 2 -28 -1
-28 -7z m40 -41 c0 -5 -7 -10 -16 -10 -8 0 -12 5 -9 10 3 6 10 10 16 10 5 0 9
-4 9 -10z"/>
<path d="M15840 9039 c0 -21 5 -39 10 -39 6 0 10 14 10 30 0 20 5 30 15 30 10
0 15 -10 15 -30 0 -16 5 -30 11 -30 6 0 9 16 7 38 -3 34 -6 37 -35 39 -32 1
-33 0 -33 -38z"/>
<path d="M15940 9071 c0 -6 10 -11 23 -12 21 -1 21 -1 -3 -8 -16 -4 -25 -14
-25 -26 0 -16 7 -20 33 -22 32 -1 33 0 30 35 -3 32 -7 37 -30 40 -16 2 -28 -1
-28 -7z m40 -41 c0 -5 -7 -10 -16 -10 -8 0 -12 5 -9 10 3 6 10 10 16 10 5 0 9
-4 9 -10z"/>
<path d="M16281 9067 c-26 -26 1 -76 35 -63 10 4 14 2 11 -6 -2 -7 -14 -13
-26 -12 -11 0 -21 -5 -21 -13 0 -16 42 -17 58 -1 7 7 12 33 12 58 0 45 -1 47
-29 48 -15 0 -33 -4 -40 -11z m49 -21 c0 -8 -5 -18 -11 -22 -14 -8 -33 11 -25
25 10 16 36 13 36 -3z"/>
<path d="M16370 9039 c0 -22 5 -39 10 -39 6 0 10 14 10 30 0 20 5 30 15 30 10
0 15 -10 15 -30 0 -16 5 -30 10 -30 6 0 10 14 10 30 0 20 5 30 15 30 10 0 15
-10 15 -30 0 -16 5 -30 11 -30 6 0 9 16 7 38 l-3 37 -57 1 -58 1 0 -38z"/>
<path d="M16520 9071 c0 -6 10 -11 23 -12 21 -1 21 -1 -3 -8 -16 -4 -25 -14
-25 -26 0 -16 7 -20 33 -22 32 -1 33 0 30 35 -3 32 -7 37 -30 40 -16 2 -28 -1
-28 -7z m40 -41 c0 -5 -7 -10 -16 -10 -8 0 -12 5 -9 10 3 6 10 10 16 10 5 0 9
-4 9 -10z"/>
<path d="M16610 9040 c0 -22 5 -40 10 -40 6 0 10 18 10 40 0 22 -4 40 -10 40
-5 0 -10 -18 -10 -40z"/>
<path d="M16762 9068 c-25 -25 -6 -68 30 -68 10 0 18 6 18 14 0 8 -7 13 -16
12 -25 -2 -29 24 -5 31 12 3 21 9 21 14 0 13 -34 11 -48 -3z"/>
<path d="M16840 9065 c-26 -32 13 -81 48 -59 34 22 22 74 -18 74 -10 0 -23 -7
-30 -15z m50 -25 c0 -21 -24 -28 -35 -10 -8 14 3 30 21 30 8 0 14 -9 14 -20z"/>
<path d="M16930 9039 c0 -22 5 -39 10 -39 6 0 10 14 10 30 0 20 5 30 15 30 10
0 15 -10 15 -30 0 -16 5 -30 10 -30 6 0 10 14 10 30 0 20 5 30 15 30 10 0 15
-10 15 -30 0 -16 5 -30 11 -30 6 0 9 16 7 38 l-3 37 -57 1 -58 1 0 -38z"/>
<path d="M15290 9015 c0 -8 7 -15 15 -15 8 0 15 7 15 15 0 8 -7 15 -15 15 -8
0 -15 -7 -15 -15z"/>
<path d="M16710 9015 c0 -8 7 -15 15 -15 8 0 15 7 15 15 0 8 -7 15 -15 15 -8
0 -15 -7 -15 -15z"/>
<path d="M8665 7359 c-9 -104 -2 -329 10 -329 13 0 19 380 6 393 -6 6 -12 -19
-16 -64z"/>
<path d="M11106 7145 c4 -38 8 -139 9 -224 1 -149 0 -155 -23 -183 -13 -15
-28 -28 -32 -28 -5 0 -26 24 -47 54 -36 50 -79 84 -138 106 l-25 9 22 -33 c13
-19 26 -32 30 -30 5 3 8 -2 8 -11 0 -9 5 -13 10 -10 6 4 10 -10 10 -34 0 -41
15 -56 23 -23 7 30 55 -90 57 -144 3 -72 1 -86 -9 -79 -5 3 -12 1 -16 -5 -10
-16 -28 -12 -21 6 4 10 2 13 -6 8 -7 -5 -9 0 -6 14 4 12 2 22 -3 22 -5 0 -9
-6 -9 -12 -1 -23 -17 15 -24 55 -4 20 -11 37 -16 37 -5 0 -7 6 -4 14 6 17 -12
56 -26 56 -6 0 -10 -10 -10 -22 0 -19 2 -20 10 -8 8 12 10 10 10 -8 0 -16 -4
-21 -12 -16 -10 6 -10 4 -2 -7 17 -22 25 -67 13 -74 -15 -10 -18 -4 -24 56 -4
29 -11 64 -18 77 -9 18 -8 25 2 31 11 7 9 15 -7 37 -12 16 -23 40 -25 54 -2
14 -7 33 -11 42 -4 9 -5 21 -2 26 3 5 -4 18 -15 28 -12 11 -33 39 -47 64 -47
82 -134 211 -139 206 -3 -2 8 -40 23 -83 31 -91 54 -199 54 -263 1 -30 9 -58
25 -85 27 -44 35 -131 13 -153 -9 -9 -8 -12 4 -12 18 0 28 -20 28 -57 0 -13 6
-31 14 -39 13 -12 16 -10 25 19 5 17 13 47 16 65 9 43 30 36 31 -11 0 -24 7
-42 20 -52 18 -14 18 -14 -8 -15 -22 0 -28 -5 -29 -22 0 -13 -2 -60 -3 -104
-1 -52 -7 -88 -16 -98 -10 -14 -11 -16 0 -14 7 2 16 -9 21 -24 5 -21 4 -28 -6
-28 -7 0 -16 -6 -18 -12 -3 -8 -6 -7 -6 4 -1 9 4 20 9 23 6 3 10 13 10 21 0 8
-4 13 -9 10 -4 -3 -16 0 -26 7 -13 10 -17 29 -18 85 -1 60 -4 72 -18 72 -19 0
-32 46 -19 70 7 13 2 16 -28 18 -20 2 -44 4 -52 7 -10 3 -23 -12 -38 -44 -26
-52 -26 -87 -1 -154 16 -44 6 -59 -40 -61 -17 -1 -31 -4 -31 -8 0 -11 24 -10
54 2 23 8 26 5 45 -34 22 -45 27 -81 12 -91 -11 -6 -25 7 -51 52 -11 18 -30
39 -44 48 -23 16 -27 15 -50 -2 -14 -10 -26 -21 -26 -26 0 -4 -11 -25 -25 -47
-14 -22 -25 -51 -25 -66 0 -18 -4 -25 -14 -21 -9 4 -13 0 -12 -11 2 -9 -3 -23
-11 -30 -7 -7 -13 -19 -13 -25 1 -7 5 -6 13 3 17 22 55 22 67 0 13 -24 0 -33
-42 -28 -27 2 -33 -1 -38 -22 -14 -54 57 -105 90 -65 12 15 25 12 63 -17 26
-19 12 -48 -23 -48 -15 0 -35 -9 -45 -20 -10 -11 -13 -20 -7 -20 7 0 12 -9 12
-21 0 -19 -3 -18 -29 10 -16 17 -32 47 -36 68 -3 20 -20 56 -36 79 -22 33 -29
54 -29 92 0 55 19 89 87 159 23 23 38 44 35 47 -3 3 7 16 21 29 31 26 37 53
10 42 -10 -4 -24 -8 -30 -9 -7 -1 -20 -11 -29 -22 -15 -18 -15 -18 -9 11 4 17
9 56 11 88 4 47 2 57 -11 57 -8 0 -15 -4 -15 -10 0 -19 -29 -10 -50 17 -45 58
-149 163 -161 163 -8 0 -8 -5 3 -17 19 -22 30 -63 17 -63 -5 0 -3 -13 6 -30
20 -39 19 -53 -6 -68 -29 -18 -49 -8 -94 50 -22 28 -74 78 -115 111 -41 34
-92 76 -113 94 -21 19 -42 31 -47 28 -20 -12 -9 -42 25 -69 19 -16 32 -32 29
-37 -8 -14 25 -64 54 -81 22 -14 25 -23 26 -75 2 -45 7 -67 24 -88 12 -15 27
-45 32 -66 7 -23 27 -54 50 -76 28 -27 41 -48 43 -73 5 -43 15 -69 35 -92 8
-10 12 -18 8 -18 -4 0 7 -26 25 -57 52 -94 79 -152 79 -168 0 -9 9 -33 20 -55
11 -22 20 -46 20 -55 0 -9 3 -14 8 -12 4 3 7 -5 8 -16 0 -12 4 -29 7 -37 4 -8
3 -22 -3 -30 -7 -12 -12 -12 -22 -2 -20 20 -33 14 -14 -7 10 -11 41 -25 69
-32 29 -6 57 -15 62 -18 6 -4 28 -6 50 -6 36 1 40 4 43 29 2 18 8 26 17 23 7
-3 29 -2 48 3 45 10 87 2 87 -16 0 -11 -12 -13 -52 -10 -39 4 -47 3 -30 -4 31
-13 28 -16 -17 -13 -25 1 -41 -3 -44 -12 -4 -9 9 -15 46 -19 128 -15 293 -26
417 -27 115 -2 125 -3 70 -9 -182 -21 -521 0 -745 46 -26 6 -28 5 -16 -10 7
-9 20 -16 27 -16 8 0 14 -10 14 -22 0 -19 -2 -20 -10 -8 -5 8 -10 10 -10 4 0
-5 6 -16 13 -23 9 -10 9 -15 0 -18 -20 -7 -3 -34 18 -28 15 5 19 1 19 -19 0
-14 -4 -26 -10 -26 -5 0 -10 -9 -10 -20 0 -11 -4 -20 -10 -20 -5 0 -7 8 -4 18
5 14 4 15 -5 2 -8 -11 -7 -18 5 -27 13 -9 15 -25 11 -78 -4 -49 -2 -67 8 -71
7 -3 11 -14 8 -25 -3 -10 1 -27 8 -36 8 -10 9 -14 2 -10 -18 11 -24 -8 -13
-37 9 -26 3 -32 -25 -26 -5 1 -2 -7 7 -17 14 -15 15 -26 8 -58 -17 -72 -15
-75 38 -75 26 0 54 6 62 13 10 9 10 6 -1 -12 -9 -14 -26 -31 -40 -39 -22 -13
-22 -13 -5 1 17 15 16 16 -20 23 -20 4 -95 4 -166 0 l-128 -7 0 26 c0 15 -4
34 -10 44 -5 10 -11 30 -14 44 -4 22 -1 27 15 27 11 0 29 -5 41 -11 34 -18 32
-1 -5 36 -30 30 -42 35 -81 35 -25 0 -64 -7 -86 -16 -23 -9 -43 -14 -46 -12
-2 3 16 13 41 23 l46 17 -23 25 c-36 39 -95 65 -129 58 -16 -4 -29 -11 -29
-16 0 -5 -15 -9 -34 -9 -34 0 -34 1 -38 49 -1 27 0 47 5 44 4 -2 7 2 7 11 0 8
-12 24 -27 36 -16 12 -21 18 -13 14 13 -7 13 -5 1 9 -12 15 -10 17 15 19 16 0
35 1 43 0 7 0 33 8 57 18 51 22 74 60 74 122 0 24 4 59 9 79 6 25 4 46 -5 69
-8 18 -14 33 -14 35 0 1 28 5 62 8 86 8 113 30 114 93 1 74 -9 99 -35 97 -12
-2 -20 1 -16 6 9 15 -13 29 -123 80 -57 26 -105 51 -105 56 -1 5 17 8 39 7 26
-2 45 1 50 9 10 17 -58 76 -97 84 -16 4 -31 10 -34 15 -10 16 -137 71 -210 89
l-30 8 25 7 c14 3 76 10 138 16 62 5 117 12 123 16 29 18 -41 249 -108 354
-52 81 -112 160 -122 158 -19 -2 -31 3 -26 12 3 6 -1 10 -9 10 -9 0 -16 5 -16
10 0 6 -9 10 -20 10 -13 0 -20 7 -20 20 0 14 -11 22 -42 30 -24 7 -62 20 -86
31 -23 10 -49 19 -57 19 -8 0 -15 5 -15 10 0 6 6 10 13 10 8 0 7 3 -3 9 -8 6
-18 7 -23 4 -5 -3 -12 -1 -16 4 -7 11 -71 26 -71 17 0 -3 5 -14 10 -25 12 -22
-2 -25 -44 -9 -19 7 -25 16 -24 35 1 14 9 26 18 26 8 1 -5 5 -30 9 -25 4 -49
4 -55 0 -5 -4 -20 -6 -33 -4 -15 3 -21 0 -17 -7 4 -6 -3 -13 -15 -16 -16 -4
-18 -8 -8 -14 8 -5 9 -9 2 -9 -6 0 -17 6 -23 14 -9 11 -8 17 2 28 17 16 11 38
-10 38 -9 0 -13 -6 -10 -14 4 -10 0 -12 -14 -9 -26 7 -24 -1 8 -33 26 -26 26
-28 8 -35 -11 -4 -14 -8 -7 -8 6 -1 12 -8 12 -16 0 -10 -10 -15 -29 -15 -17 0
-33 -4 -36 -10 -3 -5 -16 -9 -28 -9 -29 1 -85 -8 -97 -16 -6 -3 -10 -1 -10 5
0 7 -6 8 -19 0 -21 -11 -54 -3 -45 11 3 5 -9 1 -25 -9 -39 -22 -39 -32 -1 -32
30 0 40 -13 19 -26 -6 -3 -8 -16 -5 -28 5 -19 4 -19 -8 -4 -7 10 -16 15 -19
12 -3 -3 -17 2 -31 11 -21 14 -25 15 -21 3 3 -8 -1 -21 -10 -28 -22 -18 -19
-30 9 -30 13 0 27 -7 30 -16 9 -23 8 -26 -6 -18 -7 4 -10 3 -5 -1 4 -5 0 -17
-10 -27 -9 -11 -11 -18 -5 -18 7 0 12 5 12 10 0 6 4 10 8 10 5 0 8 -15 8 -34
-1 -25 -5 -32 -16 -29 -10 3 -8 -2 5 -13 16 -13 17 -16 3 -11 -10 3 -20 2 -23
-4 -4 -5 -10 -7 -14 -5 -4 3 -7 -3 -7 -12 0 -62 -4 -69 -29 -67 -22 3 -24 1
-14 -17 8 -14 8 -18 0 -14 -6 4 -13 -4 -17 -20 -5 -19 -9 -22 -15 -12 -6 9 -9
6 -9 -12 -1 -22 -2 -23 -11 -7 -11 19 -29 14 -29 -9 0 -9 5 -13 13 -9 6 3 4 0
-6 -7 -30 -21 -73 -61 -57 -52 10 5 8 0 -4 -14 -24 -27 -26 -27 -18 0 3 14 2
19 -6 14 -7 -4 -12 -14 -12 -22 0 -8 -7 -14 -16 -14 -8 0 -12 5 -9 10 3 6 2
10 -4 10 -5 0 -11 -4 -13 -10 -1 -5 -16 -11 -33 -12 -16 -1 -36 -6 -42 -11 -7
-5 -13 -6 -13 -1 0 4 -7 -1 -16 -12 -8 -10 -13 -14 -10 -7 9 16 -32 27 -49 13
-10 -8 -15 -8 -19 2 -5 10 -7 10 -12 1 -3 -7 -22 -13 -42 -13 l-36 0 22 20
c12 12 22 23 22 26 0 6 -62 -37 -73 -51 -6 -7 -10 -6 -13 2 -4 8 -13 9 -27 4
-12 -5 -34 -8 -49 -7 -37 2 -35 -7 6 -27 29 -14 35 -14 40 -1 3 8 18 14 38 13
30 0 31 -1 11 -9 -13 -5 -23 -14 -23 -19 0 -15 57 -27 240 -51 91 -12 173 -24
184 -27 16 -4 18 -1 14 21 -3 14 -2 23 3 21 4 -3 9 0 11 7 7 20 96 14 114 -8
8 -10 13 -14 10 -8 -3 7 1 17 9 24 13 10 15 9 17 -11 2 -42 3 -47 9 -54 4 -3
9 9 13 26 7 37 20 31 21 -9 0 -17 5 -27 15 -27 8 0 17 -3 20 -7 4 -4 76 -14
160 -22 l155 -15 -145 6 c-80 3 -169 7 -197 7 -29 1 -53 5 -53 10 0 4 -10 6
-23 3 -12 -4 -29 -2 -37 3 -9 5 -19 5 -27 -2 -9 -7 -17 -7 -28 2 -8 6 -23 9
-34 5 -10 -3 -22 -1 -26 5 -10 17 -45 12 -46 -7 0 -14 -2 -15 -6 -3 -6 16 -23
30 -35 30 -4 0 -15 -14 -23 -30 -18 -35 -38 -31 -29 6 10 39 -22 30 -45 -13
l-20 -38 -1 45 -2 45 -19 -42 c-21 -45 -59 -61 -59 -25 -1 15 -2 15 -15 -2
-20 -26 -19 -38 3 -35 9 1 19 0 22 -1 6 -2 24 -6 60 -14 14 -4 68 -11 120 -17
52 -6 97 -14 100 -17 7 -7 -130 6 -246 23 -55 9 -157 17 -229 19 -87 3 -113 2
-79 -4 127 -19 85 -41 -76 -39 -152 1 -153 1 -145 -11 3 -5 -3 -18 -15 -30
-25 -25 -16 -26 20 0 30 21 47 16 27 -8 -10 -13 -7 -14 25 -8 22 4 39 2 43 -4
3 -6 10 -8 15 -5 12 8 41 -6 34 -16 -10 -17 -98 -55 -181 -80 -46 -13 -82 -28
-80 -33 2 -5 29 -15 61 -21 55 -11 58 -11 72 11 17 25 93 78 101 70 3 -3 -5
-14 -18 -25 -20 -16 -22 -23 -13 -38 17 -28 86 -29 142 -1 26 12 50 22 55 20
4 -1 7 3 7 9 0 5 4 8 10 4 19 -12 49 19 55 58 l7 39 22 -21 c15 -14 26 -17 37
-10 23 12 179 16 203 5 14 -7 17 -6 12 2 -4 7 1 10 13 9 11 0 18 -4 15 -8 -6
-11 -107 -56 -141 -63 -33 -8 -43 -21 -21 -28 12 -4 75 4 188 24 85 15 129 12
152 -9 19 -17 19 -17 -4 -34 -15 -12 -26 -14 -34 -8 -9 7 -16 4 -26 -9 -13
-20 -95 -42 -84 -23 9 13 -40 45 -54 36 -7 -4 -10 -15 -7 -25 5 -19 -11 -30
-43 -30 -13 0 -17 -5 -13 -19 6 -22 32 -21 183 11 52 11 118 22 145 25 28 3
55 9 60 13 6 5 28 11 49 15 31 6 37 5 31 -5 -5 -9 0 -8 15 3 16 11 29 13 46 7
15 -6 24 -5 26 2 3 7 11 6 26 -3 28 -17 28 -29 1 -29 -12 0 -19 -5 -16 -12 2
-7 -3 -18 -12 -25 -15 -11 -15 -12 0 -13 14 0 29 -19 29 -35 0 -2 -14 -8 -30
-14 -17 -5 -28 -6 -25 -2 2 5 -2 14 -10 21 -11 9 -14 8 -14 -7 0 -34 -14 -76
-30 -92 -25 -25 -72 -53 -78 -47 -3 3 -30 -19 -61 -49 -30 -30 -59 -55 -64
-55 -5 0 -14 -13 -19 -29 -9 -26 -44 -51 -73 -51 -7 0 -22 14 -35 30 -16 23
-28 29 -46 26 -33 -6 -47 -15 -40 -27 4 -5 0 -12 -9 -15 -8 -3 -13 -11 -11
-17 5 -14 -65 -72 -85 -72 -8 0 -17 11 -20 25 -3 14 -12 25 -20 25 -25 0 -29
17 -15 52 12 28 12 33 -1 33 -7 0 -14 -5 -14 -10 0 -6 -8 -5 -19 2 -16 10 -18
15 -8 27 10 12 9 13 -2 6 -10 -6 -12 -4 -7 4 5 7 14 10 21 7 8 -3 25 4 38 15
14 10 30 19 36 19 6 0 11 5 11 10 0 6 -13 10 -30 10 -35 0 -37 6 -9 29 l21 17
-26 2 c-20 1 -24 -2 -19 -16 6 -15 4 -15 -15 2 -23 20 -29 32 -12 21 6 -3 10
-1 10 5 0 6 4 8 10 5 6 -4 7 2 1 17 -5 13 -14 22 -20 20 -18 -4 -12 24 9 43
14 12 17 22 10 30 -5 6 -11 20 -13 31 -7 36 -62 139 -74 139 -4 0 -24 -8 -43
-17 -98 -47 -147 -60 -249 -65 -57 -2 -113 -8 -124 -12 -12 -5 -39 -2 -64 5
-27 8 -43 9 -43 3 0 -6 -5 -7 -11 -3 -8 4 -9 -1 -5 -17 l7 -24 -22 25 c-16 18
-20 20 -16 7 4 -10 7 -24 7 -32 0 -7 14 -18 30 -25 32 -13 40 -30 15 -30 -8 0
-15 -5 -15 -10 0 -7 6 -7 19 0 26 14 31 13 31 -6 0 -8 4 -13 10 -9 17 11 50
-18 44 -39 -5 -15 -3 -18 11 -13 9 4 18 7 21 7 2 0 1 7 -2 15 -5 11 -2 13 10
9 9 -3 16 -13 16 -21 0 -8 5 -11 10 -8 6 3 10 1 10 -5 0 -6 -10 -8 -25 -4 -17
4 -25 2 -25 -7 0 -7 3 -9 6 -6 10 10 44 -12 44 -28 0 -8 -5 -15 -11 -15 -5 0
-7 -4 -4 -10 10 -17 -7 -11 -20 6 -10 15 -12 14 -11 -7 1 -14 -4 -23 -11 -22
-19 4 -16 -24 3 -35 14 -8 15 -13 3 -37 -14 -28 -49 -44 -49 -22 0 7 -4 7 -9
-2 -5 -8 -16 -11 -25 -8 -9 4 -16 2 -16 -3 0 -5 8 -11 18 -13 11 -3 8 -5 -9
-6 -21 -1 -26 -6 -25 -23 1 -20 6 -23 34 -20 18 2 32 0 31 -5 -4 -16 13 -83
23 -89 6 -4 5 -9 -2 -14 -9 -6 -5 -13 13 -25 15 -10 24 -22 20 -31 -3 -8 -8
-12 -12 -9 -5 2 -7 -8 -6 -23 1 -15 -3 -31 -9 -35 -7 -5 -4 -7 7 -3 12 4 20
-1 26 -18 5 -12 15 -23 23 -23 48 -1 186 -27 253 -47 44 -13 95 -27 113 -31
17 -4 32 -10 32 -15 0 -4 -8 -6 -19 -3 -10 3 -22 0 -25 -6 -4 -6 -20 -11 -35
-11 -16 0 -47 -7 -70 -15 -23 -8 -44 -14 -46 -14 -3 0 -30 -3 -59 -6 -40 -5
-62 -3 -83 8 -40 22 -64 30 -98 33 l-30 3 30 -26 c17 -15 29 -31 27 -36 -1 -5
2 -15 8 -22 8 -10 7 -14 -2 -18 -7 -2 -1 -8 15 -12 15 -4 27 -11 27 -16 0 -5
28 -9 63 -8 44 0 56 3 42 9 -16 7 -11 9 20 9 29 1 36 -2 25 -9 -13 -8 -13 -10
2 -10 9 0 29 5 45 11 34 14 209 20 237 8 21 -8 -27 -11 -147 -9 -45 1 -51 -2
-96 -49 -44 -45 -54 -51 -90 -51 -23 0 -58 9 -79 19 -53 27 -116 95 -108 116
3 9 -2 30 -11 47 -15 25 -22 29 -47 24 -45 -9 -67 -34 -63 -70 3 -25 9 -32 33
-37 16 -4 24 -7 17 -8 -6 0 -18 -4 -26 -7 -18 -7 -47 21 -47 46 0 28 47 78 80
85 l30 7 -21 29 c-35 50 -96 39 -170 -31 -9 -8 -19 -22 -21 -30 -6 -18 22 -70
38 -70 6 0 17 -7 24 -15 7 -8 16 -13 20 -10 5 3 28 -17 52 -45 47 -54 58 -58
111 -35 56 23 63 18 22 -15 -21 -16 -42 -30 -47 -30 -14 0 42 -49 64 -56 10
-3 24 -1 31 4 8 7 18 6 31 -4 10 -7 23 -11 28 -8 5 3 14 1 21 -4 7 -5 22 -8
34 -7 12 1 20 -1 18 -5 -2 -3 0 -12 6 -20 6 -10 9 -11 9 -2 0 6 7 12 15 12 8
0 15 5 15 11 0 5 -6 7 -12 3 -9 -5 -9 -3 1 9 12 16 15 15 41 -3 16 -11 33 -20
40 -20 7 0 10 -6 7 -14 -8 -20 4 -28 21 -13 11 8 14 8 9 0 -4 -6 -3 -14 3 -18
6 -4 7 -12 4 -18 -5 -8 -3 -8 7 1 19 18 29 15 29 -10 l1 -23 12 23 c7 12 16
19 20 15 4 -4 10 3 14 15 3 12 9 19 14 16 5 -3 7 -10 4 -15 -4 -5 -1 -17 5
-26 10 -16 11 -16 7 3 -3 12 -1 28 4 35 5 8 9 9 9 3 0 -11 40 -11 57 -1 5 3
15 2 21 -2 17 -10 -60 -81 -88 -81 -11 0 -20 -6 -20 -12 0 -9 -3 -10 -8 -2 -4
6 -25 14 -47 17 l-40 6 35 -11 c19 -7 38 -17 43 -24 4 -7 16 -11 26 -9 14 2
20 -4 24 -21 3 -16 0 -24 -9 -24 -8 0 -14 -4 -14 -9 0 -18 21 -23 37 -9 10 8
14 8 10 1 -4 -7 1 -14 13 -18 21 -7 21 -7 -1 -26 -12 -10 -30 -19 -39 -19 -10
0 -20 -9 -23 -20 -4 -16 -14 -20 -51 -20 -26 0 -46 -5 -46 -11 0 -6 -19 -9
-48 -8 -26 1 -54 -1 -61 -5 -7 -5 -34 1 -61 13 -27 12 -55 18 -64 15 -8 -3
-47 10 -87 30 -71 34 -104 39 -64 10 19 -14 19 -15 -13 -45 -36 -34 -38 -41
-16 -63 18 -18 119 -23 129 -6 4 6 -7 10 -27 10 -18 0 -40 5 -48 11 -12 9 -12
10 4 5 16 -5 17 -4 6 8 -20 25 -8 37 22 22 15 -8 30 -11 34 -8 5 4 2 -1 -5
-10 -15 -21 -12 -22 23 -8 20 7 26 6 26 -4 0 -18 27 -28 34 -13 2 7 5 5 5 -5
1 -9 -3 -20 -9 -23 -5 -3 -10 -12 -10 -19 0 -19 61 -26 77 -10 8 7 21 10 30 7
12 -5 15 -2 10 9 -4 13 -1 15 21 9 26 -7 45 -41 23 -41 -27 0 -7 -15 22 -17
30 -1 138 -30 127 -33 -3 -1 -13 -3 -23 -5 -29 -5 -33 -15 -6 -15 13 0 41 11
61 25 21 14 49 30 63 35 14 5 25 16 25 25 0 8 5 15 10 15 6 0 10 -6 10 -14 0
-9 15 -17 40 -21 22 -4 62 -18 88 -32 33 -18 56 -23 79 -20 19 3 44 0 59 -8
15 -7 33 -11 40 -8 10 4 14 -4 14 -25 0 -61 23 -73 169 -91 73 -9 130 -19 126
-22 -3 -4 5 -4 18 -2 14 3 27 0 31 -5 4 -6 17 -7 34 -3 29 9 66 -1 92 -23 17
-16 66 -3 55 14 -9 14 28 12 44 -2 10 -9 12 -9 7 -1 -8 15 10 27 19 13 5 -8
12 -7 23 2 13 11 14 11 7 -2 -8 -13 -6 -13 8 -2 9 8 21 11 26 8 5 -4 11 6 13
21 2 16 9 28 18 29 32 1 80 16 80 25 0 5 -5 9 -12 9 -9 0 -9 3 -1 11 8 8 16 8
30 0 10 -6 12 -11 6 -11 -7 0 -13 -5 -13 -10 0 -6 11 -5 28 4 21 11 39 12 77
5 65 -12 87 -34 25 -24 -25 3 -56 8 -70 11 -21 4 -29 -2 -49 -35 -14 -22 -29
-38 -33 -35 -4 3 -5 -2 -2 -10 4 -12 -10 -45 -34 -76 -1 -2 -7 2 -12 10 -8 12
-10 11 -10 -5 0 -11 7 -30 15 -42 13 -19 13 -21 -3 -25 -9 -2 -69 -3 -132 -1
-243 8 -1946 8 -1962 1 -12 -6 -18 -5 -18 2 0 6 -5 8 -12 4 -7 -4 -98 -9 -202
-10 -244 -3 -246 -3 -279 -39 -15 -16 -27 -25 -27 -20 0 5 -7 0 -15 -11 -11
-14 -14 -15 -15 -4 0 12 -2 12 -9 2 -4 -7 -6 -25 -3 -39 4 -23 2 -25 -18 -20
-22 6 -22 5 -16 -61 4 -37 8 -80 9 -97 4 -49 54 -103 112 -120 52 -15 395 -36
605 -36 63 -1 120 -5 127 -11 10 -8 9 -18 -2 -45 -32 -77 -1 -65 57 22 15 22
38 47 50 55 31 19 89 40 82 28 -3 -5 9 0 28 12 18 11 42 20 53 20 11 0 31 7
43 16 19 13 22 22 17 45 -8 35 8 44 60 35 46 -9 44 -20 -5 -36 -34 -11 -38
-16 -29 -31 8 -15 6 -19 -6 -19 -9 0 -13 -4 -10 -10 3 -5 -11 -30 -32 -55 -32
-39 -42 -45 -63 -39 -14 3 -31 7 -38 8 -8 1 -18 9 -23 17 -6 10 -9 10 -9 2 0
-16 36 -53 51 -53 5 0 7 -5 3 -12 -5 -8 -2 -9 10 -5 9 4 14 3 11 -2 -3 -5 3
-12 12 -14 17 -4 17 -5 1 -6 -11 -1 -15 -6 -12 -16 7 -17 -18 -45 -40 -45 -9
0 -16 -4 -16 -10 0 -5 -5 -10 -11 -10 -5 0 -7 6 -3 13 6 9 5 9 -7 0 -18 -15
-146 -8 -166 8 -21 18 -16 -8 7 -31 58 -58 344 -88 543 -56 90 15 157 45 205
93 13 14 31 22 38 19 32 -12 173 17 333 69 l171 55 177 0 c98 0 246 5 328 10
83 5 278 10 435 11 284 3 285 2 288 -19 2 -13 8 -19 18 -15 8 3 24 -1 37 -9
32 -21 67 -28 68 -15 0 7 4 1 10 -11 5 -13 15 -22 21 -19 7 2 21 -8 30 -22 20
-29 23 -45 8 -36 -5 3 -10 2 -10 -3 0 -11 134 -42 181 -42 41 0 89 32 89 59 0
30 -41 57 -135 91 -49 18 -97 35 -105 38 -32 12 110 20 200 11 52 -4 175 -9
273 -9 l178 0 -27 -36 c-36 -46 -36 -90 -1 -120 91 -78 596 -99 786 -33 84 29
93 41 85 116 l-6 63 114 0 c101 0 117 -2 133 -20 9 -10 33 -24 51 -30 34 -11
46 -30 21 -30 -19 0 -50 -36 -43 -49 4 -6 26 -15 49 -22 23 -6 51 -19 62 -29
33 -29 62 -40 108 -40 64 0 255 36 281 54 21 13 22 19 16 62 -4 27 -13 50 -19
52 -12 4 -41 54 -41 72 0 17 80 12 86 -5 7 -17 34 -21 34 -5 0 6 20 32 45 58
57 59 69 100 69 228 -1 139 -17 181 -105 280 -39 43 -92 108 -117 144 -25 36
-59 80 -74 98 -15 18 -28 36 -28 41 0 4 13 28 30 52 36 54 38 94 5 143 -30 44
-30 44 -6 70 10 12 24 45 30 74 14 65 -4 113 -49 132 -24 10 -34 8 -71 -11
-24 -12 -47 -27 -51 -33 -6 -8 -11 -7 -17 3 -8 13 -19 13 -75 2 -37 -7 -82
-10 -102 -7 -23 5 -41 3 -51 -6 -8 -7 -5 3 8 23 13 19 39 65 58 101 33 62 34
69 23 106 -14 45 -47 92 -67 92 -7 0 -20 -10 -28 -22 -29 -42 -162 -173 -190
-188 -28 -14 -28 -14 -6 -22 21 -8 21 -9 4 -28 -10 -11 -24 -20 -30 -20 -17 0
-27 -43 -12 -52 7 -4 17 -2 22 5 6 6 16 13 23 15 6 1 18 3 24 5 7 1 19 8 26
15 21 19 65 14 88 -11 27 -29 41 -52 25 -43 -6 4 -14 1 -17 -7 -3 -8 -13 -17
-23 -20 -14 -3 -17 -12 -13 -35 4 -29 32 -49 47 -33 4 3 10 6 13 7 16 2 48 18
55 28 5 7 10 6 17 -4 17 -26 11 -40 -16 -40 -16 0 -24 -5 -21 -12 2 -7 0 -21
-5 -31 -8 -15 -12 -16 -26 -5 -10 8 -13 9 -9 1 4 -6 3 -14 -2 -18 -15 -9 -32
30 -20 42 11 11 -50 30 -113 37 -16 2 -36 10 -47 20 -10 9 -22 16 -27 14 -5
-1 -21 10 -36 25 -15 15 -41 30 -58 33 -16 4 -27 11 -23 17 3 5 0 7 -8 5 -15
-6 -69 21 -69 35 0 4 -5 5 -11 1 -25 -15 25 53 52 71 19 14 24 22 16 27 -8 5
-4 10 11 14 18 5 21 9 10 16 -9 7 -3 8 18 4 l30 -5 18 247 c9 136 22 294 27
352 6 58 9 120 7 138 l-3 32 -49 -35 c-27 -19 -54 -35 -59 -35 -5 0 31 29 80
64 99 71 113 97 62 115 -24 8 -30 15 -24 28 4 10 16 42 27 71 11 29 51 112 88
185 68 129 72 135 212 273 126 125 261 234 289 234 5 0 9 6 9 14 0 15 -37 46
-55 46 -5 0 -4 -4 3 -8 17 -11 -21 -46 -51 -48 -34 -2 -60 -16 -80 -41 -29
-36 -72 -56 -86 -39 -6 7 -8 16 -4 19 3 4 1 7 -5 7 -7 0 -21 -9 -31 -19 -20
-20 -20 -20 0 -26 29 -10 23 -29 -23 -74 -41 -41 -68 -52 -68 -28 0 8 -3 7 -9
-3 -6 -8 -7 -18 -5 -22 7 -11 -48 14 -63 29 -18 16 -16 36 3 29 8 -3 12 -2 9
4 -3 6 3 10 14 10 12 0 21 -6 21 -12 0 -9 3 -8 9 2 7 10 2 19 -19 31 -15 10
-31 23 -35 29 -5 8 -12 7 -25 -5 -22 -20 -16 -47 8 -37 15 5 15 4 3 -11 -10
-13 -17 -15 -27 -6 -8 6 -23 9 -34 6 -29 -8 -35 30 -22 133 24 174 12 224 -23
100 -25 -87 -25 -86 -34 -71 -5 8 -14 10 -21 6 -18 -11 -3 53 19 85 10 14 23
48 31 75 7 28 32 91 55 140 69 146 91 234 60 237 -5 0 -21 -20 -35 -45 -14
-26 -39 -61 -56 -79 -41 -44 -152 -211 -177 -268 -11 -25 -31 -59 -44 -77 -13
-17 -25 -46 -27 -65 -4 -42 -13 -65 -42 -104 -12 -17 -25 -48 -29 -70 -3 -21
-9 -51 -11 -66 -3 -15 -18 -42 -35 -60 -16 -18 -29 -37 -29 -42 0 -5 -6 -17
-13 -25 -8 -9 -19 -35 -26 -58 -13 -48 -30 -54 -61 -23 -11 11 -24 20 -30 20
-21 0 -28 34 -15 71 8 20 10 41 7 45 -4 4 1 4 10 1 10 -3 20 -2 23 3 4 6 16
10 28 10 22 1 22 1 2 17 -13 10 -15 14 -4 10 19 -6 50 12 32 19 -6 3 -21 14
-34 25 -12 10 -26 19 -31 19 -22 0 7 95 36 120 9 7 16 20 16 29 0 9 11 37 25
64 14 26 22 47 18 47 -4 0 -2 5 5 12 15 15 16 32 2 23 -6 -3 -13 0 -16 8 -4
12 -13 13 -34 7 -16 -4 -31 -6 -33 -3 -3 2 -11 -5 -17 -17 -10 -19 -9 -27 9
-51 24 -32 27 -55 9 -62 -44 -14 -71 40 -45 90 7 15 24 51 36 78 13 28 27 57
32 65 47 77 41 122 -45 363 -20 55 -36 109 -36 121 0 12 -7 31 -16 42 -14 17
-15 14 -8 -51z m-2017 -201 c1 -1 0 -7 -3 -13 -8 -13 -33 -4 -40 15 -5 12 -1
14 17 8 12 -3 24 -8 26 -10z m-51 -31 c2 -8 -5 -13 -17 -13 -12 0 -21 6 -21
16 0 18 31 15 38 -3z m186 -19 c25 -9 19 -24 -9 -24 -24 0 -32 10 -18 23 8 8
8 8 27 1z m-178 -29 c18 -13 18 -14 -4 -8 -12 3 -25 9 -28 14 -8 14 10 11 32
-6z m74 -34 c8 -16 7 -19 -8 -17 -9 2 -18 10 -20 19 -5 23 15 21 28 -2z m115
9 c3 -6 -5 -10 -19 -10 -14 0 -28 5 -31 10 -3 6 5 10 19 10 14 0 28 -4 31 -10z
m60 0 c3 -5 -1 -10 -9 -10 -8 0 -18 5 -21 10 -3 6 1 10 9 10 8 0 18 -4 21 -10z
m-460 -10 c3 -5 1 -10 -4 -10 -6 0 -11 5 -11 10 0 6 2 10 4 10 3 0 8 -4 11
-10z m77 -40 c-5 -32 -11 -37 -30 -18 -9 9 -13 7 -18 -5 -7 -20 -40 -23 -47
-4 -7 20 4 46 22 49 9 2 30 5 47 6 29 2 30 1 26 -28z m164 20 c8 0 14 -5 14
-11 0 -15 -53 -6 -58 10 -3 10 0 12 12 8 10 -4 24 -7 32 -7z m-32 -41 c-7 -11
-35 -11 -53 0 -25 16 -3 31 29 19 17 -5 27 -14 24 -19z m184 18 c8 -10 6 -13
-8 -14 -10 -1 -24 5 -31 13 -9 11 -8 14 9 14 11 0 24 -6 30 -13z m-448 -18 c0
-5 4 -8 10 -4 5 3 5 -7 -2 -25 -5 -17 -15 -29 -22 -27 -22 7 -19 67 4 67 5 0
10 -5 10 -11z m710 -34 c13 -16 3 -20 -24 -9 -9 3 -13 10 -10 15 8 13 20 11
34 -6z m-760 -9 c0 -20 -19 -31 -32 -18 -6 6 -7 15 -4 21 10 16 36 13 36 -3z
m314 -2 c7 -19 -1 -34 -19 -34 -15 0 -28 27 -19 41 9 14 31 10 38 -7z m-379
-32 c-6 -6 -35 18 -35 29 0 5 9 1 20 -8 11 -9 17 -19 15 -21z m305 23 c0 -9
-9 -15 -25 -15 -16 0 -25 6 -25 15 0 9 9 15 25 15 16 0 25 -6 25 -15z m-66
-14 c7 -11 -22 -23 -35 -15 -5 3 -7 10 -4 15 8 12 32 12 39 0z m286 -6 c7 -9
11 -18 8 -21 -8 -7 -58 14 -58 26 0 15 36 12 50 -5z m61 -1 c12 -14 11 -16 -5
-13 -11 2 -21 10 -24 17 -5 17 13 15 29 -4z m102 2 c4 -10 0 -12 -14 -9 -22 6
-26 23 -5 23 8 0 16 -6 19 -14z m1722 -26 c3 -5 1 -10 -4 -10 -6 0 -11 5 -11
10 0 6 2 10 4 10 3 0 8 -4 11 -10z m-1545 -40 c0 -5 -6 -10 -14 -10 -8 0 -18
5 -21 10 -3 6 3 10 14 10 12 0 21 -4 21 -10z m-495 -36 c-18 -13 -20 -13 -23
2 -5 21 19 37 33 23 7 -7 4 -15 -10 -25z m1875 -44 c-1 -15 -19 -32 -29 -26
-18 12 -12 32 9 32 11 0 20 -3 20 -6z m-633 -131 c2 -18 -25 -28 -28 -11 -8
43 -6 50 10 40 9 -6 18 -19 18 -29z m-163 -16 c17 7 66 -87 59 -112 -3 -11
-12 -18 -21 -17 -19 3 -62 116 -60 156 1 23 1 23 5 -3 3 -18 9 -27 17 -24z
m870 -8 c3 -8 1 -15 -4 -15 -6 0 -10 7 -10 15 0 8 2 15 4 15 2 0 6 -7 10 -15z
m-786 -30 c-3 -3 -9 2 -12 12 -6 14 -5 15 5 6 7 -7 10 -15 7 -18z m40 -21 c-4
-3 -12 5 -18 18 -12 22 -12 22 6 6 10 -10 15 -20 12 -24z m755 11 c-1 -5 -12
-17 -24 -25 -13 -8 -20 -10 -16 -3 4 6 3 14 -3 18 -6 4 -8 11 -4 16 8 13 50 7
47 -6z m-2413 -35 c0 -5 -5 -10 -11 -10 -5 0 -7 5 -4 10 3 6 8 10 11 10 2 0 4
-4 4 -10z m2319 -87 c15 -30 14 -33 -13 -33 -26 0 -53 -24 -37 -34 5 -3 16 -3
25 0 11 4 16 1 16 -12 0 -9 -3 -14 -7 -11 -11 12 -43 -25 -43 -48 0 -26 27
-40 46 -24 7 5 16 24 19 40 7 30 29 39 38 16 3 -7 -1 -21 -9 -32 -8 -10 -14
-15 -14 -11 0 4 -7 0 -17 -9 -19 -20 -3 -36 28 -28 29 8 27 -57 -2 -75 -12 -8
-18 -19 -15 -28 3 -8 2 -13 -3 -10 -12 8 -21 46 -11 46 4 0 11 7 14 16 5 13 3
14 -7 6 -10 -8 -13 -6 -14 10 -4 41 -43 50 -43 9 0 -20 -19 -41 -37 -41 -17 0
-17 39 1 92 8 24 17 70 20 103 3 33 9 75 12 92 l6 33 18 -23 c9 -12 22 -32 29
-44z m875 -13 c3 0 17 -5 31 -10 l26 -10 -21 -31 c-47 -64 -75 -90 -88 -77 -7
7 -12 18 -12 25 0 8 -6 16 -14 19 -9 3 -12 12 -9 21 4 11 2 14 -5 9 -9 -5 -12
7 -10 46 l2 54 48 -23 c26 -13 50 -23 52 -23z m-3046 -37 c-10 -2 -28 -2 -40
0 -13 2 -5 4 17 4 22 1 32 -1 23 -4z m149 -10 c-20 -2 -52 -2 -70 0 -17 2 0 4
38 4 39 0 53 -2 32 -4z m246 -10 c-34 -2 -93 -2 -130 0 -37 2 -9 3 62 3 72 0
102 -1 68 -3z m2502 -12 c-3 -5 -1 -12 5 -16 5 -3 10 -11 10 -18 0 -6 -6 -2
-14 8 -13 18 -13 35 0 35 3 0 3 -4 -1 -9z m35 -23 c0 -15 3 -19 8 -11 11 17
31 1 29 -24 -1 -19 -3 -20 -24 -6 -13 9 -23 19 -23 23 0 5 -3 15 -6 24 -3 9
-1 16 5 16 6 0 11 -10 11 -22z m-37 -44 c34 -20 64 -38 66 -39 1 -2 -14 -24
-35 -49 -33 -40 -40 -44 -53 -31 -12 10 -21 11 -35 3 -14 -8 -22 -6 -35 7 -13
14 -13 16 -1 11 8 -4 6 0 -4 8 -15 12 -16 16 -5 18 8 0 21 2 29 3 25 2 32 -6
18 -23 -12 -15 -11 -16 4 -4 18 14 12 36 -19 70 -15 15 -16 23 -7 46 8 21 6
21 77 -20z m-3130 -111 c-13 -2 -33 -2 -45 0 -13 2 -3 4 22 4 25 0 35 -2 23
-4z m2691 -6 c18 -9 18 -10 1 -88 -2 -8 -17 -37 -34 -64 -17 -27 -31 -55 -31
-62 0 -7 -7 -31 -16 -53 -12 -30 -20 -38 -29 -30 -6 5 -15 7 -18 3 -4 -3 -7
-1 -7 5 0 5 -3 18 -7 28 -4 11 -3 15 4 11 6 -4 10 1 9 11 0 9 -9 20 -18 24
-28 12 -21 37 21 77 30 28 37 41 30 53 -6 11 -4 21 6 31 13 13 13 16 0 21 -16
6 -16 26 0 38 13 10 65 7 89 -5z m-324 -18 c0 -5 -13 -9 -30 -9 -28 0 -38 9
-25 22 8 8 55 -3 55 -13z m-2785 -19 c-3 -5 -18 -9 -33 -9 l-27 1 30 8 c17 4
31 8 33 9 2 0 0 -3 -3 -9z m1390 0 c3 -5 -1 -10 -10 -10 -9 0 -13 5 -10 10 3
6 8 10 10 10 2 0 7 -4 10 -10z m2068 -19 c33 -13 34 -19 2 -54 -27 -28 -45
-35 -45 -16 0 5 -4 8 -8 5 -4 -2 -14 9 -21 26 -12 27 -12 33 2 43 9 7 13 15 9
20 -4 4 2 3 13 -3 11 -5 32 -15 48 -21z m-2129 -9 c25 -19 24 -44 -1 -35 -11
4 -14 3 -9 -6 4 -7 13 -10 19 -8 18 6 47 -12 47 -28 0 -17 -22 -11 -62 17 -33
23 -38 23 -38 -3 0 -13 4 -18 12 -13 7 4 8 3 4 -4 -10 -16 -38 -15 -86 4 -41
16 -54 43 -22 45 35 1 57 8 60 19 3 7 9 7 19 -2 19 -15 41 -19 49 -7 3 5 0 9
-6 9 -6 0 -9 4 -6 9 4 5 0 12 -6 14 -7 3 -9 6 -5 6 5 1 19 -7 31 -17z m1420 0
c3 -5 -1 -9 -9 -9 -8 0 -15 4 -15 9 0 4 4 8 9 8 6 0 12 -4 15 -8z m-1367 -34
c-3 -8 -6 -5 -6 6 -1 11 2 17 5 13 3 -3 4 -12 1 -19z m-388 -4 c8 -7 -134 -2
-159 6 -14 4 16 5 65 2 50 -2 92 -6 94 -8z m1841 6 c13 -8 13 -10 1 -10 -12 0
-12 -3 -3 -12 14 -14 16 -48 2 -48 -5 0 -7 6 -4 13 3 8 -2 14 -10 14 -8 0 -12
-6 -9 -14 4 -9 -2 -12 -18 -9 -13 2 -32 -1 -43 -6 -13 -7 -16 -7 -12 1 4 6 2
11 -3 11 -6 0 -11 5 -11 11 0 7 11 9 30 6 29 -6 42 6 18 17 -9 3 -7 9 6 20 23
18 35 20 56 6z m31 -33 c-10 -9 -11 -8 -5 6 3 10 9 15 12 12 3 -3 0 -11 -7
-18z m-1443 -23 c-10 -10 -28 6 -28 24 0 15 1 15 17 -1 9 -9 14 -19 11 -23z
m142 32 c0 -3 -4 -8 -10 -11 -5 -3 -10 -1 -10 4 0 6 5 11 10 11 6 0 10 -2 10
-4z m250 -63 c3 -3 -9 -2 -27 1 -18 4 -34 3 -37 -3 -4 -6 -14 -7 -22 -4 -13 5
-13 7 -2 14 10 7 9 9 -4 9 -10 0 -18 6 -18 14 0 11 10 10 53 -6 28 -11 54 -22
57 -25z m-646 15 c-3 -5 -12 -4 -20 3 -19 16 -18 18 6 12 11 -3 17 -9 14 -15z
m-371 -31 c-3 -5 -1 -7 4 -4 6 4 16 1 22 -7 9 -11 6 -12 -16 -8 -32 6 -44 19
-36 39 4 10 9 11 19 2 8 -6 11 -16 7 -22z m902 23 c3 -5 1 -10 -4 -10 -6 0
-11 5 -11 10 0 6 2 10 4 10 3 0 8 -4 11 -10z m-940 -21 c11 -17 -1 -21 -15 -4
-8 9 -8 15 -2 15 6 0 14 -5 17 -11z m2545 -27 c-1 -13 -25 -37 -40 -40 -8 -2
-16 -8 -18 -13 -7 -17 -31 -9 -29 10 0 11 5 17 11 14 5 -4 7 3 3 16 -5 19 -3
20 10 10 12 -10 16 -10 23 1 5 8 6 18 3 23 -3 5 4 4 16 -2 11 -7 21 -15 21
-19z m-538 -7 c5 -7 8 -6 8 1 0 6 16 10 35 10 31 -1 35 -4 31 -21 -3 -11 -6
-28 -6 -38 0 -10 -4 -15 -10 -12 -5 3 -15 1 -22 -5 -7 -6 -22 -17 -33 -25
l-20 -15 20 7 c11 3 17 3 14 -1 -4 -4 -18 -9 -32 -11 -28 -6 -44 19 -27 40 7
9 6 16 -4 24 -11 9 -11 17 -3 35 11 24 36 29 49 11z m-368 -13 c3 -5 19 -7 36
-4 24 3 30 1 30 -14 0 -14 3 -15 12 -6 20 20 48 15 48 -9 0 -16 -5 -20 -20
-16 -11 3 -20 2 -20 -3 0 -4 -9 -10 -20 -13 -11 -3 -20 0 -20 6 0 9 -2 9 -8 1
-10 -15 -52 1 -52 20 0 8 -3 21 -6 30 -6 16 11 23 20 8z m-2866 -89 c-10 -2
-26 -2 -35 0 -10 3 -2 5 17 5 19 0 27 -2 18 -5z m439 -20 c-4 -3 -1 -13 6 -22
10 -14 10 -14 -5 -3 -9 8 -23 11 -30 7 -7 -4 -4 1 6 9 19 16 36 22 23 9z
m-121 -55 c4 -7 3 -8 -4 -4 -16 10 -15 -2 1 -19 17 -16 35 -6 31 18 -1 9 2 17
7 17 5 0 9 -6 9 -13 0 -7 6 -19 12 -25 10 -10 16 -8 29 10 15 19 19 20 33 9 9
-7 16 -19 16 -25 0 -6 -7 -3 -15 7 -13 18 -14 18 -24 -1 -6 -12 -8 -28 -5 -36
3 -9 1 -16 -6 -16 -6 0 -8 -5 -5 -10 4 -6 11 -8 16 -4 5 3 22 8 37 10 27 5 27
5 5 -11 -12 -8 -26 -14 -30 -13 -4 1 -20 -5 -35 -12 -22 -10 -28 -20 -28 -47
0 -18 -4 -33 -9 -33 -5 0 -11 -9 -14 -21 -5 -17 -3 -18 10 -7 15 12 15 11 4
-9 -6 -13 -20 -23 -30 -23 -12 0 -21 -10 -25 -25 -9 -35 -73 -52 -116 -30 -16
8 -30 20 -30 25 0 6 -9 10 -20 10 -23 0 -26 34 -9 110 6 25 10 53 10 62 0 9 9
20 20 23 10 4 23 14 29 24 8 16 5 18 -28 15 -27 -2 -32 -1 -17 5 11 5 23 7 28
4 4 -2 12 -1 18 3 6 3 31 7 56 8 31 1 48 7 54 19 12 20 15 21 25 5z m2884 -14
c0 -8 -4 -14 -8 -14 -4 0 -8 9 -8 19 0 11 4 17 8 15 4 -3 8 -12 8 -20z m70 18
c0 -11 -29 -49 -30 -38 0 5 -8 2 -17 -5 -16 -12 -17 -12 -6 2 7 9 10 19 6 22
-3 4 1 7 10 7 10 0 17 5 17 10 0 6 5 10 10 10 6 0 10 -4 10 -8z m-3139 -25
c-10 -9 -11 -8 -5 6 3 10 9 15 12 12 3 -3 0 -11 -7 -18z m1706 6 c15 -10 24
-13 20 -6 -4 6 -3 15 3 18 6 4 10 3 9 -2 -1 -4 1 -16 6 -26 5 -12 11 -15 20
-7 8 7 12 5 12 -5 0 -8 -5 -15 -11 -16 -6 0 -21 -2 -33 -5 -17 -3 -21 0 -16
12 3 8 2 14 -3 13 -21 -4 -35 2 -29 11 3 6 1 10 -4 10 -6 0 -11 5 -11 10 0 14
7 13 37 -7z m-236 -11 c-7 -2 -18 1 -23 6 -8 8 -4 9 13 5 13 -4 18 -8 10 -11z
m-204 -18 c3 -8 9 -11 14 -8 5 3 16 -2 25 -10 9 -9 21 -13 27 -9 7 3 9 3 5 -2
-4 -4 -3 -14 3 -22 9 -9 8 -13 0 -13 -6 0 -11 -5 -11 -11 0 -5 8 -9 18 -8 9 2
27 -1 39 -5 19 -6 21 -10 10 -26 -6 -11 -24 -25 -40 -31 -25 -11 -57 -49 -40
-49 4 0 24 12 45 26 40 28 61 27 38 -1 -22 -27 -71 -47 -99 -42 -14 3 -38 -2
-54 -10 -27 -13 -29 -13 -34 7 -3 12 -11 19 -19 16 -7 -3 -18 2 -24 10 -10 11
-9 14 4 14 9 0 16 5 16 10 0 6 -7 10 -15 10 -8 0 -15 5 -15 11 0 6 -9 9 -20 6
-22 -6 -26 2 -10 21 7 9 7 9 -2 2 -18 -15 -23 -12 -23 15 0 14 3 25 7 25 3 0
5 8 3 18 -4 25 5 35 21 21 12 -10 13 -9 8 4 -4 12 2 18 20 23 14 3 26 10 26
14 0 14 71 9 77 -6z m408 -4 c10 -11 16 -20 13 -20 -3 0 -13 9 -23 20 -10 11
-16 20 -13 20 3 0 13 -9 23 -20z m-1331 -11 c-3 -5 -10 -7 -15 -3 -5 3 -7 10
-3 15 3 5 10 7 15 3 5 -3 7 -10 3 -15z m1041 1 c3 -5 1 -10 -4 -10 -6 0 -11 5
-11 10 0 6 2 10 4 10 3 0 8 -4 11 -10z m135 -34 c0 -3 -4 -8 -10 -11 -5 -3
-10 -1 -10 4 0 6 5 11 10 11 6 0 10 -2 10 -4z m1263 -3 c-7 -2 -19 -2 -25 0
-7 3 -2 5 12 5 14 0 19 -2 13 -5z m60 -10 c-7 -2 -21 -2 -30 0 -10 3 -4 5 12
5 17 0 24 -2 18 -5z m100 -10 c-13 -2 -33 -2 -45 0 -13 2 -3 4 22 4 25 0 35
-2 23 -4z m265 -10 c-42 -2 -114 -2 -160 0 -46 1 -11 3 77 3 88 0 125 -2 83
-3z m-1577 -22 c-10 -7 -11 -10 -1 -16 10 -6 10 -10 -2 -19 -8 -6 -17 -19 -21
-29 -8 -22 -39 -19 -43 5 -2 19 21 49 51 66 22 12 37 6 16 -7z m-1366 -31 c3
-5 1 -10 -4 -10 -6 0 -11 5 -11 10 0 6 2 10 4 10 3 0 8 -4 11 -10z m532 -36
c-3 -3 -12 -4 -19 -1 -8 3 -5 6 6 6 11 1 17 -2 13 -5z m1820 -36 c-3 -7 -5 -2
-5 12 0 14 2 19 5 13 2 -7 2 -19 0 -25z m53 -4 c0 -2 -9 0 -20 6 -11 6 -20 13
-20 16 0 2 9 0 20 -6 11 -6 20 -13 20 -16z m-2400 6 c0 -5 -2 -10 -4 -10 -3 0
-8 5 -11 10 -3 6 -1 10 4 10 6 0 11 -4 11 -10z m2347 -42 c-3 -8 -6 -5 -6 6
-1 11 2 17 5 13 3 -3 4 -12 1 -19z m-1233 -3 c-6 -14 -35 -35 -48 -35 -16 0
-3 28 17 38 31 15 37 14 31 -3z m-1384 -25 c12 -8 11 -10 -7 -10 -12 0 -25 5
-28 10 -8 13 15 13 35 0z m150 -31 c59 -1 62 -2 31 -10 -39 -12 -36 -18 11
-26 18 -2 38 -6 43 -6 6 -1 13 -6 17 -12 5 -6 8 -5 8 4 0 10 9 12 33 7 18 -3
37 -3 41 1 11 11 36 12 33 1 -1 -6 4 -13 12 -16 9 -3 11 0 6 9 -5 8 -5 11 0 7
4 -4 15 -2 23 5 13 10 14 9 7 -3 -8 -13 -7 -13 8 -1 15 12 20 11 36 -3 10 -9
24 -16 31 -14 8 2 19 -7 25 -20 11 -20 13 -21 19 -6 5 14 9 15 19 5 9 -10 8
-15 -8 -27 -17 -13 -21 -12 -40 10 -24 28 -57 42 -48 21 3 -8 8 -13 12 -11 3
2 12 -3 20 -12 13 -14 10 -14 -35 -7 -60 9 -68 9 -219 -5 -92 -8 -125 -8 -142
1 -31 17 -29 29 5 29 23 1 24 2 10 11 -9 5 -46 7 -82 5 -49 -4 -79 0 -118 14
-51 18 -51 19 -16 16 23 -2 45 3 55 11 10 8 13 12 6 9 -6 -4 -14 -2 -18 4 -7
11 18 14 29 3 14 -14 67 -11 73 4 4 9 13 13 27 9 11 -3 50 -6 86 -7z m284 2
c18 -7 18 -8 -4 -14 -16 -4 -30 -1 -40 8 -13 13 -12 15 5 14 11 0 29 -4 39 -8z
m216 -81 c0 -21 -12 -24 -44 -11 -14 5 -16 10 -8 15 7 4 17 4 24 0 7 -4 8 -3
4 4 -4 7 -1 12 8 12 9 0 16 -9 16 -20z m45 1 c-2 -13 1 -18 9 -15 8 3 16 -1
19 -9 4 -10 -1 -13 -19 -9 -23 4 -33 30 -17 45 10 11 12 8 8 -12z m-70 -31 c3
-5 -1 -10 -10 -10 -9 0 -13 5 -10 10 3 6 8 10 10 10 2 0 7 -4 10 -10z m2453
-66 c13 -4 21 -11 20 -16 -2 -5 -7 -8 -10 -6 -4 2 -14 -6 -22 -17 -16 -21 -21
-39 -8 -32 4 3 7 -6 7 -20 0 -21 -3 -24 -25 -18 -14 3 -33 6 -43 6 -10 0 -20
6 -23 14 -7 17 35 75 53 75 7 0 13 5 13 10 0 12 6 12 38 4z m-178 -16 c0 -7
-5 -20 -10 -28 -8 -13 -10 -12 -10 3 0 12 -4 16 -12 11 -9 -5 -9 -2 1 9 16 20
31 22 31 5z m-1045 -8 c-4 -6 -10 -8 -15 -5 -4 3 -10 1 -12 -5 -1 -5 -39 -12
-83 -15 -86 -5 -71 6 30 24 71 12 87 12 80 1z m1387 -14 c9 -21 7 -29 -16 -56
-14 -17 -26 -38 -26 -46 0 -11 -9 -14 -41 -10 -23 3 -44 7 -47 10 -7 7 19 66
29 66 4 0 11 10 15 23 14 44 67 52 86 13z m-1642 -25 c-36 -11 -146 -24 -139
-17 6 6 108 23 144 24 15 0 13 -2 -5 -7z m1780 -6 l30 -15 -23 -38 c-31 -49
-39 -72 -25 -72 7 0 6 -5 -2 -15 -7 -9 -20 -15 -29 -13 -9 1 -21 -1 -28 -5 -7
-5 -21 6 -37 29 -27 40 -29 36 35 105 42 45 40 44 79 24z m-1585 -15 c-3 -5
-29 -17 -58 -25 -59 -19 -311 -29 -367 -15 -32 8 -30 8 20 8 30 -1 107 4 170
11 117 13 233 28 238 30 2 0 0 -3 -3 -9z m1775 -45 c16 -14 14 -18 -27 -60
-35 -36 -42 -49 -34 -63 8 -16 5 -17 -27 -14 -34 4 -36 4 -22 -13 14 -17 13
-17 -10 -10 -27 8 -59 42 -60 62 0 7 25 38 55 68 58 59 85 66 125 30z m-2547
8 c-7 -2 -21 -2 -30 0 -10 3 -4 5 12 5 17 0 24 -2 18 -5z m-70 -10 c-7 -2 -19
-2 -25 0 -7 3 -2 5 12 5 14 0 19 -2 13 -5z m219 -3 c-13 -6 -21 -14 -17 -20 3
-5 0 -7 -8 -4 -7 2 -27 -8 -43 -24 -18 -18 -49 -33 -84 -41 -30 -7 -75 -22
-100 -33 -33 -15 -73 -21 -150 -24 -58 -2 -132 -5 -165 -7 -57 -2 -60 -1 -63
22 -3 19 -6 21 -13 10 -5 -9 -9 -10 -9 -2 0 6 4 14 10 18 5 3 7 12 4 20 -4 9
1 14 13 13 22 0 78 7 258 34 77 11 172 23 212 27 39 3 74 9 77 11 2 3 26 6 53
7 38 2 43 0 25 -7z m-592 -38 c21 -6 19 -8 -20 -12 -25 -3 -45 -10 -45 -17 0
-6 -3 -15 -8 -19 -4 -4 -6 4 -5 19 1 14 5 24 8 22 3 -2 12 0 20 6 18 11 19 11
50 1z m2200 -2 c0 -5 -2 -10 -4 -10 -3 0 -8 5 -11 10 -3 6 -1 10 4 10 6 0 11
-4 11 -10z m915 -29 c11 -5 29 -12 40 -16 16 -5 7 -12 -42 -33 -35 -15 -65
-33 -68 -41 -4 -10 -2 -11 7 -4 18 14 58 23 58 13 0 -4 -7 -13 -15 -20 -8 -7
-15 -16 -15 -21 0 -5 7 -9 15 -9 8 0 15 -4 15 -10 0 -5 -11 -10 -25 -10 -14 0
-25 -4 -25 -10 0 -5 -8 -10 -18 -10 -11 0 -24 -11 -30 -25 -22 -47 -45 -26
-48 45 -2 25 -6 57 -9 71 -6 22 1 32 46 72 50 43 55 46 74 32 11 -9 29 -19 40
-24z m-654 -1 c216 -48 276 -110 169 -175 -13 -8 -13 -6 -1 8 19 23 8 43 -36
67 -21 11 -52 29 -68 40 -17 10 -62 24 -100 30 -39 6 -104 22 -145 35 l-75 25
81 -4 c44 -3 123 -14 175 -26z m-1724 10 c-16 -5 -34 -12 -41 -17 -6 -4 -3 0
7 10 11 9 29 17 41 16 17 -1 16 -2 -7 -9z m1306 3 c-13 -2 -33 -2 -45 0 -13 2
-3 4 22 4 25 0 35 -2 23 -4z m-144 -27 c-2 -2 -29 -6 -59 -9 -34 -3 -47 -2
-35 3 19 8 103 14 94 6z m181 -30 c0 -21 -23 -36 -54 -36 -38 0 -61 14 -54 31
7 18 108 23 108 5z m-139 -12 c12 -15 11 -16 -11 -9 -35 10 -49 25 -23 25 11
0 27 -7 34 -16z m-1031 -4 l25 -8 -26 -1 c-14 -1 -41 -11 -60 -24 -61 -41 -62
-42 -50 -19 12 23 61 62 76 61 6 -1 21 -5 35 -9z m350 -7 c0 -3 -18 -30 -40
-60 -43 -56 -97 -97 -142 -108 l-28 -7 25 47 c14 25 25 52 25 59 0 24 50 60
93 67 60 9 67 10 67 2z m-1515 -50 c27 -1 84 -10 125 -18 l75 -15 -70 6 c-38
3 -101 7 -138 9 -66 3 -103 18 -91 36 3 5 15 4 27 -3 12 -6 44 -13 72 -15z
m2170 13 c39 -7 90 -23 115 -34 l45 -21 -60 0 c-58 -1 -200 21 -212 33 -11 10
7 36 24 35 10 0 50 -6 88 -13z m895 -14 c0 -9 7 -29 14 -44 13 -25 13 -28 0
-28 -12 0 -14 -7 -9 -29 6 -28 4 -30 -21 -27 -16 2 -30 8 -32 15 -3 8 3 8 24
1 23 -9 25 -9 15 4 -15 18 -37 15 -57 -10 -13 -16 -15 -16 -10 -1 7 24 -3 22
-12 -3 -5 -13 -11 -17 -21 -11 -22 14 -6 51 45 109 45 51 64 58 64 24z m-1317
-31 c79 -45 147 -62 210 -52 53 9 261 0 273 -11 14 -14 -10 -28 -49 -29 -23
-1 3 -6 58 -10 57 -5 162 -4 244 2 79 5 146 7 149 4 3 -3 -6 -5 -19 -6 -13 0
-31 -2 -39 -3 -91 -17 -407 -24 -497 -10 -23 3 -71 7 -106 8 -54 1 -64 -2 -59
-14 5 -13 3 -13 -11 -1 -10 8 -20 11 -24 7 -3 -3 -2 -6 3 -6 5 0 10 -9 11 -19
1 -14 -3 -18 -13 -14 -8 3 -22 2 -31 -1 -12 -5 -14 -9 -5 -18 7 -7 12 -16 12
-21 0 -5 -9 1 -19 14 -11 13 -22 21 -26 18 -3 -4 1 -14 10 -23 15 -15 15 -16
-2 -16 -10 0 -27 8 -38 17 -18 14 -18 15 -2 9 13 -4 17 -2 14 6 -2 7 -15 13
-29 12 -33 -1 -32 23 2 53 14 12 19 23 13 23 -7 0 -13 -5 -13 -11 0 -5 -5 -7
-12 -3 -6 4 -8 3 -5 -3 3 -5 0 -10 -8 -10 -19 0 -19 2 1 21 13 14 13 16 1 16
-10 0 -13 7 -10 20 3 11 1 20 -4 20 -9 0 -44 64 -42 78 0 4 3 2 6 -5 2 -7 28
-26 56 -42z m-895 32 c-10 -2 -28 -2 -40 0 -13 2 -5 4 17 4 22 1 32 -1 23 -4z
m152 -3 c-8 -5 -24 -9 -35 -9 -16 1 -16 2 5 9 35 11 48 11 30 0z m1085 -31
c72 -17 131 -33 133 -34 2 -2 -52 -1 -120 2 -93 4 -132 10 -161 25 -32 16 -36
22 -26 34 6 8 19 12 28 9 9 -2 75 -19 146 -36z m-1391 -20 c-16 -17 -38 -35
-49 -41 -11 -6 -2 8 20 31 21 22 43 41 49 41 5 0 -3 -14 -20 -31z m-45 -5
c-73 -80 -144 -104 -190 -64 l-24 20 26 -6 c32 -7 140 27 176 56 36 28 41 25
12 -6z m330 -38 c-43 -73 -91 -106 -154 -106 -37 0 -124 26 -140 42 -5 5 4 4
20 -2 47 -18 122 -13 161 11 19 11 34 17 34 13 0 -4 8 2 18 12 14 17 72 63 79
64 1 0 -7 -15 -18 -34z m1798 -2 c-3 -3 -12 -4 -19 -1 -8 3 -5 6 6 6 11 1 17
-2 13 -5z m-50 -10 c-3 -3 -12 -4 -19 -1 -8 3 -5 6 6 6 11 1 17 -2 13 -5z
m-44 -11 c-7 -2 -21 -2 -30 0 -10 3 -4 5 12 5 17 0 24 -2 18 -5z m1232 -42
c-3 -6 -14 -9 -25 -8 -24 2 -15 17 11 17 11 0 18 -4 14 -9z m-760 -21 c3 -5 1
-10 -4 -10 -6 0 -11 5 -11 10 0 6 2 10 4 10 3 0 8 -4 11 -10z m-1285 -20 c0
-5 -2 -10 -4 -10 -3 0 -8 5 -11 10 -3 6 -1 10 4 10 6 0 11 -4 11 -10z m1463
-21 c3 -12 -3 -36 -14 -55 -10 -19 -16 -34 -13 -34 3 0 2 -5 -1 -10 -5 -8 -11
-8 -20 0 -10 8 -15 7 -19 -2 -13 -27 4 53 18 86 17 40 41 47 49 15z m-310 -6
c3 -5 -1 -14 -9 -21 -12 -11 -14 -9 -14 8 0 20 14 27 23 13z m632 -13 c3 -6
-1 -7 -9 -4 -18 7 -21 14 -7 14 6 0 13 -4 16 -10z m-740 -14 c55 -1 65 -8 57
-38 -3 -13 -11 -18 -23 -15 -13 3 -17 1 -12 -6 4 -7 0 -6 -10 1 -9 8 -21 11
-27 7 -5 -3 -10 -2 -10 3 0 6 -8 8 -19 5 -10 -3 -22 0 -26 7 -5 8 -11 7 -23
-2 -9 -7 -13 -8 -9 -2 5 8 -14 14 -61 18 -37 4 -76 10 -87 13 -38 12 24 20
115 14 47 -2 108 -5 135 -5z m-2505 -46 c0 -11 -7 -20 -15 -20 -8 0 -15 9 -15
20 0 11 7 20 15 20 8 0 15 -9 15 -20z m2185 4 c33 -3 103 -13 155 -22 52 -8
120 -16 151 -16 51 -1 56 -3 54 -22 -4 -43 -13 -47 -94 -39 -42 4 -92 9 -111
10 -67 6 -110 14 -130 25 -11 6 -20 8 -20 5 0 -4 -6 -3 -12 2 -7 4 -22 7 -34
8 -11 0 -27 5 -35 11 -11 10 -98 24 -156 27 -7 0 -13 4 -13 8 0 4 -10 5 -22 2
-17 -3 -19 -2 -10 5 14 9 166 7 277 -4z m888 2 c9 -7 17 -23 17 -36 0 -22 -1
-22 -26 -5 -14 9 -32 14 -40 11 -9 -3 -14 1 -14 13 0 33 30 42 63 17z m-1163
-49 c52 -14 120 -28 150 -32 30 -3 98 -15 150 -25 52 -11 133 -22 180 -24 47
-3 87 -5 89 -6 7 0 -34 -42 -51 -51 -19 -10 -158 6 -198 23 -14 6 -59 12 -100
13 -41 2 -90 8 -108 13 -18 6 -36 12 -40 13 -23 6 -39 11 -52 18 -8 5 -30 7
-48 6 -17 -1 -32 2 -32 7 0 5 -8 8 -17 7 -10 -1 -20 0 -23 1 -21 8 -40 6 -40
-3 0 -7 -5 -4 -11 6 -6 11 -22 17 -44 17 -26 0 -65 20 -65 33 0 1 37 3 83 5
62 2 105 -3 177 -21z m1166 -29 c9 -14 1 -18 -50 -24 -52 -7 -62 7 -19 29 27
15 59 12 69 -5z m135 -20 c32 -35 34 -43 19 -61 -6 -7 -20 -23 -31 -37 -12
-14 -28 -40 -35 -57 -15 -35 -26 -37 -55 -14 -16 13 -16 18 -4 40 7 14 19 53
25 86 7 33 14 63 17 68 9 16 35 6 64 -25z m-3471 -3 c0 -14 -4 -25 -10 -25 -5
0 -10 11 -10 25 0 14 5 25 10 25 6 0 10 -11 10 -25z m1918 10 c37 -9 96 -22
132 -30 36 -9 124 -26 195 -39 118 -22 181 -32 345 -55 l55 -8 -30 -12 c-26
-11 -170 -16 -245 -8 -55 6 -178 29 -220 42 -25 7 -63 16 -85 20 -96 16 -135
27 -135 40 0 19 -12 21 -93 15 -58 -5 -74 -3 -84 10 -10 12 -7 17 15 27 36 16
71 16 150 -2z m1195 8 c-7 -2 -19 -2 -25 0 -7 3 -2 5 12 5 14 0 19 -2 13 -5z
m-2518 -62 c-15 -22 -32 -41 -36 -41 -5 0 -9 -6 -9 -14 0 -21 -48 -56 -76 -56
-34 0 -30 17 9 40 59 36 69 45 94 88 16 28 29 40 35 34 6 -6 0 -25 -17 -51z
m2675 -6 c-7 -8 -20 -15 -29 -15 -12 1 -11 5 8 21 26 22 41 18 21 -6z m-3385
5 c3 -5 1 -10 -4 -10 -6 0 -11 5 -11 10 0 6 2 10 4 10 3 0 8 -4 11 -10z m1871
-14 c66 -13 166 -32 224 -41 91 -14 308 -55 378 -70 12 -3 22 -10 22 -15 0 -6
-3 -9 -7 -8 -5 0 -15 -1 -23 -5 -33 -12 -60 -15 -66 -6 -3 5 -26 9 -52 9 -67
0 -192 19 -256 39 -17 5 -60 10 -96 10 -91 2 -92 2 -97 21 -4 14 -17 17 -66
18 -34 1 -84 8 -112 16 -27 9 -60 16 -72 16 -36 0 -27 17 15 28 57 15 80 14
208 -12z m1827 -31 c15 -14 27 -29 27 -33 0 -4 19 -27 42 -52 23 -25 44 -52
45 -61 1 -9 16 -30 32 -47 33 -37 45 -87 24 -108 -9 -9 -10 -14 -3 -14 6 0 8
-4 5 -10 -7 -12 -26 -14 -24 -2 4 21 -3 32 -20 32 -11 0 -21 -6 -24 -12 -3 -9
-12 -6 -29 10 -13 12 -30 22 -37 22 -8 0 -10 7 -6 20 5 15 3 18 -9 14 -13 -5
-15 0 -9 27 3 19 13 39 22 46 14 10 14 13 -2 30 -9 11 -17 28 -17 38 0 15 -3
13 -20 -8 -11 -14 -20 -31 -21 -39 0 -10 -2 -10 -6 0 -2 6 -9 12 -14 12 -6 0
-7 -4 -4 -10 8 -13 -1 -13 -27 1 -16 9 -18 13 -7 19 8 5 12 23 11 44 -3 36 21
106 35 106 5 0 21 -11 36 -25z m-2633 1 c0 -2 -8 -10 -17 -17 -16 -13 -17 -12
-4 4 13 16 21 21 21 13z m2268 -12 c49 -7 53 -18 13 -39 -16 -8 -35 -20 -43
-28 -26 -25 -124 -66 -173 -72 -27 -3 -67 -11 -87 -17 -37 -11 -38 -12 -38
-60 0 -28 -7 -59 -16 -74 l-17 -25 -23 22 c-13 13 -24 30 -23 38 0 11 2 12 6
3 9 -22 23 -2 23 33 0 25 -6 37 -22 46 -36 18 -57 40 -52 53 7 17 85 17 157 1
68 -16 103 -10 66 11 -13 7 -32 13 -42 14 -10 0 -20 7 -23 15 -4 8 -10 12 -15
9 -9 -5 -53 15 -47 22 3 2 40 -5 84 -15 91 -22 164 -32 164 -22 0 9 -70 38
-113 46 -40 8 -55 20 -34 27 17 7 54 2 117 -16 62 -18 114 -21 105 -6 -3 6
-17 10 -30 10 -27 0 -42 16 -23 24 7 2 -3 3 -23 1 -20 -2 -42 1 -50 7 -14 9
66 5 159 -8z m-1653 -15 c50 -11 140 -31 200 -45 84 -19 304 -51 368 -54 17 0
5 -19 -22 -29 -35 -15 -201 -23 -201 -10 0 5 -5 8 -11 7 -6 -2 -14 3 -16 10
-3 8 6 12 26 12 17 0 31 5 31 10 0 15 -87 12 -102 -4 -18 -17 -58 -13 -204 25
-65 17 -146 35 -180 41 -44 8 -64 17 -74 32 -10 16 -10 18 0 9 10 -9 16 -8 27
3 19 19 51 17 158 -7z m-614 -105 c40 -59 36 -66 -6 -13 -26 33 -34 53 -33 79
1 33 1 33 5 6 3 -17 18 -49 34 -72z m-486 51 l20 -7 -20 -8 c-17 -6 -15 -8 13
-15 40 -8 50 -29 28 -54 -13 -14 -25 -16 -68 -10 -30 4 -57 3 -63 -3 -6 -6 -3
-7 9 -2 13 5 17 4 13 -3 -5 -7 1 -9 15 -6 17 3 19 2 9 -5 -10 -8 -6 -11 18
-17 18 -4 28 -11 25 -17 -7 -11 -149 -6 -161 6 -11 11 12 41 35 44 16 3 19 8
13 30 -6 21 -3 31 15 44 12 10 32 18 43 18 12 0 21 5 21 11 0 5 3 8 8 6 4 -2
16 -7 27 -12z m913 -9 c33 -9 96 -23 139 -31 43 -8 121 -23 173 -33 91 -17
110 -32 39 -31 -19 0 -56 -4 -84 -9 -52 -11 -70 -8 -59 10 4 7 2 8 -4 4 -10
-6 -57 0 -157 19 -16 3 -51 13 -77 21 -26 9 -52 12 -58 9 -7 -4 -14 2 -17 15
-4 15 -11 20 -24 17 -22 -6 -25 3 -7 21 13 13 50 10 136 -12z m-73 -70 c119
-26 222 -55 193 -55 -16 -1 -28 -6 -28 -11 0 -7 -6 -8 -17 -1 -11 6 -26 5 -42
-1 -27 -10 -87 -8 -111 3 -13 6 -39 17 -60 24 -3 1 -33 5 -68 10 l-63 8 29 17
c34 21 61 29 82 24 8 -2 47 -10 85 -18z m-32 -106 c9 0 8 -3 0 -8 -7 -4 -30
-6 -50 -3 -35 4 -36 5 -13 12 14 4 31 5 38 3 8 -2 19 -4 25 -4z m2169 -24 c88
-14 101 -22 73 -42 -15 -11 -34 -13 -74 -8 -38 5 -55 3 -61 -6 -6 -10 -23 -10
-76 -3 l-69 10 67 2 c102 2 112 11 42 37 l-59 23 40 0 c22 0 75 -6 117 -13z
m-217 -44 c-3 -3 -11 0 -18 7 -9 10 -8 11 6 5 10 -3 15 -9 12 -12z m495 -20
c-7 -3 -19 3 -28 13 -16 15 -15 16 12 4 15 -7 23 -15 16 -17z m-950 -57 c30
-1 61 4 69 9 9 7 12 7 9 1 -4 -6 24 -9 78 -6 57 2 84 -1 84 -8 0 -6 5 -11 11
-11 5 0 8 4 5 8 -8 13 77 11 93 -1 12 -9 13 -9 7 1 -5 9 3 12 30 12 28 0 34
-3 26 -13 -8 -10 -6 -13 7 -13 11 0 17 6 14 13 -3 7 3 11 16 10 12 -1 21 -7
21 -15 0 -7 5 -10 10 -7 6 4 8 10 6 13 -5 8 141 5 162 -3 8 -3 10 0 6 6 -4 7
0 9 13 5 10 -3 74 -8 140 -10 67 -2 126 -7 132 -11 6 -3 11 -1 11 5 0 7 6 8
19 1 10 -6 21 -7 25 -4 3 3 6 2 6 -4 0 -7 -39 -10 -112 -9 -83 1 -656 -9 -795
-14 -19 0 -16 -71 3 -98 15 -21 14 -22 -15 -22 -28 0 -31 -3 -31 -31 0 -17 4
-38 9 -47 14 -26 2 -72 -17 -65 -9 4 -13 2 -9 -4 4 -6 -3 -8 -19 -5 -25 5 -25
5 -5 23 16 15 20 31 20 82 0 34 7 82 15 107 9 25 18 49 19 53 1 5 -118 9 -265
10 -148 1 -268 5 -268 10 0 4 24 7 53 8 28 1 66 3 82 6 17 2 65 6 109 8 43 2
81 6 84 10 3 3 21 2 40 -1 27 -5 33 -4 27 6 -6 10 -4 11 6 4 8 -5 39 -9 69 -9z
m1065 -24 c-10 -9 -55 -9 -55 0 0 5 13 8 30 7 16 -1 27 -4 25 -7z m-1552 -8
c-7 -2 -21 -2 -30 0 -10 3 -4 5 12 5 17 0 24 -2 18 -5z m507 -202 c0 -23 -36
-69 -46 -58 -4 4 2 17 14 30 12 13 22 29 22 35 0 7 2 12 5 12 3 0 5 -9 5 -19z
m-2933 -26 c-40 -15 -137 -81 -137 -94 0 -13 -29 -46 -30 -34 -1 39 140 144
190 142 8 0 -2 -7 -23 -14z m2916 -92 c2 -13 2 -22 0 -19 -3 2 -18 -7 -35 -22
-39 -35 -113 -42 -121 -12 -8 33 56 79 109 78 36 0 43 -4 47 -25z m961 -91 c2
-4 -4 -9 -15 -9 -10 -1 -19 2 -19 8 0 11 27 12 34 1z m23 -16 c-4 -10 5 -18
26 -26 31 -11 31 -12 12 -26 -17 -12 -20 -12 -28 1 -12 21 -26 19 -36 -7 -6
-18 -9 -19 -14 -5 -4 10 -2 17 4 17 5 0 15 14 20 30 6 17 13 30 16 30 3 0 3
-6 0 -14z m115 7 c-18 -2 -30 -9 -26 -14 3 -6 -5 -7 -23 -3 -58 14 -54 21 13
21 38 0 54 -2 36 -4z m-1174 -27 c40 -7 75 -16 79 -20 14 -14 -15 -24 -79 -28
-71 -3 -91 6 -93 42 -2 23 -3 23 93 6z m1282 2 c21 0 22 -1 6 -10 -9 -5 -20
-8 -23 -5 -2 3 -23 -1 -45 -9 -22 -7 -45 -11 -50 -8 -5 4 -24 -4 -41 -17 l-32
-23 16 24 c19 29 95 61 124 53 11 -3 31 -5 45 -5z m-3772 -33 c-33 -38 -52
-47 -80 -35 -23 10 -23 11 0 6 12 -2 25 1 30 8 10 17 64 57 69 52 3 -2 -6 -16
-19 -31z m-113 -15 c3 -5 1 -10 -4 -10 -6 0 -11 5 -11 10 0 6 2 10 4 10 3 0 8
-4 11 -10z m2482 -35 c22 0 39 3 36 8 -2 4 8 7 24 6 24 0 25 -1 8 -8 -15 -7
-6 -10 38 -16 54 -7 57 -8 37 -22 -11 -8 -17 -19 -13 -26 5 -8 2 -8 -9 0 -8 7
-17 11 -20 8 -2 -2 -26 -5 -54 -5 -85 -2 -116 12 -109 49 2 9 4 18 4 21 1 3 5
1 9 -5 4 -5 26 -10 49 -10z m-2490 -21 c-3 -3 -12 -4 -19 -1 -8 3 -5 6 6 6 11
1 17 -2 13 -5z m-59 -11 c-10 -2 -26 -2 -35 0 -10 3 -2 5 17 5 19 0 27 -2 18
-5z"/>
<path d="M9290 5858 c0 -6 6 -8 14 -5 8 3 17 2 20 -4 2 -5 3 -4 2 2 -3 15 -36
21 -36 7z"/>
<path d="M7960 5515 c-11 -13 -10 -14 4 -9 9 3 16 10 16 15 0 13 -6 11 -20 -6z"/>
<path d="M7995 5490 c-4 -6 -10 -8 -13 -6 -4 2 -13 -7 -19 -21 -10 -21 -10
-24 3 -19 9 3 20 6 26 6 6 0 8 6 5 14 -3 7 0 19 6 25 6 6 8 11 5 11 -4 0 -10
-5 -13 -10z"/>
<path d="M7942 5410 c-18 -29 -15 -38 4 -12 9 13 14 25 12 27 -2 2 -9 -5 -16
-15z"/>
<path d="M7845 5361 c-3 -5 -1 -12 5 -16 5 -3 10 1 10 9 0 18 -6 21 -15 7z"/>
<path d="M7896 5350 c-15 -5 -16 -9 -7 -14 7 -5 18 -3 24 3 14 14 6 20 -17 11z"/>
<path d="M7825 5180 c3 -5 12 -10 20 -10 8 0 17 5 20 10 4 6 -5 10 -20 10 -15
0 -24 -4 -20 -10z"/>
<path d="M8157 5138 c-15 -12 -14 -13 10 -14 16 -1 22 1 15 3 -6 3 -10 9 -6
14 7 12 1 11 -19 -3z"/>
<path d="M8110 5129 c0 -5 5 -7 10 -4 6 3 10 8 10 11 0 2 -4 4 -10 4 -5 0 -10
-5 -10 -11z"/>
<path d="M8495 4800 c-24 -6 -19 -7 25 -7 38 0 49 2 35 8 -23 9 -21 9 -60 -1z"/>
<path d="M8588 4803 c6 -2 18 -2 25 0 6 3 1 5 -13 5 -14 0 -19 -2 -12 -5z"/>
<path d="M8428 4793 c7 -3 16 -2 19 1 4 3 -2 6 -13 5 -11 0 -14 -3 -6 -6z"/>
<path d="M9890 4574 c0 -8 5 -12 10 -9 6 4 8 11 5 16 -9 14 -15 11 -15 -7z"/>
<path d="M11874 3954 c3 -9 6 -18 6 -20 0 -2 4 -4 9 -4 5 0 7 9 4 20 -3 11
-10 20 -15 20 -6 0 -7 -7 -4 -16z"/>
<path d="M11488 3793 c7 -3 16 -2 19 1 4 3 -2 6 -13 5 -11 0 -14 -3 -6 -6z"/>
<path d="M8579 7014 c-7 -8 -21 -13 -31 -11 -10 3 -16 1 -13 -3 3 -5 -3 -11
-12 -13 -10 -3 -4 -5 13 -6 21 -1 37 7 52 24 12 14 18 25 13 25 -5 0 -14 -7
-22 -16z"/>
<path d="M8713 7016 c-6 -8 -9 -17 -6 -20 4 -3 -2 -6 -13 -7 -11 0 -13 -3 -6
-6 6 -2 10 -9 6 -14 -3 -5 2 -9 10 -9 10 0 13 6 10 15 -3 8 0 17 8 20 8 3 15
12 15 20 0 18 -8 18 -24 1z"/>
<path d="M8628 7003 c7 -3 16 -2 19 1 4 3 -2 6 -13 5 -11 0 -14 -3 -6 -6z"/>
<path d="M8876 7001 c-4 -7 -5 -15 -2 -18 9 -9 19 4 14 18 -4 11 -6 11 -12 0z"/>
<path d="M8248 6973 c7 -3 16 -2 19 1 4 3 -2 6 -13 5 -11 0 -14 -3 -6 -6z"/>
<path d="M8527 6963 c-18 -5 -18 -5 0 -19 10 -7 26 -14 36 -14 15 0 15 3 5 20
-7 11 -15 19 -18 19 -3 -1 -13 -3 -23 -6z"/>
<path d="M8630 6954 c0 -8 5 -12 10 -9 6 4 8 11 5 16 -9 14 -15 11 -15 -7z"/>
<path d="M8230 6945 c-9 -11 -6 -13 15 -11 34 4 41 12 16 19 -11 3 -25 -1 -31
-8z"/>
<path d="M8378 6948 c-9 -5 -4 -8 15 -8 15 0 27 4 27 8 0 11 -25 11 -42 0z"/>
<path d="M8437 6932 c4 -10 2 -13 -5 -8 -7 4 -12 2 -12 -3 0 -12 11 -14 34 -5
22 8 20 21 -3 27 -15 3 -18 1 -14 -11z"/>
<path d="M8803 6935 c-10 -11 -9 -15 7 -20 23 -7 60 2 60 15 0 5 -7 7 -15 4
-8 -4 -21 -2 -28 4 -8 7 -16 6 -24 -3z"/>
<path d="M8664 6925 c-3 -8 -3 -18 0 -24 3 -5 0 -12 -6 -14 -7 -3 -3 -6 10 -6
12 -1 23 0 25 1 1 1 12 -4 25 -11 17 -9 22 -9 22 0 0 7 8 5 20 -6 17 -15 20
-16 20 -3 0 9 -7 18 -15 22 -8 3 -12 12 -9 21 5 12 -3 15 -42 15 -35 0 -45 3
-34 10 10 7 11 10 2 10 -7 0 -15 -7 -18 -15z"/>
<path d="M8286 6911 c-4 -5 -1 -11 6 -13 16 -6 1 -27 -26 -38 -20 -8 -20 -9
-1 -9 31 -1 55 22 48 47 -6 23 -18 28 -27 13z"/>
<path d="M8790 6883 c0 -20 27 -27 68 -18 24 6 30 21 10 23 -7 1 -28 5 -45 8
-28 5 -33 3 -33 -13z"/>
<path d="M10360 6881 c0 -5 7 -14 15 -21 16 -14 18 -10 9 14 -6 17 -24 22 -24
7z"/>
<path d="M8545 6847 c-25 -23 -28 -29 -15 -37 18 -12 28 -11 55 0 11 5 14 9 8
9 -21 1 -15 31 6 31 31 0 34 17 3 21 -19 3 -36 -4 -57 -24z"/>
<path d="M11352 6821 c-11 -33 -18 -62 -14 -65 3 -3 0 -6 -7 -6 -7 0 -10 -4
-7 -9 3 -5 -1 -12 -10 -15 -8 -3 -12 -10 -9 -16 4 -6 11 -8 16 -5 11 8 12 -16
0 -47 -4 -13 -11 -36 -15 -52 -7 -27 -6 -28 10 -15 29 24 68 93 66 118 -1 14
4 34 12 45 33 51 31 126 -4 126 -13 0 -23 -16 -38 -59z"/>
<path d="M8374 6859 c-3 -6 -15 -9 -25 -6 -10 3 -23 -1 -30 -9 -28 -34 53 -23
87 11 14 13 13 15 -5 15 -11 0 -23 -5 -27 -11z"/>
<path d="M8438 6863 c7 -3 16 -2 19 1 4 3 -2 6 -13 5 -11 0 -14 -3 -6 -6z"/>
<path d="M8165 6850 c-3 -5 1 -10 9 -10 8 0 18 5 21 10 3 6 -1 10 -9 10 -8 0
-18 -4 -21 -10z"/>
<path d="M10840 6851 c0 -5 5 -13 10 -16 6 -3 10 -2 10 4 0 5 -4 13 -10 16 -5
3 -10 2 -10 -4z"/>
<path d="M10406 6771 c3 -65 0 -80 -13 -85 -12 -5 -7 -11 22 -26 31 -16 40
-17 49 -6 6 7 21 20 34 28 l22 15 -51 69 c-28 38 -54 73 -58 77 -4 4 -6 -28
-5 -72z"/>
<path d="M8054 6825 c-4 -11 -12 -23 -18 -27 -7 -5 -4 -8 7 -8 19 0 32 22 24
42 -3 9 -7 6 -13 -7z"/>
<path d="M8436 6801 c-22 -25 -10 -30 36 -17 35 11 36 12 18 24 -26 16 -34 15
-54 -7z"/>
<path d="M8362 6795 l-23 -12 21 -6 c27 -7 52 2 47 16 -5 16 -19 16 -45 2z"/>
<path d="M10860 6801 c0 -7 -4 -9 -10 -6 -5 3 -10 1 -10 -4 0 -6 5 -11 10 -11
6 0 9 -3 9 -7 -4 -22 2 -53 10 -53 4 0 6 12 3 26 -4 21 -2 25 9 19 11 -7 11
-5 -1 10 -8 10 -13 20 -12 22 2 3 1 7 -2 11 -3 3 -6 0 -6 -7z"/>
<path d="M8480 6760 l-25 -20 23 0 c12 0 25 7 29 15 9 24 0 25 -27 5z"/>
<path d="M7877 6763 c-4 -3 -7 -11 -7 -17 0 -6 5 -5 12 2 6 6 9 14 7 17 -3 3
-9 2 -12 -2z"/>
<path d="M8215 6690 c4 -6 -5 -10 -19 -10 -14 0 -26 -4 -26 -10 0 -16 67 -12
73 4 3 8 -1 17 -9 20 -22 8 -26 7 -19 -4z"/>
<path d="M8307 6674 c5 -14 3 -16 -11 -11 -22 9 -17 -12 7 -27 12 -8 20 -7 29
2 9 9 10 17 2 29 -15 24 -36 29 -27 7z"/>
<path d="M8420 6679 c-8 -5 -10 -9 -5 -9 6 0 3 -5 -5 -10 -13 -9 -13 -11 0
-19 16 -11 40 4 40 25 0 18 -13 24 -30 13z"/>
<path d="M10946 6663 c-6 -14 -5 -15 5 -6 7 7 10 15 7 18 -3 3 -9 -2 -12 -12z"/>
<path d="M10536 6641 c-4 -5 0 -12 6 -14 10 -4 10 -7 1 -14 -7 -5 -9 -14 -4
-22 7 -10 9 -9 14 3 4 9 14 16 22 16 9 0 13 5 10 10 -4 6 -11 8 -16 5 -5 -3
-6 1 -3 9 7 17 -21 23 -30 7z"/>
<path d="M7936 6603 c-6 -14 -5 -15 5 -6 7 7 10 15 7 18 -3 3 -9 -2 -12 -12z"/>
<path d="M8060 6605 c-9 -11 -10 -19 -3 -26 6 -6 13 -1 21 16 13 28 2 34 -18
10z"/>
<path d="M10577 6580 c-3 -11 -1 -20 4 -20 5 0 9 2 9 4 0 2 3 11 6 20 3 9 2
16 -4 16 -5 0 -12 -9 -15 -20z"/>
<path d="M11320 6570 c0 -5 5 -10 10 -10 6 0 10 5 10 10 0 6 -4 10 -10 10 -5
0 -10 -4 -10 -10z"/>
<path d="M10424 6542 c-19 -13 -23 -40 -8 -52 11 -10 14 -10 15 1 0 8 2 24 5
37 4 24 4 25 -12 14z"/>
<path d="M8509 6523 c-13 -16 -12 -17 4 -4 9 7 17 15 17 17 0 8 -8 3 -21 -13z"/>
<path d="M12016 6500 c12 -5 25 -13 29 -19 8 -14 35 -14 35 -1 0 6 -7 10 -16
10 -8 0 -13 3 -11 8 3 4 -9 8 -26 9 -27 1 -29 0 -11 -7z"/>
<path d="M10740 6480 c0 -5 5 -10 11 -10 5 0 7 5 4 10 -3 6 -8 10 -11 10 -2 0
-4 -4 -4 -10z"/>
<path d="M11828 6411 c-7 -9 -9 -13 -4 -9 4 4 17 -1 27 -11 23 -22 63 -20 67
2 2 9 -2 17 -8 17 -6 0 -8 -6 -5 -12 4 -7 -2 -4 -12 8 -22 25 -49 27 -65 5z"/>
<path d="M10467 6355 c-7 -16 8 -29 23 -20 15 9 12 35 -4 35 -8 0 -16 -7 -19
-15z"/>
<path d="M7790 6253 c0 -9 -30 -13 -113 -12 -62 0 -120 -3 -130 -7 -29 -11
-13 -29 24 -28 19 1 28 0 22 -3 -9 -3 -8 -11 3 -29 22 -32 32 -30 43 9 9 31 9
31 10 5 1 -16 10 -37 21 -48 11 -11 20 -24 20 -29 0 -12 104 -23 108 -11 2 5
13 5 28 -1 34 -12 34 -12 34 16 0 15 -5 24 -12 23 -7 -2 -12 3 -10 10 3 19
-16 14 -21 -5 -2 -10 -3 -5 -1 10 3 20 0 26 -9 21 -9 -5 -9 -4 1 7 6 7 12 21
12 31 0 11 7 18 19 18 11 0 22 4 25 9 3 5 -9 7 -27 6 -17 -1 -35 3 -39 9 -6 8
-8 8 -8 -1z"/>
<path d="M7875 6101 c-3 -5 -1 -12 5 -16 5 -3 10 1 10 9 0 18 -6 21 -15 7z"/>
<path d="M7813 6083 c4 -3 2 -12 -4 -20 -9 -10 -6 -13 17 -13 16 0 54 -2 84
-5 l55 -5 -55 19 c-30 11 -57 18 -61 15 -4 -2 -10 0 -14 6 -3 5 -11 10 -17 10
-6 0 -8 -3 -5 -7z"/>
<path d="M8060 6056 c0 -9 5 -16 10 -16 6 0 10 4 10 9 0 6 -4 13 -10 16 -5 3
-10 -1 -10 -9z"/>
<path d="M7758 6033 c6 -2 18 -2 25 0 6 3 1 5 -13 5 -14 0 -19 -2 -12 -5z"/>
<path d="M7480 5879 c-19 -10 -27 -19 -18 -19 8 0 26 9 39 20 30 24 24 24 -21
-1z"/>
<path d="M8104 5832 c3 -6 2 -13 -4 -17 -14 -8 -13 -25 2 -25 6 0 8 3 5 7 -4
3 -2 12 4 19 7 8 6 14 -2 20 -7 4 -9 3 -5 -4z"/>
<path d="M8579 5676 c-19 -6 -37 -14 -40 -19 -4 -5 -11 -7 -17 -3 -6 3 -13 2
-16 -3 -3 -5 -39 -16 -78 -26 -101 -22 -130 -36 -118 -55 8 -13 17 -12 72 3
35 10 108 27 163 38 153 30 160 32 160 54 0 17 -7 20 -46 20 -25 0 -61 -4 -80
-9z"/>
<path d="M7416 5653 c-3 -8 -10 -11 -16 -8 -16 10 -12 -1 6 -15 12 -11 15 -11
12 0 -2 7 3 15 10 17 6 3 12 0 12 -6 0 -6 8 -11 18 -11 14 0 15 2 2 10 -12 8
-10 10 9 10 33 0 18 13 -19 16 -17 1 -31 -4 -34 -13z"/>
<path d="M10270 5631 c0 -6 4 -13 10 -16 6 -3 7 1 4 9 -7 18 -14 21 -14 7z"/>
<path d="M7355 5620 c-3 -6 1 -7 9 -4 18 7 21 14 7 14 -6 0 -13 -4 -16 -10z"/>
<path d="M7325 5599 c6 -30 15 -37 15 -11 0 11 -4 23 -9 27 -6 3 -8 -4 -6 -16z"/>
<path d="M8093 5612 c-9 -6 -8 -12 6 -24 11 -9 22 -14 24 -11 3 3 3 -6 0 -19
l-6 -23 22 22 c22 23 28 39 11 28 -5 -3 -10 -1 -10 6 0 7 -3 9 -7 6 -3 -4 -11
0 -17 8 -6 8 -16 11 -23 7z"/>
<path d="M10535 5550 c3 -5 8 -10 11 -10 2 0 4 5 4 10 0 6 -5 10 -11 10 -5 0
-7 -4 -4 -10z"/>
<path d="M7396 5495 c-9 -26 -7 -32 5 -12 6 10 9 21 6 23 -2 3 -7 -2 -11 -11z"/>
<path d="M7376 5460 c15 -15 -12 -73 -29 -64 -9 5 -9 4 0 -6 6 -7 9 -18 7 -25
-7 -18 36 -26 59 -10 10 7 25 11 33 8 11 -4 12 1 3 25 -6 16 -19 32 -30 35
-10 3 -19 12 -19 20 0 8 -8 18 -17 22 -14 5 -15 3 -7 -5z"/>
<path d="M8227 5461 c-17 -6 -17 -8 2 -25 11 -10 17 -24 14 -32 -8 -21 7 -17
36 8 14 13 20 16 14 8 -7 -8 -13 -17 -13 -20 0 -9 38 -5 47 5 5 4 2 5 -4 1 -8
-4 -13 -2 -13 7 0 22 -41 61 -50 47 -4 -7 -9 -8 -11 -2 -2 5 -12 6 -22 3z"/>
<path d="M7535 5410 c3 -5 8 -10 11 -10 2 0 4 5 4 10 0 6 -5 10 -11 10 -5 0
-7 -4 -4 -10z"/>
<path d="M7580 5404 c0 -8 5 -12 10 -9 6 4 8 11 5 16 -9 14 -15 11 -15 -7z"/>
<path d="M10301 5374 c0 -11 3 -14 6 -6 3 7 2 16 -1 19 -3 4 -6 -2 -5 -13z"/>
<path d="M10320 5365 c0 -8 2 -15 4 -15 2 0 6 7 10 15 3 8 1 15 -4 15 -6 0
-10 -7 -10 -15z"/>
<path d="M7465 5331 c-3 -5 -1 -12 5 -16 5 -3 10 1 10 9 0 18 -6 21 -15 7z"/>
<path d="M10321 5264 c0 -11 3 -14 6 -6 3 7 2 16 -1 19 -3 4 -6 -2 -5 -13z"/>
<path d="M10320 5141 c0 -6 4 -12 8 -15 5 -3 9 1 9 9 0 8 -4 15 -9 15 -4 0 -8
-4 -8 -9z"/>
<path d="M10323 5045 c0 -8 4 -12 9 -9 4 3 8 9 8 15 0 5 -4 9 -8 9 -5 0 -9 -7
-9 -15z"/>
<path d="M7593 5044 c9 -15 -15 -35 -42 -37 -29 -2 -25 -18 9 -44 53 -43 60
-41 60 15 0 34 -5 54 -17 63 -9 8 -14 9 -10 3z"/>
<path d="M7435 4990 c-4 -6 11 -10 37 -9 33 0 38 2 23 9 -28 12 -53 12 -60 0z"/>
<path d="M11572 4725 c-12 -14 -26 -25 -31 -25 -5 0 -7 -9 -4 -20 7 -26 11
-25 58 15 33 29 37 37 25 45 -21 14 -24 13 -48 -15z"/>
<path d="M7930 4480 c0 -5 5 -10 11 -10 5 0 7 5 4 10 -3 6 -8 10 -11 10 -2 0
-4 -4 -4 -10z"/>
<path d="M7225 4429 c-22 -23 -65 -58 -95 -78 -72 -49 -93 -59 -52 -26 18 15
29 32 25 37 -4 7 0 9 9 5 9 -3 25 4 37 17 20 22 21 23 3 39 -9 9 -32 18 -50
22 -27 4 -41 -2 -93 -42 -71 -56 -91 -88 -81 -129 6 -21 20 -35 52 -51 l45
-22 -40 5 c-29 3 -34 2 -20 -5 19 -8 19 -9 -5 -13 -21 -5 -20 -5 8 -7 18 0 31
-5 27 -10 -3 -6 10 -8 30 -5 19 2 35 1 35 -2 0 -9 -83 -84 -92 -84 -5 0 -8 -5
-8 -10 0 -6 -33 -43 -74 -83 -96 -94 -120 -137 -73 -137 14 1 34 17 57 47 19
25 41 50 48 57 25 20 76 73 122 122 25 27 69 67 98 89 28 21 52 43 52 47 0 4
9 8 20 8 11 0 20 5 20 11 0 5 5 7 10 4 12 -8 65 23 56 32 -3 4 3 12 14 20 12
8 17 20 13 30 -4 9 -2 14 3 11 19 -12 11 58 -11 90 l-23 34 -12 -59 c-17 -86
-18 -86 -15 0 1 42 1 77 1 77 -1 0 -20 -18 -41 -41z m-300 -449 c3 -5 -1 -10
-9 -10 -9 0 -16 5 -16 10 0 6 4 10 9 10 6 0 13 -4 16 -10z"/>
<path d="M7140 4453 c0 -6 8 -17 18 -27 18 -15 20 -15 37 4 18 19 17 20 -3 20
-11 0 -27 3 -36 6 -9 3 -16 2 -16 -3z"/>
<path d="M6736 4388 c-16 -22 -15 -23 10 -32 19 -6 35 -3 60 10 43 24 39 38
-13 42 -34 3 -44 -1 -57 -20z"/>
<path d="M7437 4313 c-11 -10 -8 -43 3 -43 6 0 10 11 10 25 0 26 -2 29 -13 18z"/>
<path d="M6600 4296 c40 -15 158 -31 148 -21 -10 11 -118 35 -153 34 l-30 0
35 -13z"/>
<path d="M6850 4270 c-11 -7 -5 -10 23 -10 20 0 37 5 37 10 0 13 -40 13 -60 0z"/>
<path d="M7468 4263 c-6 -7 -7 -13 -2 -13 5 0 19 -3 30 -6 16 -4 23 0 26 14 5
16 1 19 -19 18 -14 0 -29 -7 -35 -13z"/>
<path d="M6805 4260 c-4 -6 -11 -8 -16 -5 -5 4 -9 -1 -9 -9 0 -9 9 -16 20 -16
13 0 20 7 20 20 0 22 -5 26 -15 10z"/>
<path d="M7315 4252 c-19 -14 -17 -50 4 -61 25 -14 91 -14 91 -1 0 6 -4 10 -9
10 -5 0 -12 14 -16 30 -7 33 -16 37 -35 15 -7 -8 -17 -15 -22 -15 -6 0 -8 7
-4 15 6 17 5 18 -9 7z"/>
<path d="M7214 4193 c-6 -10 -8 -29 -4 -43 5 -22 11 -25 45 -23 45 3 66 18 37
27 -11 4 -23 18 -26 31 -7 29 -36 33 -52 8z"/>
<path d="M7813 4128 c-6 -7 -12 -24 -15 -39 -4 -22 -1 -25 26 -27 16 -2 36 -8
45 -15 12 -9 13 -9 7 1 -5 8 -1 12 11 12 11 0 14 3 7 8 -6 4 -15 22 -19 40 -5
25 -12 32 -30 32 -12 0 -27 -6 -32 -12z"/>
<path d="M7143 4095 c-10 -28 2 -36 25 -17 22 20 22 20 2 25 -13 3 -23 0 -27
-8z"/>
<path d="M7265 4081 c-11 -5 -28 -18 -38 -29 -16 -17 -16 -20 -3 -25 16 -6 75
19 88 38 16 22 -10 31 -47 16z"/>
<path d="M7450 4080 c0 -5 5 -10 11 -10 5 0 7 5 4 10 -3 6 -8 10 -11 10 -2 0
-4 -4 -4 -10z"/>
<path d="M6778 4063 c-21 -5 -23 -19 -6 -29 7 -5 8 -3 3 6 -6 10 -4 12 8 7 9
-3 19 -2 22 3 7 11 -6 17 -27 13z"/>
<path d="M7593 4043 c-3 -7 -9 -10 -15 -7 -5 3 -24 -9 -41 -28 -55 -60 -237
-95 -351 -68 -48 11 -60 5 -44 -20 14 -23 104 -38 121 -21 13 13 54 15 61 3 6
-11 64 -3 72 9 7 13 42 11 81 -3 36 -13 40 -35 5 -30 -11 2 -23 -2 -27 -8 -4
-6 -25 -7 -58 -3 -29 4 -63 6 -77 5 -93 -7 -207 -6 -202 2 3 6 -3 6 -14 2 -24
-11 -33 -11 -64 -2 -15 4 -20 4 -13 -1 8 -5 -17 -9 -62 -10 -41 -1 -82 -6 -92
-12 -20 -12 35 -13 609 -15 267 -1 370 2 379 11 8 8 1 10 -30 8 -23 -2 -39 0
-37 3 2 4 -51 6 -117 5 -67 -1 -116 1 -108 4 10 4 8 9 -10 19 -22 13 -19 13
30 8 48 -6 54 -5 48 9 -3 9 -3 16 1 16 22 -4 42 2 37 11 -3 6 -1 10 5 10 6 0
13 -7 16 -15 8 -21 83 -21 80 0 -4 31 -23 39 -50 22 -29 -20 -48 -3 -21 17 17
12 16 14 -6 34 -12 12 -26 22 -30 22 -4 0 -10 8 -13 18 -7 20 -56 24 -63 5z
m22 -133 c3 -5 -3 -10 -14 -10 -12 0 -21 5 -21 10 0 6 6 10 14 10 8 0 18 -4
21 -10z"/>
<path d="M7760 4040 c0 -5 5 -10 11 -10 5 0 7 5 4 10 -3 6 -8 10 -11 10 -2 0
-4 -4 -4 -10z"/>
<path d="M8105 4010 c3 -5 1 -19 -5 -30 -11 -20 3 -30 15 -10 4 6 11 8 16 5
11 -7 12 16 1 30 -9 13 -35 18 -27 5z"/>
<path d="M8055 3971 c-3 -6 -17 -11 -29 -11 -24 0 -56 -37 -56 -64 0 -11 43
-36 72 -40 3 -1 10 -5 15 -9 4 -5 4 -8 -2 -7 -21 5 -26 -1 -13 -13 34 -34 60
-40 157 -33 157 12 180 15 202 27 13 6 19 7 15 1 -7 -12 20 -10 31 3 4 4 1 5
-7 0 -12 -6 -13 -5 -2 6 10 11 16 11 32 1 27 -17 33 -15 21 5 -7 13 -5 23 6
35 15 17 14 18 -6 18 -14 0 -20 4 -15 12 4 6 3 8 -4 4 -6 -3 -21 -2 -34 2 -12
5 -34 6 -48 2 -39 -11 -52 -2 -35 23 25 36 16 40 -45 20 -19 -6 -26 -3 -22 8
3 14 -8 11 -24 -6 -22 -21 -34 -19 -35 8 0 12 -3 16 -6 9 -2 -6 -9 -10 -14 -7
-5 4 -6 0 -4 -8 3 -7 -4 -22 -15 -32 -21 -19 -21 -19 -14 9 6 27 5 29 -17 22
-38 -12 -158 -22 -153 -14 3 4 16 8 29 8 23 0 42 16 32 26 -3 3 -8 1 -12 -5z"/>
<path d="M7435 3890 c-3 -5 -1 -10 4 -10 6 0 11 5 11 10 0 6 -2 10 -4 10 -3 0
-8 -4 -11 -10z"/>
<path d="M8945 3880 c3 -5 8 -10 11 -10 2 0 4 5 4 10 0 6 -5 10 -11 10 -5 0
-7 -4 -4 -10z"/>
<path d="M9200 3874 c0 -8 5 -12 10 -9 6 4 8 11 5 16 -9 14 -15 11 -15 -7z"/>
<path d="M7980 3849 c11 -7 6 -8 -19 -4 -21 5 -31 3 -27 -3 8 -13 66 -21 66
-10 0 5 6 6 13 2 8 -5 8 -2 -2 9 -7 9 -21 17 -30 17 -14 0 -14 -2 -1 -11z"/>
<path d="M8708 3824 c-3 -3 -48 -5 -99 -5 -63 0 -89 -3 -79 -9 25 -16 153 -12
176 5 10 8 16 15 13 15 -3 0 -8 -2 -11 -6z"/>
<path d="M7506 3295 c4 -8 11 -15 16 -15 6 0 5 6 -2 15 -7 8 -14 15 -16 15 -2
0 -1 -7 2 -15z"/>
<path d="M8705 3301 c-9 -15 8 -35 24 -30 8 3 7 10 -2 23 -10 14 -16 16 -22 7z"/>
<path d="M6901 3264 c-28 -35 -13 -54 43 -53 36 0 38 2 19 11 -14 7 -21 19
-20 36 3 35 -17 38 -42 6z"/>
<path d="M7226 3268 c-18 -25 -13 -34 27 -43 17 -5 27 -3 27 4 0 6 -6 11 -14
11 -9 0 -12 8 -8 25 5 31 -12 33 -32 3z"/>
<path d="M7167 3273 c-13 -12 -7 -33 8 -33 8 0 15 9 15 20 0 20 -11 26 -23 13z"/>
<path d="M8862 3252 c-23 -26 -23 -27 -3 -36 31 -14 53 0 49 31 -4 36 -18 37
-46 5z"/>
<path d="M9233 3267 c-31 -14 -36 -44 -10 -62 19 -13 147 -23 147 -11 0 1 -5
17 -11 34 l-11 31 -24 -26 c-29 -31 -57 -25 -49 10 8 29 -10 39 -42 24z"/>
<path d="M6707 3264 c-9 -10 2 -24 19 -24 8 0 14 7 14 15 0 15 -21 21 -33 9z"/>
<path d="M9065 3259 c-9 -14 -2 -20 24 -22 24 -2 28 -15 6 -23 -21 -8 -19 -37
3 -57 13 -12 35 -17 73 -16 l54 1 -39 12 c-25 8 -35 15 -28 20 7 4 12 18 12
30 0 26 -24 51 -38 42 -6 -3 -15 1 -22 9 -15 18 -36 20 -45 4z"/>
<path d="M8808 3243 c7 -3 16 -2 19 1 4 3 -2 6 -13 5 -11 0 -14 -3 -6 -6z"/>
<path d="M11730 3235 c0 -13 -4 -14 -20 -5 -18 10 -20 8 -20 -19 0 -34 12 -45
40 -36 25 8 42 38 34 59 -8 20 -34 21 -34 1z"/>
<path d="M9646 3211 c-28 -29 -28 -51 -1 -51 19 0 55 48 48 66 -8 20 -16 18
-47 -15z"/>
<path d="M7041 3196 c-8 -9 -11 -19 -7 -23 9 -9 29 13 24 27 -2 8 -8 7 -17 -4z"/>
<path d="M9405 3190 c-4 -6 -10 -8 -14 -5 -5 2 -20 -7 -35 -22 -20 -20 -24
-29 -15 -39 13 -16 55 -19 64 -4 3 6 18 10 33 11 27 0 27 0 4 10 -17 6 -22 14
-17 28 6 21 -10 38 -20 21z"/>
<path d="M9553 3172 c-28 -33 -29 -42 -3 -42 23 0 44 34 33 54 -6 12 -13 9
-30 -12z"/>
<path d="M8870 1751 c0 -24 -3 -28 -23 -24 -29 6 -57 -20 -57 -51 0 -32 20
-46 63 -44 l37 1 0 74 c0 42 -4 73 -10 73 -5 0 -10 -13 -10 -29z m-5 -71 c0
-28 -4 -36 -22 -38 -24 -4 -38 25 -28 59 5 14 14 19 28 17 18 -2 22 -10 22
-38z"/>
<path d="M8970 1770 c0 -5 5 -10 10 -10 6 0 10 5 10 10 0 6 -4 10 -10 10 -5 0
-10 -4 -10 -10z"/>
<path d="M9150 1770 c0 -5 5 -10 10 -10 6 0 10 5 10 10 0 6 -4 10 -10 10 -5 0
-10 -4 -10 -10z"/>
<path d="M9750 1705 c0 -43 4 -75 10 -75 6 0 10 32 10 75 0 43 -4 75 -10 75
-6 0 -10 -32 -10 -75z"/>
<path d="M9800 1770 c0 -5 5 -10 10 -10 6 0 10 5 10 10 0 6 -4 10 -10 10 -5 0
-10 -4 -10 -10z"/>
<path d="M9940 1705 c0 -43 4 -75 10 -75 6 0 10 10 10 23 l1 22 18 -22 c11
-13 25 -23 32 -23 7 0 3 11 -11 25 l-23 25 23 25 c14 14 18 25 11 25 -7 0 -21
-10 -32 -22 l-18 -23 -1 48 c0 26 -4 47 -10 47 -6 0 -10 -32 -10 -75z"/>
<path d="M8460 1700 c0 -40 4 -70 10 -70 6 0 10 15 10 34 0 30 4 35 28 39 l27
4 -27 2 c-23 1 -28 6 -28 25 0 19 6 26 28 29 22 3 20 4 -10 6 l-38 1 0 -70z"/>
<path d="M10530 1720 c0 -27 5 -50 10 -50 6 0 10 23 10 50 0 28 -4 50 -10 50
-5 0 -10 -22 -10 -50z"/>
<path d="M9390 1745 c0 -10 -10 -15 -29 -15 -62 0 -83 -30 -36 -52 14 -6 25
-18 25 -26 0 -10 -8 -13 -25 -10 -14 3 -25 1 -25 -3 0 -5 9 -9 19 -9 53 0 69
32 26 52 -33 15 -27 33 13 35 29 1 31 -1 34 -40 3 -37 6 -42 28 -44 14 -1 18
0 8 3 -13 4 -18 16 -18 44 0 28 5 40 18 43 16 4 16 5 0 6 -10 0 -18 8 -18 16
0 8 -4 15 -10 15 -5 0 -10 -7 -10 -15z"/>
<path d="M8566 1714 c-31 -30 -9 -84 34 -84 40 0 66 60 38 88 -17 17 -54 15
-72 -4z m59 -34 c0 -28 -4 -36 -22 -38 -14 -2 -23 3 -28 17 -10 34 4 63 28 59
18 -2 22 -10 22 -38z"/>
<path d="M8686 1714 c-31 -30 -9 -84 34 -84 40 0 66 60 38 88 -17 17 -54 15
-72 -4z m59 -34 c0 -28 -4 -36 -22 -38 -24 -4 -38 25 -28 59 5 14 14 19 28 17
18 -2 22 -10 22 -38z"/>
<path d="M8970 1680 c0 -27 5 -50 10 -50 6 0 10 23 10 50 0 28 -4 50 -10 50
-5 0 -10 -22 -10 -50z"/>
<path d="M9023 1723 c-21 -8 -15 -33 12 -45 14 -6 25 -18 25 -26 0 -10 -8 -13
-25 -10 -14 3 -25 1 -25 -3 0 -5 9 -9 19 -9 53 0 69 32 26 52 -30 13 -27 33 4
32 11 0 21 3 21 8 0 9 -37 10 -57 1z"/>
<path d="M9150 1665 c0 -59 -2 -67 -22 -75 -22 -8 -22 -9 -2 -9 11 -1 25 4 32
11 15 15 16 138 2 138 -6 0 -10 -28 -10 -65z"/>
<path d="M9190 1691 c0 -46 14 -60 58 -59 32 1 32 2 32 50 0 59 -18 64 -22 6
-2 -35 -7 -43 -23 -43 -16 0 -21 8 -23 43 -4 53 -22 56 -22 3z"/>
<path d="M9516 1722 c-3 -5 4 -8 16 -8 33 1 31 -18 -3 -31 -45 -17 -36 -47 14
-50 l38 -1 -3 46 c-3 42 -6 47 -30 50 -14 2 -29 -1 -32 -6z m44 -57 c0 -16
-27 -32 -37 -22 -3 4 -3 13 0 22 8 20 37 20 37 0z"/>
<path d="M9666 1714 c-19 -18 -21 -55 -4 -72 14 -14 58 -16 58 -3 0 5 -9 7
-19 4 -13 -3 -21 2 -26 16 -10 33 4 64 26 58 10 -3 19 -1 19 4 0 15 -37 10
-54 -7z"/>
<path d="M9800 1680 c0 -27 5 -50 10 -50 6 0 10 23 10 50 0 28 -4 50 -10 50
-5 0 -10 -22 -10 -50z"/>
<path d="M9856 1714 c-19 -18 -21 -55 -4 -72 14 -14 58 -16 58 -3 0 5 -9 7
-19 4 -13 -3 -21 2 -26 16 -10 33 4 64 26 58 10 -3 19 -1 19 4 0 15 -37 10
-54 -7z"/>
<path d="M10096 1722 c-3 -5 4 -8 16 -8 33 1 31 -18 -3 -31 -45 -17 -36 -47
14 -50 l38 -1 -3 46 c-3 42 -6 47 -30 50 -14 2 -29 -1 -32 -6z m44 -57 c0 -16
-27 -32 -37 -22 -3 4 -3 13 0 22 8 20 37 20 37 0z"/>
<path d="M10170 1727 c0 -16 34 -97 40 -97 5 0 11 14 15 30 4 17 10 30 15 30
5 0 11 -13 15 -30 9 -42 21 -37 39 17 19 55 19 53 6 53 -5 0 -12 -16 -16 -35
-7 -40 -19 -38 -27 5 -8 38 -24 39 -32 0 -9 -43 -22 -45 -29 -5 -4 19 -11 35
-16 35 -6 0 -10 -1 -10 -3z"/>
<path d="M10336 1722 c-3 -5 4 -8 16 -8 33 1 31 -18 -3 -31 -45 -17 -36 -47
14 -50 l38 -1 -3 46 c-3 42 -6 47 -30 50 -14 2 -29 -1 -32 -6z m44 -57 c0 -16
-27 -32 -37 -22 -3 4 -3 13 0 22 8 20 37 20 37 0z"/>
<path d="M10426 1693 c28 -64 28 -79 2 -98 -21 -15 -21 -16 -3 -13 25 4 99
148 75 148 -5 0 -14 -16 -20 -35 -6 -19 -15 -35 -19 -35 -4 0 -13 16 -20 35
-7 19 -17 35 -22 35 -5 0 -2 -17 7 -37z"/>
<path d="M10530 1640 c0 -5 5 -10 10 -10 6 0 10 5 10 10 0 6 -4 10 -10 10 -5
0 -10 -4 -10 -10z"/>
<path d="M4320 1045 c0 -80 17 -104 22 -32 2 29 8 42 18 42 10 0 16 -13 18
-42 2 -24 8 -43 13 -43 6 0 9 21 7 48 -3 44 -5 47 -30 47 -24 -1 -28 3 -28 27
0 15 -4 28 -10 28 -6 0 -10 -32 -10 -75z"/>
<path d="M4480 1046 l0 -74 37 1 c31 2 39 7 47 30 13 36 -3 62 -38 62 -22 -1
-26 4 -26 27 0 15 -4 28 -10 28 -6 0 -10 -31 -10 -74z m68 -16 c3 -33 -12 -55
-32 -47 -16 6 -23 57 -9 71 14 14 38 0 41 -24z"/>
<path d="M4870 1110 c0 -5 5 -10 10 -10 6 0 10 5 10 10 0 6 -4 10 -10 10 -5 0
-10 -4 -10 -10z"/>
<path d="M3852 1098 c-20 -20 -13 -38 23 -60 45 -26 44 -54 -3 -52 -17 1 -29
-2 -26 -7 9 -14 60 -10 74 6 17 20 6 42 -30 63 -37 21 -35 47 3 47 15 -1 27 3
27 7 0 13 -55 9 -68 -4z"/>
<path d="M4760 1090 c-11 -11 -20 -33 -20 -50 0 -17 9 -39 20 -50 20 -20 80
-28 80 -11 0 4 -11 6 -23 4 -31 -6 -57 20 -57 56 0 34 32 65 60 58 11 -3 20
-1 20 4 0 17 -60 9 -80 -11z"/>
<path d="M5378 1103 c20 -4 22 -10 22 -69 0 -36 4 -64 10 -64 6 0 10 28 10 64
0 59 2 65 23 69 12 2 -3 4 -33 4 -30 0 -45 -2 -32 -4z"/>
<path d="M14410 1060 c0 -27 5 -50 10 -50 6 0 10 9 10 20 0 11 4 20 10 20 5 0
14 -9 20 -20 6 -11 15 -20 21 -20 6 0 3 10 -5 22 -11 16 -13 25 -5 35 18 21 2
43 -31 43 -29 0 -30 -1 -30 -50z m48 23 c-5 -25 -28 -28 -28 -4 0 12 6 21 16
21 9 0 14 -7 12 -17z"/>
<path d="M4920 1085 c0 -8 -6 -15 -12 -15 -10 0 -10 -2 -1 -8 6 -4 13 -25 15
-47 3 -35 6 -40 28 -42 14 -1 18 0 8 3 -13 4 -18 16 -18 45 0 55 29 54 53 -4
22 -55 22 -63 -5 -82 -21 -15 -21 -16 -3 -13 25 4 99 148 75 148 -5 0 -14 -16
-20 -35 -6 -19 -15 -35 -19 -35 -4 0 -13 16 -20 35 -9 27 -18 35 -37 35 -15 0
-24 6 -24 15 0 8 -4 15 -10 15 -5 0 -10 -7 -10 -15z"/>
<path d="M14698 1088 c-9 -28 7 -73 27 -75 11 -2 14 0 8 3 -16 7 -17 54 -2 54
6 0 4 7 -5 15 -18 18 -23 19 -28 3z"/>
<path d="M14504 1056 c-8 -32 2 -46 29 -45 17 1 18 2 5 6 -25 6 -22 23 3 23
28 0 21 34 -8 38 -17 3 -24 -3 -29 -22z m36 4 c0 -5 -4 -10 -10 -10 -5 0 -10
5 -10 10 0 6 5 10 10 10 6 0 10 -4 10 -10z"/>
<path d="M14574 1068 c-4 -6 0 -16 9 -23 22 -16 21 -22 0 -28 -14 -4 -13 -5 4
-6 29 -1 40 19 20 34 -22 16 -21 22 1 28 13 4 12 5 -5 6 -12 0 -25 -4 -29 -11z"/>
<path d="M14634 1056 c-8 -32 2 -46 29 -45 17 1 18 2 5 6 -25 6 -22 23 3 23
28 0 21 34 -8 38 -17 3 -24 -3 -29 -22z m36 4 c0 -5 -4 -10 -10 -10 -5 0 -10
5 -10 10 0 6 5 10 10 10 6 0 10 -4 10 -10z"/>
<path d="M3966 1054 c-19 -18 -21 -55 -4 -72 14 -14 54 -16 62 -3 4 5 -3 7
-15 4 -12 -4 -25 0 -30 8 -15 24 -10 29 26 29 36 0 46 15 23 38 -17 17 -44 15
-62 -4z m52 -11 c2 -8 -6 -13 -22 -13 -25 0 -33 10 -19 24 10 10 36 3 41 -11z"/>
<path d="M4066 1062 c-3 -5 4 -8 16 -8 33 1 31 -18 -3 -31 -45 -17 -36 -47 14
-50 l38 -1 -3 46 c-3 42 -6 47 -30 50 -14 2 -29 -1 -32 -6z m44 -57 c0 -16
-27 -32 -37 -22 -3 4 -3 13 0 22 8 20 37 20 37 0z"/>
<path d="M4160 1019 c0 -27 5 -49 10 -49 6 0 10 18 10 40 0 26 6 42 17 48 13
8 11 10 -10 10 -26 0 -27 -3 -27 -49z"/>
<path d="M4236 1054 c-19 -18 -21 -55 -4 -72 14 -14 58 -16 58 -3 0 5 -9 7
-19 4 -13 -3 -21 2 -26 16 -10 33 4 64 26 58 10 -3 19 -1 19 4 0 15 -37 10
-54 -7z"/>
<path d="M4596 1033 c28 -64 28 -79 2 -98 -21 -15 -21 -16 -3 -13 25 4 99 148
75 148 -5 0 -14 -16 -20 -35 -6 -19 -15 -35 -19 -35 -4 0 -13 16 -20 35 -7 19
-17 35 -22 35 -5 0 -2 -17 7 -37z"/>
<path d="M4870 1020 c0 -27 5 -50 10 -50 6 0 10 23 10 50 0 28 -4 50 -10 50
-5 0 -10 -22 -10 -50z"/>
<path d="M5146 1054 c-31 -30 -9 -84 34 -84 40 0 66 60 38 88 -17 17 -54 15
-72 -4z m59 -34 c0 -28 -4 -36 -22 -38 -14 -2 -23 3 -28 17 -10 34 4 63 28 59
18 -2 22 -10 22 -38z"/>
<path d="M5260 1019 c0 -27 5 -49 10 -49 6 0 10 18 10 40 0 26 6 42 17 48 13
8 11 10 -10 10 -26 0 -27 -3 -27 -49z"/>
<path d="M5466 1054 c-31 -30 -9 -84 34 -84 40 0 66 60 38 88 -17 17 -54 15
-72 -4z m59 -34 c0 -28 -4 -36 -22 -38 -14 -2 -23 3 -28 17 -10 34 4 63 28 59
18 -2 22 -10 22 -38z"/>
<path d="M5560 1067 c0 -16 34 -97 40 -97 5 0 11 14 15 30 4 17 10 30 15 30 5
0 11 -13 15 -30 9 -42 21 -37 39 17 19 55 19 53 6 53 -5 0 -12 -16 -16 -35 -7
-40 -19 -38 -27 5 -8 38 -24 39 -32 0 -9 -43 -22 -45 -29 -5 -4 19 -11 35 -16
35 -6 0 -10 -1 -10 -3z"/>
<path d="M5720 1019 c0 -60 18 -65 22 -6 2 29 8 42 18 42 10 0 16 -13 18 -42
2 -24 8 -43 13 -43 6 0 9 21 7 48 -3 47 -3 47 -40 49 l-38 1 0 -49z"/>
</g>
</svg>
