<?xml version="1.0" standalone="no"?>
<!DOCTYPE svg PUBLIC "-//W3C//DTD SVG 20010904//EN"
 "http://www.w3.org/TR/2001/REC-SVG-20010904/DTD/svg10.dtd">
<svg version="1.0" xmlns="http://www.w3.org/2000/svg"
 width="1900.000000pt" height="939.000000pt" viewBox="0 0 1900.000000 939.000000"
 preserveAspectRatio="xMidYMid meet">

<g transform="translate(0.000000,939.000000) scale(0.100000,-0.100000)"
fill="#000000" stroke="none">
<path d="M0 4695 l0 -4695 9500 0 9500 0 0 4695 0 4695 -9500 0 -9500 0 0
-4695z m421 4595 c41 -11 94 -60 66 -60 -9 0 -17 4 -17 10 0 17 -58 40 -100
40 -33 0 -48 -6 -71 -30 -22 -22 -30 -25 -27 -12 3 16 79 62 103 62 5 0 26 -5
46 -10z m459 -80 c0 -37 1 -39 19 -28 31 19 51 -5 51 -63 0 -42 -3 -49 -20
-49 -17 0 -20 7 -20 46 0 59 -24 55 -28 -4 -3 -34 -7 -42 -23 -42 -17 0 -19 8
-19 90 0 83 1 90 20 90 17 0 20 -7 20 -40z m580 -49 l0 -89 -50 0 c-58 0 -80
16 -80 57 0 36 32 65 65 59 23 -5 25 -2 25 28 0 27 4 34 20 34 18 0 20 -7 20
-89z m-640 64 c0 -9 -9 -15 -25 -15 -24 0 -25 -2 -25 -70 0 -63 -2 -70 -20
-70 -18 0 -20 7 -20 70 0 68 -1 70 -25 70 -16 0 -25 6 -25 15 0 12 14 15 70
15 56 0 70 -3 70 -15z m17037 -92 c-2 -16 -4 -3 -4 27 0 30 2 43 4 28 2 -16 2
-40 0 -55z m-739 47 c4 -12 2 -13 -9 -2 -21 19 -29 14 -29 -18 0 -32 9 -37 28
-18 9 9 12 8 12 -6 0 -13 -7 -17 -27 -14 -29 3 -41 32 -29 64 7 19 48 14 54
-6z m300 -7 c3 -17 -3 -24 -22 -29 -14 -3 -27 -13 -29 -22 -3 -10 -5 5 -6 31
-1 47 0 48 27 45 19 -2 28 -9 30 -25z m951 -1 c-14 -5 -11 -50 4 -55 7 -4 6
-6 -4 -6 -12 -1 -18 9 -21 33 -5 46 0 59 17 43 7 -7 9 -13 4 -15z m-17309 3
c0 -7 -9 -15 -20 -18 -16 -4 -20 -14 -20 -46 0 -34 -3 -41 -20 -41 -18 0 -20
7 -20 59 l0 60 40 -1 c25 0 40 -5 40 -13z m114 -1 c9 -8 16 -24 16 -35 0 -16
-7 -19 -41 -19 -26 0 -38 -4 -33 -11 3 -6 20 -9 36 -7 22 4 28 1 26 -11 -2
-10 -16 -17 -37 -19 -62 -6 -94 55 -51 98 24 24 63 26 84 4z m124 4 c7 -7 12
-34 12 -60 0 -41 -3 -48 -20 -48 -11 0 -20 5 -20 10 0 6 -8 5 -19 -2 -15 -9
-23 -9 -36 2 -25 21 -14 52 25 67 l35 13 -32 -3 c-31 -3 -43 9 -26 26 11 12
68 8 81 -5z m272 -7 c0 -14 -6 -17 -25 -13 -32 6 -32 -6 0 -18 34 -13 43 -39
19 -57 -25 -18 -78 -13 -82 8 -2 12 4 15 28 11 36 -5 39 5 5 18 -54 20 -38 70
21 70 26 0 34 -4 34 -19z m15918 -14 c2 -12 -3 -17 -17 -17 -23 0 -29 -16 -8
-23 7 -2 6 -3 -3 -3 -16 1 -25 29 -16 52 8 20 40 14 44 -9z m49 10 c-9 -7 -18
-23 -20 -37 -3 -19 -5 -17 -6 10 -1 30 3 36 20 37 19 2 19 0 6 -10z m51 6
c-22 -6 -23 -12 -1 -28 19 -14 9 -36 -15 -34 -15 1 -15 2 1 6 21 6 22 12 0 28
-19 14 -9 36 15 34 15 -1 15 -2 0 -6z m87 -28 c0 -25 -4 -30 -25 -30 -16 0
-26 6 -28 18 -6 30 6 49 30 45 18 -2 23 -9 23 -33z m81 0 c1 -30 1 -30 -3 -2
-6 38 -36 32 -44 -8 -7 -30 -7 -30 -8 6 -1 33 1 36 27 35 23 -1 27 -5 28 -31z
m62 -3 c3 -30 1 -33 -19 -30 -30 4 -37 28 -10 35 26 7 27 20 4 27 -14 4 -14 4
2 3 15 -2 21 -11 23 -35z m140 0 c3 -30 1 -33 -19 -30 -30 4 -37 28 -10 35 26
7 27 20 4 27 -14 4 -14 4 2 3 15 -2 21 -11 23 -35z m65 28 c-13 -5 -23 -16
-23 -25 0 -9 10 -20 23 -25 22 -10 22 -10 -3 -7 -43 4 -34 68 9 66 11 0 9 -3
-6 -9z m60 0 c-13 -5 -23 -16 -23 -25 0 -9 10 -20 23 -25 22 -10 22 -10 -3 -7
-43 4 -34 68 9 66 11 0 9 -3 -6 -9z m82 -25 c0 -25 -4 -30 -25 -30 -16 0 -26
6 -28 18 -6 30 6 49 30 45 18 -2 23 -9 23 -33z m50 -25 c8 0 15 14 18 33 4 31
4 31 5 -6 2 -34 0 -38 -20 -35 -18 2 -24 10 -25 36 -3 32 -3 32 3 2 3 -16 11
-30 19 -30z m111 25 c1 -30 1 -30 -3 -2 -6 38 -36 32 -44 -8 -7 -30 -7 -30 -8
6 -1 33 1 36 27 35 23 -1 27 -5 28 -31z m246 21 l22 19 -15 -24 c-22 -35 -34
-36 -54 -4 l-18 28 21 -19 c22 -19 22 -19 44 0z m-14155 -882 c-3 -3 -12 -4
-19 -1 -8 3 -5 6 6 6 11 1 17 -2 13 -5z m11663 -98 l0 -74 -36 1 c-46 2 -62
24 -48 64 7 22 16 28 37 28 23 -1 27 3 27 27 0 15 5 28 10 28 6 0 10 -31 10
-74z m950 59 c0 -8 -7 -15 -15 -15 -8 0 -15 7 -15 15 0 8 7 15 15 15 8 0 15
-7 15 -15z m120 0 c0 -8 -7 -15 -15 -15 -8 0 -15 7 -15 15 0 8 7 15 15 15 8 0
15 -7 15 -15z m-1930 -8 c0 -7 -11 -13 -27 -12 -37 0 -39 -20 -4 -35 57 -23
48 -84 -12 -78 -41 4 -45 23 -5 23 41 0 45 16 8 37 -36 21 -47 43 -30 63 15
19 70 20 70 2z m1050 -1 c0 -8 -8 -12 -23 -9 -29 6 -57 -20 -57 -51 0 -31 24
-50 55 -43 16 3 24 0 22 -7 -2 -6 -15 -12 -30 -14 -57 -7 -90 75 -47 118 23
23 80 28 80 6z m-430 -10 c0 -8 6 -17 13 -20 10 -5 10 -7 0 -12 -7 -3 -13 -18
-13 -34 0 -16 6 -30 13 -33 6 -2 9 -8 5 -12 -16 -17 -38 5 -38 39 0 19 -6 37
-12 40 -10 5 -10 7 0 12 6 3 12 12 12 20 0 8 5 14 10 14 6 0 10 -6 10 -14z
m1250 0 c0 -8 6 -17 13 -20 10 -5 10 -7 0 -12 -7 -3 -13 -18 -13 -34 0 -16 6
-30 13 -33 6 -2 9 -8 5 -12 -16 -17 -38 5 -38 39 0 19 -6 37 -12 40 -10 5 -10
7 0 12 6 3 12 12 12 20 0 8 5 14 10 14 6 0 10 -6 10 -14z m-1818 -53 c2 -30 7
-38 23 -38 16 0 21 8 23 38 5 54 22 45 22 -11 0 -48 0 -49 -32 -50 -44 -1 -58
13 -58 59 0 50 18 51 22 2z m188 -20 c0 -70 -12 -93 -50 -93 -18 0 -30 5 -30
13 0 7 11 13 27 12 18 0 29 6 31 17 2 12 -2 15 -17 11 -41 -11 -64 34 -41 77
7 14 20 19 45 18 l35 -1 0 -54z m120 0 c0 -70 -12 -93 -50 -93 -18 0 -30 5
-30 13 0 7 11 13 27 12 18 0 29 6 31 17 2 12 -2 15 -17 11 -41 -11 -64 34 -41
77 7 14 20 19 45 18 l35 -1 0 -54z m108 45 c7 -7 12 -20 12 -30 0 -14 -8 -18
-36 -18 -23 0 -33 -4 -28 -11 3 -6 17 -9 31 -6 15 3 22 0 20 -7 -5 -16 -46
-20 -63 -6 -7 7 -14 23 -14 36 0 43 50 70 78 42z m92 -2 c0 -9 -7 -12 -20 -9
-11 3 -20 1 -20 -5 0 -5 9 -12 20 -15 26 -7 37 -36 19 -48 -22 -13 -59 -11
-59 5 0 9 8 12 25 8 30 -5 34 13 5 21 -26 7 -37 36 -19 48 21 13 49 11 49 -5z
m178 2 c7 -7 12 -20 12 -30 0 -14 -8 -18 -36 -18 -23 0 -33 -4 -28 -11 3 -6
17 -9 31 -6 15 3 22 0 20 -7 -5 -16 -46 -20 -63 -6 -7 7 -14 23 -14 36 0 43
50 70 78 42z m420 0 c28 -28 2 -88 -38 -88 -24 0 -50 26 -50 50 0 40 60 66 88
38z m107 1 c3 -5 15 -3 25 4 31 19 54 -2 58 -52 2 -22 -1 -41 -7 -41 -5 0 -11
17 -13 38 -2 29 -7 37 -23 37 -16 0 -21 -8 -23 -37 -2 -21 -7 -38 -12 -38 -5
0 -10 17 -12 38 -2 29 -7 37 -23 37 -16 0 -21 -8 -23 -37 -5 -55 -22 -47 -22
10 l0 48 35 1 c19 1 37 -3 40 -8z m180 0 c3 -5 15 -3 25 4 31 19 54 -2 58 -52
2 -22 -1 -41 -7 -41 -5 0 -11 17 -13 38 -2 29 -7 37 -23 37 -16 0 -21 -8 -23
-37 -2 -21 -7 -38 -12 -38 -5 0 -10 17 -12 38 -2 29 -7 37 -23 37 -16 0 -21
-8 -23 -37 -5 -55 -22 -47 -22 10 l0 48 35 1 c19 1 37 -3 40 -8z m127 -26 c2
-30 7 -38 23 -38 16 0 21 8 23 38 5 54 22 45 22 -11 0 -48 0 -49 -32 -50 -44
-1 -58 13 -58 59 0 50 18 51 22 2z m176 24 c14 -11 17 -87 3 -87 -6 0 -11 17
-13 38 -2 29 -7 37 -23 37 -16 0 -21 -8 -23 -37 -5 -55 -22 -46 -22 10 0 48 0
49 33 49 17 0 38 -4 45 -10z m62 -37 c0 -27 -4 -50 -10 -50 -5 0 -10 23 -10
50 0 28 5 50 10 50 6 0 10 -22 10 -50z m120 0 c0 -27 -4 -50 -10 -50 -5 0 -10
23 -10 50 0 28 5 50 10 50 6 0 10 -22 10 -50z m108 38 c7 -7 12 -20 12 -30 0
-14 -8 -18 -36 -18 -23 0 -33 -4 -28 -11 3 -6 17 -9 31 -6 15 3 22 0 20 -7 -5
-16 -46 -20 -63 -6 -7 7 -14 23 -14 36 0 43 50 70 78 42z m92 -2 c0 -9 -7 -12
-20 -9 -11 3 -20 1 -20 -5 0 -5 9 -12 20 -15 26 -7 37 -36 19 -48 -22 -13 -59
-11 -59 5 0 9 8 12 25 8 30 -5 34 13 5 21 -26 7 -37 36 -19 48 21 13 49 11 49
-5z m-16768 -59 c40 -31 43 -37 46 -86 2 -36 -2 -61 -13 -77 -14 -22 -22 -24
-95 -24 -70 0 -81 2 -94 22 -18 25 -21 100 -6 128 13 25 79 70 102 70 9 0 36
-15 60 -33z m4518 -87 c0 -83 -1 -90 -20 -90 -19 0 -20 7 -20 90 0 83 1 90 20
90 19 0 20 -7 20 -90z m430 1 l0 -89 -50 0 c-58 0 -80 16 -80 57 0 36 32 65
65 59 23 -5 25 -2 25 28 0 27 4 34 20 34 18 0 20 -7 20 -89z m66 78 c10 -17
-13 -36 -27 -22 -12 12 -4 33 11 33 5 0 12 -5 16 -11z m-566 -17 c0 -15 -6
-18 -28 -14 -34 5 -62 -19 -62 -53 0 -34 28 -58 62 -53 22 4 28 1 26 -11 -2
-11 -16 -17 -40 -19 -67 -6 -106 57 -77 122 14 29 43 44 87 45 25 1 32 -3 32
-17z m-4175 -52 c29 0 34 4 38 28 2 15 4 0 4 -33 0 -33 -2 -48 -4 -32 -4 23
-9 27 -38 27 -29 0 -34 -4 -38 -27 -2 -16 -4 -1 -4 32 0 33 2 48 4 33 4 -24 9
-28 38 -28z m123 8 c17 -17 15 -43 -4 -59 -31 -26 -70 25 -44 56 15 18 32 19
48 3z m138 -31 l1 -37 -4 36 c-6 47 -35 44 -44 -6 l-6 -35 -2 38 c-1 31 -4 38
-18 35 -12 -2 -20 -16 -24 -38 l-6 -35 -2 41 -1 41 53 -1 52 -1 1 -38z m92 20
c3 -13 -3 -17 -23 -17 -17 0 -25 -5 -22 -12 2 -7 14 -13 26 -12 15 0 19 -2 11
-10 -7 -7 -16 -7 -28 0 -22 14 -27 41 -11 60 16 19 43 14 47 -9z m4010 11 c7
-7 12 -34 12 -60 0 -41 -3 -48 -20 -48 -11 0 -20 5 -20 10 0 6 -8 5 -19 -2
-15 -9 -23 -9 -36 2 -25 21 -14 52 25 67 l35 13 -32 -3 c-31 -3 -43 9 -26 26
11 12 68 8 81 -5z m74 -30 c2 -30 8 -43 18 -43 10 0 16 13 18 43 3 34 7 42 23
42 17 0 19 -7 19 -60 0 -53 -2 -60 -20 -60 -11 0 -20 5 -20 10 0 6 -8 5 -20
-2 -34 -21 -55 1 -58 61 -3 45 -1 51 17 51 16 0 20 -8 23 -42z m308 -18 c0
-53 -2 -60 -20 -60 -18 0 -20 7 -20 60 0 53 2 60 20 60 18 0 20 -7 20 -60z
m62 18 c2 -30 8 -43 18 -43 10 0 16 13 18 43 3 34 7 42 23 42 17 0 19 -7 19
-60 0 -53 -2 -60 -20 -60 -11 0 -20 5 -20 10 0 6 -8 5 -20 -2 -34 -21 -55 1
-58 61 -3 45 -1 51 17 51 16 0 20 -8 23 -42z m-1138 -13 c3 -8 1 -15 -4 -15
-6 0 -10 7 -10 15 0 8 2 15 4 15 2 0 6 -7 10 -15z m-284 -21 c0 -2 -9 0 -20 6
-11 6 -20 13 -20 16 0 2 9 0 20 -6 11 -6 20 -13 20 -16z m8138 -19 c-3 -3 -9
2 -12 12 -6 14 -5 15 5 6 7 -7 10 -15 7 -18z m-24 -1 c3 -8 2 -12 -4 -9 -6 3
-10 10 -10 16 0 14 7 11 14 -7z m316 -43 c0 -56 -1 -58 -26 -57 -34 1 -53 29
-38 54 7 9 21 17 33 16 16 0 21 5 21 23 0 13 2 23 5 23 3 0 5 -26 5 -59z
m-418 -18 c2 -23 0 -39 -4 -37 -5 3 -7 29 -7 57 1 56 6 48 11 -20z m306 60
c-36 -5 -40 -42 -5 -44 l22 -2 -22 -4 c-34 -6 -30 -41 5 -46 25 -4 25 -4 -5
-6 l-33 -1 0 55 0 55 33 -1 c30 -2 30 -2 5 -6z m-8163 -13 c3 -6 -1 -7 -9 -4
-18 7 -21 14 -7 14 6 0 13 -4 16 -10z m8364 -18 c-12 -5 -11 -59 1 -65 6 -3 5
-4 -2 -3 -13 3 -27 61 -20 83 3 9 7 9 17 0 7 -7 9 -13 4 -15z m-8407 -6 c-4
-25 28 -33 44 -11 13 17 14 17 14 1 0 -10 4 -14 12 -10 7 4 8 3 4 -4 -4 -6
-14 -8 -23 -5 -12 5 -14 3 -8 -7 6 -10 4 -12 -7 -7 -12 4 -15 0 -11 -16 4 -22
4 -22 -9 1 -8 12 -18 19 -23 15 -4 -4 -5 -2 -1 5 4 7 2 12 -6 12 -8 0 -14 10
-14 24 0 16 5 23 16 21 8 -1 14 -10 12 -19z m8345 -48 c-2 -13 -4 -3 -4 22 0
25 2 35 4 23 2 -13 2 -33 0 -45z m-320 5 c-3 -10 -5 -2 -5 17 0 19 2 27 5 18
2 -10 2 -26 0 -35z m-44 -30 c-13 -2 -33 -2 -45 0 -13 2 -3 4 22 4 25 0 35 -2
23 -4z m-8074 -149 c-6 -8 -16 -14 -22 -14 -6 0 -2 7 9 15 11 8 14 15 7 15 -7
0 -13 5 -13 11 0 8 5 8 15 -1 12 -10 13 -16 4 -26z m41 6 c0 -5 -4 -10 -10
-10 -5 0 -10 5 -10 10 0 6 5 10 10 10 6 0 10 -4 10 -10z m90 -6 c0 -2 -7 -4
-15 -4 -8 0 -15 4 -15 10 0 5 7 7 15 4 8 -4 15 -8 15 -10z m30 12 c0 -3 -4 -8
-10 -11 -5 -3 -10 -1 -10 4 0 6 5 11 10 11 6 0 10 -2 10 -4z m94 -5 c3 -4 -6
-6 -19 -3 -14 2 -25 6 -25 8 0 8 39 4 44 -5z m14088 -49 c21 -21 23 -31 23
-142 0 -178 30 -165 -365 -165 -391 0 -364 -11 -368 153 -3 117 6 148 48 169
19 10 98 13 332 11 305 -3 308 -3 330 -26z m-2149 11 c-7 -2 -13 -11 -13 -19
0 -8 6 -14 13 -15 10 0 10 -2 0 -6 -7 -2 -13 -20 -13 -39 0 -47 -17 -43 -22 6
-5 50 6 80 29 79 11 0 13 -3 6 -6z m587 -51 l0 -59 -35 -1 c-29 -1 -36 3 -41
23 -7 29 10 55 37 55 12 0 19 7 19 20 0 11 5 20 10 20 6 0 10 -26 10 -58z
m-1280 -1 c0 -46 2 -50 28 -54 22 -3 20 -4 -10 -6 l-38 -1 0 55 c0 30 5 55 10
55 6 0 10 -22 10 -49z m770 0 c0 -46 2 -50 28 -54 22 -3 20 -4 -10 -6 l-38 -1
0 55 c0 30 5 55 10 55 6 0 10 -22 10 -49z m-646 13 c28 -11 18 -34 -15 -34
-20 0 -29 -4 -26 -12 2 -7 14 -13 26 -12 11 0 21 -3 21 -8 0 -12 -44 -10 -58
4 -35 35 4 80 52 62z m84 -37 c3 -37 2 -38 -25 -35 -35 4 -45 37 -14 45 26 7
27 20 4 27 -11 3 -7 4 7 3 21 -2 25 -8 28 -40z m102 -5 c0 -26 -5 -53 -12 -60
-14 -14 -58 -16 -58 -4 0 5 10 8 22 8 13 -1 24 6 26 15 2 13 -3 15 -22 12 -21
-4 -26 0 -32 21 -8 34 10 56 47 56 28 0 29 -2 29 -48z m40 12 c0 -45 24 -42
28 4 5 46 22 40 22 -7 0 -38 -1 -39 -32 -38 -30 2 -33 5 -36 40 -2 21 1 37 7
37 6 0 11 -16 11 -36z m134 30 c28 -11 18 -34 -15 -34 -20 0 -29 -4 -26 -12 2
-7 14 -13 26 -12 11 0 21 -3 21 -8 0 -12 -44 -10 -58 4 -35 35 4 80 52 62z
m136 -9 c26 -32 -13 -81 -47 -59 -35 22 -23 74 17 74 10 0 23 -7 30 -15z m274
9 c28 -11 18 -34 -15 -34 -20 0 -29 -4 -26 -12 2 -7 14 -13 26 -12 11 0 21 -3
21 -8 0 -12 -44 -10 -58 4 -35 35 4 80 52 62z m106 -42 c0 -26 -5 -53 -12 -60
-14 -14 -58 -16 -58 -4 0 5 10 8 22 8 13 -1 24 6 26 15 2 13 -3 15 -22 12 -21
-4 -26 0 -32 21 -8 34 10 56 47 56 28 0 29 -2 29 -48z m84 42 c28 -11 18 -34
-15 -34 -20 0 -29 -4 -26 -12 2 -7 14 -13 26 -12 11 0 21 -3 21 -8 0 -12 -44
-10 -58 4 -35 35 4 80 52 62z m94 -36 c2 -22 -1 -38 -7 -38 -6 0 -11 16 -11
36 0 45 -24 42 -28 -4 -5 -46 -22 -40 -22 7 0 38 1 39 33 38 29 -2 32 -5 35
-39z m182 33 c0 -5 -9 -7 -20 -4 -26 7 -26 -14 1 -22 29 -10 20 -39 -14 -43
-15 -2 -27 1 -27 6 0 6 9 8 20 5 11 -3 20 -1 20 5 0 6 -9 14 -20 17 -20 6 -26
25 -13 38 10 10 53 8 53 -2z m-12813 -73 c-3 -8 -6 -5 -6 6 -1 11 2 17 5 13 3
-3 4 -12 1 -19z m11063 -33 c7 -8 9 -15 4 -15 -4 0 1 -7 12 -16 18 -15 17 -15
-6 -1 -14 8 -23 18 -22 22 2 4 -2 12 -10 16 -8 5 -9 9 -2 9 6 0 17 -7 24 -15z
m-65 -124 c3 -5 0 -13 -6 -17 -7 -4 -9 -3 -5 4 3 5 0 13 -6 15 -9 4 -10 6 -1
6 6 1 14 -3 18 -8z m-14744 -67 c42 -21 64 -75 49 -120 -10 -30 -9 -38 6 -55
22 -25 10 -38 -15 -15 -17 16 -24 16 -55 5 -110 -40 -183 121 -82 182 38 23
58 24 97 3z m655 -77 c23 8 44 -17 43 -51 l-2 -31 -6 35 c-4 26 -11 35 -26 35
-15 0 -22 -9 -26 -35 -5 -25 -6 -17 -6 30 0 36 2 53 4 38 3 -19 9 -25 19 -21z
m-342 25 c2 -4 -7 -8 -21 -7 -35 0 -41 -22 -10 -34 33 -13 42 -28 27 -46 -13
-16 -46 -20 -54 -7 -2 4 7 8 21 7 35 0 41 22 10 34 -33 13 -42 28 -27 46 13
16 46 20 54 7z m84 -45 c3 -13 -3 -17 -23 -17 -17 0 -25 -5 -22 -12 2 -7 14
-13 26 -12 15 0 19 -2 11 -10 -7 -7 -16 -7 -28 0 -22 14 -27 41 -11 60 16 19
43 14 47 -9z m80 -18 c3 -34 1 -36 -25 -35 -34 1 -38 27 -5 41 27 12 29 29 2
22 -11 -3 -17 -1 -14 4 14 23 39 3 42 -32z m49 28 c-9 -7 -18 -25 -20 -42 -3
-25 -4 -23 -6 10 -1 35 2 41 20 42 19 2 19 0 6 -10z m66 3 c-14 -6 -23 -18
-23 -30 0 -12 9 -24 23 -30 13 -5 16 -9 7 -9 -20 -1 -40 18 -40 39 0 21 20 40
40 39 9 0 6 -4 -7 -9z m3024 -112 c-2 -18 -4 -4 -4 32 0 36 2 50 4 33 2 -18 2
-48 0 -65z m40 0 c-2 -18 -4 -4 -4 32 0 36 2 50 4 33 2 -18 2 -48 0 -65z
m-192 32 c29 0 34 4 38 28 2 15 4 0 4 -33 0 -33 -2 -48 -4 -32 -4 23 -9 27
-38 27 -29 0 -34 -4 -38 -27 -2 -16 -4 -1 -4 32 0 33 2 48 4 33 4 -24 9 -28
38 -28z m123 -3 c3 -13 -3 -17 -23 -17 -17 0 -25 -5 -22 -12 2 -7 14 -13 26
-12 15 0 19 -2 11 -10 -7 -7 -16 -7 -28 0 -22 14 -27 41 -11 60 16 19 43 14
47 -9z m160 11 c17 -17 15 -43 -4 -59 -31 -26 -70 25 -44 56 15 18 32 19 48 3z
m11042 -328 c0 -5 -2 -10 -4 -10 -3 0 -8 5 -11 10 -3 6 -1 10 4 10 6 0 11 -4
11 -10z m3252 -28 c21 -21 23 -31 23 -142 0 -178 30 -165 -365 -165 -391 0
-364 -11 -368 153 -3 117 6 148 48 169 19 10 98 13 332 11 305 -3 308 -3 330
-26z m-2742 -5 c0 -18 5 -23 23 -23 18 1 22 -5 25 -36 2 -22 -1 -38 -7 -38 -6
0 -11 16 -11 36 0 45 -24 42 -28 -4 -6 -56 -22 -34 -22 28 0 33 4 60 10 60 6
0 10 -10 10 -23z m170 -37 c0 -33 -4 -60 -10 -60 -6 0 -10 27 -10 60 0 33 4
60 10 60 6 0 10 -27 10 -60z m40 0 c0 -33 -4 -60 -10 -60 -6 0 -10 27 -10 60
0 33 4 60 10 60 6 0 10 -27 10 -60z m-250 40 c0 -5 -7 -7 -15 -4 -21 8 -45
-14 -45 -41 0 -27 24 -49 45 -41 8 3 15 1 15 -4 0 -16 -47 -11 -64 6 -21 20
-20 53 1 76 17 19 63 25 63 8z m168 -63 c3 -37 2 -38 -25 -35 -35 4 -45 37
-14 45 26 7 27 20 4 27 -11 3 -7 4 7 3 21 -2 25 -8 28 -40z m166 37 c28 -11
18 -34 -15 -34 -20 0 -29 -4 -26 -12 2 -7 14 -13 26 -12 11 0 21 -3 21 -8 0
-12 -44 -10 -58 4 -35 35 4 80 52 62z m94 -36 c2 -22 -1 -38 -7 -38 -6 0 -11
16 -11 36 0 45 -24 42 -28 -4 -5 -46 -22 -40 -22 7 0 38 1 39 33 38 29 -2 32
-5 35 -39z m102 -6 c0 -26 -5 -53 -12 -60 -14 -14 -58 -16 -58 -4 0 5 10 8 22
8 13 -1 24 6 26 15 2 13 -3 15 -22 12 -21 -4 -26 0 -32 21 -8 34 10 56 47 56
28 0 29 -2 29 -48z m84 42 c28 -11 18 -34 -15 -34 -20 0 -29 -4 -26 -12 2 -7
14 -13 26 -12 11 0 21 -3 21 -8 0 -12 -44 -10 -58 4 -35 35 4 80 52 62z m63
-6 c-10 -5 -17 -21 -17 -38 0 -17 -4 -30 -10 -30 -5 0 -10 17 -10 39 0 35 2
39 27 39 21 0 23 -2 10 -10z m83 3 c0 -5 -9 -7 -20 -4 -26 7 -26 -14 1 -22 29
-10 20 -39 -14 -43 -15 -2 -27 1 -27 6 0 6 9 8 20 5 11 -3 20 -1 20 5 0 6 -9
14 -20 17 -20 6 -26 25 -13 38 10 10 53 8 53 -2z m-1095 -201 c3 -5 -1 -10 -9
-10 -9 0 -16 5 -16 10 0 6 4 10 9 10 6 0 13 -4 16 -10z m-14960 -61 c6 0 23 3
38 7 21 5 34 1 53 -16 44 -42 25 -106 -46 -155 l-41 -29 -36 19 c-78 42 -106
116 -62 164 17 18 28 22 53 17 17 -4 36 -6 41 -7z m14965 1 c0 -5 -5 -10 -11
-10 -5 0 -7 5 -4 10 3 6 8 10 11 10 2 0 4 -4 4 -10z m-14614 -87 c25 -63 27
-71 14 -50 -6 10 -23 17 -40 17 -17 0 -34 -7 -40 -17 -13 -21 -11 -13 14 50
10 26 22 47 26 47 4 0 16 -21 26 -47z m133 9 c-12 -5 -11 -59 1 -65 6 -3 5 -4
-2 -3 -13 3 -27 61 -20 83 3 9 7 9 17 0 7 -7 9 -13 4 -15z m217 8 c8 0 20 -13
25 -30 6 -16 15 -30 19 -30 4 0 13 14 19 30 5 17 13 30 16 30 7 0 -21 -68 -41
-97 -8 -13 -20 -23 -26 -23 -7 0 -3 6 7 14 17 12 18 17 5 55 -15 48 -40 55
-40 12 0 -16 5 -32 10 -34 6 -3 5 -4 -2 -3 -14 3 -27 62 -19 85 3 10 6 11 9 3
2 -7 10 -12 18 -12z m-283 -10 c-14 -6 -23 -18 -23 -30 0 -12 9 -24 23 -30 13
-5 16 -9 6 -9 -19 -1 -39 18 -39 39 0 21 20 40 40 39 9 0 6 -4 -7 -9z m94 -52
c-2 -13 -4 -3 -4 22 0 25 2 35 4 23 2 -13 2 -33 0 -45z m53 15 c0 -7 5 -13 10
-13 6 0 10 6 10 13 0 7 7 22 15 33 12 15 11 11 -2 -23 -9 -24 -19 -43 -23 -43
-4 0 -14 19 -23 43 -13 34 -14 38 -2 23 8 -11 15 -26 15 -33z m67 -15 c-2 -13
-4 -3 -4 22 0 25 2 35 4 23 2 -13 2 -33 0 -45z m4113 -411 c0 -18 5 -23 23
-23 18 1 22 -5 25 -36 2 -22 -1 -38 -7 -38 -6 0 -11 16 -11 36 0 45 -24 42
-28 -4 -5 -51 -22 -37 -22 18 0 43 -3 50 -20 50 -17 0 -20 -7 -20 -50 0 -27
-4 -50 -10 -50 -5 0 -10 23 -10 50 0 45 -2 50 -22 52 -13 1 2 4 32 8 30 4 58
7 63 8 4 1 7 -8 7 -21z m380 -35 l0 -59 -35 -1 c-29 -1 -36 3 -41 23 -7 29 10
55 37 55 12 0 19 7 19 20 0 11 5 20 10 20 6 0 10 -26 10 -58z m3040 -2 c0 -33
-4 -60 -10 -60 -6 0 -10 27 -10 60 0 33 4 60 10 60 6 0 10 -27 10 -60z m40 50
c0 -5 -4 -10 -10 -10 -5 0 -10 5 -10 10 0 6 5 10 10 10 6 0 10 -4 10 -10z
m3160 -48 l0 -59 -35 -1 c-29 -1 -36 3 -41 23 -7 29 10 55 37 55 12 0 19 7 19
20 0 11 5 20 10 20 6 0 10 -26 10 -58z m-3434 33 c4 -8 1 -22 -6 -30 -10 -12
-9 -20 4 -40 9 -14 12 -25 6 -25 -5 0 -17 11 -26 25 -9 14 -20 25 -25 25 -5 0
-9 -11 -9 -25 0 -14 -4 -25 -10 -25 -5 0 -10 25 -10 55 l0 55 35 0 c23 0 38
-6 41 -15z m2987 8 c-20 -4 -23 -11 -23 -54 0 -27 -4 -49 -10 -49 -5 0 -10 22
-10 49 0 43 -3 50 -22 54 -13 2 2 4 32 4 30 0 45 -2 33 -4z m-5428 -48 c0 -19
-5 -30 -15 -31 -9 0 -10 1 -2 3 6 3 12 9 12 14 0 5 -6 9 -12 10 -10 0 -10 2 0
6 17 7 15 21 -5 27 -14 4 -14 4 2 3 15 -2 20 -10 20 -32z m-638 13 c-10 -5
-17 -21 -17 -38 0 -17 -4 -30 -10 -30 -5 0 -10 17 -10 39 0 35 2 39 27 39 21
0 23 -2 10 -10z m87 6 c28 -11 18 -34 -15 -34 -20 0 -29 -4 -26 -12 2 -7 14
-13 26 -12 11 0 21 -3 21 -8 0 -12 -44 -10 -58 4 -35 35 4 80 52 62z m84 -37
c3 -37 2 -38 -25 -35 -35 4 -45 37 -14 45 26 7 27 20 4 27 -11 3 -7 4 7 3 21
-2 25 -8 28 -40z m182 34 c0 -5 -9 -7 -20 -4 -26 7 -26 -14 1 -22 29 -10 20
-39 -14 -43 -15 -2 -27 1 -27 6 0 6 9 8 20 5 11 -3 20 -1 20 5 0 6 -9 14 -20
17 -20 6 -26 25 -13 38 10 10 53 8 53 -2z m2814 3 c28 -11 18 -34 -15 -34 -20
0 -29 -4 -26 -12 2 -7 14 -13 26 -12 11 0 21 -3 21 -8 0 -12 -44 -10 -58 4
-35 35 4 80 52 62z m102 -19 c8 -31 -13 -58 -38 -52 -14 4 -18 -1 -18 -19 0
-13 -4 -24 -10 -24 -6 0 -10 26 -10 58 l0 59 35 1 c29 1 36 -3 41 -23z m84
-15 c0 -22 -4 -40 -10 -40 -5 0 -10 18 -10 40 0 22 5 40 10 40 6 0 10 -18 10
-40z m84 34 c28 -11 18 -34 -15 -34 -20 0 -29 -4 -26 -12 2 -7 14 -13 26 -12
11 0 21 -3 21 -8 0 -12 -44 -10 -58 4 -35 35 4 80 52 62z m86 -3 c0 -5 -9 -7
-20 -4 -26 7 -26 -14 1 -22 29 -10 20 -39 -14 -43 -15 -2 -27 1 -27 6 0 6 9 8
20 5 11 -3 20 -1 20 5 0 6 -9 14 -20 17 -20 6 -26 25 -13 38 10 10 53 8 53 -2z
m2598 -34 c3 -37 2 -38 -25 -35 -35 4 -45 37 -14 45 26 7 27 20 4 27 -11 3 -7
4 7 3 21 -2 25 -8 28 -40z m102 -5 c0 -26 -5 -53 -12 -60 -14 -14 -58 -16 -58
-4 0 5 10 8 22 8 13 -1 24 6 26 15 2 13 -3 15 -22 12 -21 -4 -26 0 -32 21 -8
34 10 56 47 56 28 0 29 -2 29 -48z m100 0 c0 -26 -5 -53 -12 -60 -14 -14 -58
-16 -58 -4 0 5 10 8 22 8 13 -1 24 6 26 15 2 13 -3 15 -22 12 -21 -4 -26 0
-32 21 -8 34 10 56 47 56 28 0 29 -2 29 -48z m84 42 c28 -11 18 -34 -15 -34
-20 0 -29 -4 -26 -12 2 -7 14 -13 26 -12 11 0 21 -3 21 -8 0 -12 -44 -10 -58
4 -35 35 4 80 52 62z m-11254 -224 c0 -5 -17 -10 -38 -10 -44 0 -62 -14 -62
-48 0 -17 4 -23 15 -18 9 3 29 -7 49 -24 21 -19 40 -28 50 -24 9 3 27 -1 41
-10 25 -16 25 -16 25 14 0 16 5 30 10 30 14 0 13 -56 -1 -83 -18 -33 -28 -37
-99 -37 -71 0 -81 4 -99 37 -24 46 -10 153 23 175 17 11 86 9 86 -2z m83 -31
c22 -2 22 -2 0 -6 -15 -3 -23 -12 -24 -26 -2 -22 -2 -22 -6 1 -3 14 -12 22
-26 23 -22 2 -22 2 1 6 14 3 22 12 23 26 2 22 2 22 6 0 3 -15 12 -23 26 -24z
m793 -52 c23 8 44 -17 43 -51 l-2 -31 -6 35 c-4 26 -11 35 -26 35 -15 0 -22
-9 -26 -35 -5 -25 -6 -17 -6 30 0 36 2 53 4 38 3 -19 9 -25 19 -21z m354 -16
c0 -56 -1 -58 -26 -57 -34 1 -53 29 -38 54 7 9 21 17 33 16 16 0 21 5 21 23 0
13 2 23 5 23 3 0 5 -26 5 -59z m-876 40 c4 -5 -3 -7 -14 -4 -26 7 -50 -13 -50
-42 0 -29 24 -49 50 -42 11 3 18 1 14 -4 -16 -26 -74 8 -74 44 0 39 57 76 74
48z m464 2 c-14 -3 -18 -16 -20 -56 l-2 -52 -3 52 c-3 38 -8 53 -21 56 -9 3 1
5 23 5 22 0 32 -2 23 -5z m-189 -31 c-12 -5 -11 -59 1 -65 6 -3 5 -4 -2 -3
-13 3 -27 61 -20 83 3 9 7 9 17 0 7 -7 9 -13 4 -15z m-222 -5 c-9 -7 -18 -25
-20 -42 -3 -25 -4 -23 -6 10 -1 35 2 41 20 42 19 2 19 0 6 -10z m91 -10 c3
-13 -3 -17 -23 -17 -17 0 -25 -5 -22 -12 2 -7 14 -13 26 -12 15 0 19 -2 11
-10 -7 -7 -16 -7 -28 0 -22 14 -27 41 -11 60 16 19 43 14 47 -9z m80 -18 c3
-34 1 -36 -25 -35 -34 1 -38 27 -5 41 27 12 29 29 2 22 -11 -3 -17 -1 -14 4
14 23 39 3 42 -32z m130 18 c3 -13 -3 -17 -23 -17 -17 0 -25 -5 -22 -12 2 -7
14 -13 26 -12 15 0 19 -2 11 -10 -7 -7 -16 -7 -28 0 -22 14 -27 41 -11 60 16
19 43 14 47 -9z m259 10 c-9 -7 -18 -25 -20 -42 -3 -25 -4 -23 -6 10 -1 35 2
41 20 42 19 2 19 0 6 -10z m91 -10 c3 -13 -3 -17 -23 -17 -17 0 -25 -5 -22
-12 2 -7 14 -13 26 -12 15 0 19 -2 11 -10 -7 -7 -16 -7 -28 0 -22 14 -27 41
-11 60 16 19 43 14 47 -9z m80 -18 c3 -34 1 -36 -25 -35 -34 1 -38 27 -5 41
27 12 29 29 2 22 -11 -3 -17 -1 -14 4 14 23 39 3 42 -32z m3312 -669 c0 -33
-4 -60 -10 -60 -6 0 -10 27 -10 60 0 33 4 60 10 60 6 0 10 -27 10 -60z m270 2
l0 -59 -35 -1 c-29 -1 -36 3 -41 23 -7 29 10 55 37 55 12 0 19 7 19 20 0 11 5
20 10 20 6 0 10 -26 10 -58z m40 48 c0 -5 -4 -10 -10 -10 -5 0 -10 5 -10 10 0
6 5 10 10 10 6 0 10 -4 10 -10z m-350 -10 c0 -5 -7 -7 -15 -4 -21 8 -45 -14
-45 -41 0 -27 24 -49 45 -41 8 3 15 1 15 -4 0 -16 -47 -11 -64 6 -21 20 -20
53 1 76 17 19 63 25 63 8z m118 -63 c3 -37 2 -38 -25 -35 -35 4 -45 37 -14 45
26 7 27 20 4 27 -11 3 -7 4 7 3 21 -2 25 -8 28 -40z m42 7 c0 -45 24 -42 28 4
5 46 22 40 22 -7 0 -38 -1 -39 -32 -38 -30 2 -33 5 -36 40 -2 21 1 37 7 37 6
0 11 -16 11 -36z m190 -4 c0 -22 -4 -40 -10 -40 -5 0 -10 18 -10 40 0 22 5 40
10 40 6 0 10 -18 10 -40z m40 4 c0 -45 24 -42 28 4 5 46 22 40 22 -7 0 -38 -1
-39 -32 -38 -30 2 -33 5 -36 40 -2 21 1 37 7 37 6 0 11 -16 11 -36z m-4782 4
c7 -7 22 -13 34 -13 32 0 47 -30 25 -52 -13 -13 -19 -14 -29 -5 -9 9 -8 12 5
12 19 0 23 26 5 32 -7 3 -19 -9 -28 -26 -18 -37 -44 -44 -71 -20 -23 21 -24
33 -3 62 17 24 43 29 62 10z m-78 -18 c0 -5 -7 -10 -15 -10 -8 0 -15 -7 -15
-15 0 -8 7 -15 15 -15 8 0 15 -5 15 -11 0 -16 -31 -7 -43 13 -8 12 -7 21 2 32
15 18 41 22 41 6z m414 -39 c4 -5 -3 -7 -14 -4 -26 7 -50 -13 -50 -42 0 -29
24 -49 50 -42 11 3 18 1 14 -4 -16 -26 -74 8 -74 44 0 39 57 76 74 48z m645
-29 c-12 -5 -11 -59 1 -65 6 -3 5 -4 -2 -3 -13 3 -27 61 -20 83 3 9 7 9 17 0
7 -7 9 -13 4 -15z m-561 -4 c17 -17 15 -43 -4 -59 -31 -26 -70 25 -44 56 15
18 32 19 48 3z m138 -31 l1 -37 -4 36 c-6 47 -35 44 -44 -6 l-6 -35 -2 38 c-1
31 -4 38 -18 35 -12 -2 -20 -16 -24 -38 l-6 -35 -2 41 -1 41 53 -1 52 -1 1
-38z m140 0 l1 -37 -4 36 c-6 47 -35 44 -44 -6 l-6 -35 -2 38 c-1 31 -4 38
-18 35 -12 -2 -20 -16 -24 -38 l-6 -35 -2 41 -1 41 53 -1 52 -1 1 -38z m69
-22 c15 0 22 9 26 35 l6 35 2 -40 c1 -35 -2 -41 -21 -42 -32 -3 -48 15 -47 51
l2 31 6 -35 c4 -26 11 -35 26 -35z m112 53 c7 -6 12 -25 12 -42 l-2 -31 -6 35
c-4 26 -11 35 -26 35 -15 0 -22 -9 -26 -35 l-6 -35 -2 40 c-1 35 2 41 21 42
12 1 28 -3 35 -9z m40 -50 c-2 -13 -4 -3 -4 22 0 25 2 35 4 23 2 -13 2 -33 0
-45z m90 0 c-2 -13 -4 -3 -4 22 0 25 2 35 4 23 2 -13 2 -33 0 -45z m91 39 c3
-13 -3 -17 -23 -17 -17 0 -25 -5 -22 -12 2 -7 14 -13 26 -12 15 0 19 -2 11
-10 -7 -7 -16 -7 -28 0 -22 14 -27 41 -11 60 16 19 43 14 47 -9z m66 14 c4 -5
-3 -7 -14 -4 -26 7 -25 -4 2 -26 12 -10 18 -23 14 -29 -9 -14 -33 -16 -40 -3
-4 5 3 7 14 4 27 -7 26 11 -2 29 -12 8 -18 19 -14 26 9 14 32 16 40 3z m-1154
-26 c69 -36 -2 -104 -76 -74 -16 7 -37 13 -47 14 -36 4 -43 47 -10 59 23 9 31
-4 10 -15 -9 -6 -15 -14 -12 -20 10 -15 23 -10 30 12 12 36 60 47 105 24z m64
-8 c19 -14 13 -42 -11 -51 -23 -9 -31 4 -10 16 18 9 18 11 1 29 -19 22 -7 26
20 6z m4320 -139 c16 -25 -4 -72 -32 -76 -44 -7 -65 34 -41 79 13 24 57 22 73
-3z m59 -22 c22 18 22 18 5 -1 -17 -18 -17 -20 0 -39 17 -21 17 -21 -5 -3 -21
18 -21 18 -26 0 -3 -10 -4 7 -4 37 0 33 2 42 4 22 4 -34 5 -34 26 -16z m637
-5 c0 -46 -1 -48 -27 -47 -24 1 -28 5 -28 31 0 25 4 30 23 29 15 0 22 5 22 18
0 10 2 18 5 18 3 0 5 -22 5 -49z m-512 -19 c3 -30 1 -33 -19 -30 -30 4 -37 28
-10 35 26 7 27 20 4 27 -14 4 -14 4 2 3 15 -2 21 -11 23 -35z m77 3 c0 -23 -4
-30 -20 -30 -11 0 -23 -9 -27 -20 -3 -12 -6 0 -7 31 -1 49 0 51 27 50 23 -1
27 -5 27 -31z m80 0 c0 -23 -4 -30 -20 -30 -11 0 -23 -9 -27 -20 -3 -12 -6 0
-7 31 -1 49 0 51 27 50 23 -1 27 -5 27 -31z m52 22 c-9 -7 -18 -23 -20 -37 -3
-19 -5 -17 -6 10 -1 30 3 36 20 37 19 2 19 0 6 -10z m78 -22 c0 -25 -4 -30
-25 -30 -16 0 -26 6 -28 18 -6 30 6 49 30 45 18 -2 23 -9 23 -33z m40 3 c8
-18 14 -26 15 -17 0 8 7 24 15 35 14 17 14 16 2 -16 -16 -42 -28 -42 -45 -1
-16 41 -5 40 13 -1z m103 10 c2 -11 -5 -18 -20 -20 l-23 -5 25 -11 25 -12 -25
3 c-26 2 -37 25 -26 53 8 20 40 14 44 -8z m-3656 -356 c23 -22 23 -27 23 -252
0 -225 0 -230 -23 -252 l-23 -23 -794 0 -794 0 -23 23 c-22 22 -23 29 -26 240
-2 234 1 255 48 279 20 10 192 12 807 10 l782 -2 23 -23z m2722 -353 c31 -25
34 -61 6 -89 -16 -16 -33 -20 -96 -20 -79 0 -114 11 -114 35 0 8 -4 15 -10 15
-5 0 -7 7 -3 16 5 14 1 16 -21 12 -14 -3 -29 -1 -32 3 -3 5 9 9 26 9 18 0 43
9 57 20 37 29 149 29 187 -1z m10646 -44 c0 -8 -7 -15 -15 -15 -8 0 -15 7 -15
15 0 8 7 15 15 15 8 0 15 -7 15 -15z m230 0 c0 -8 -7 -15 -15 -15 -8 0 -15 7
-15 15 0 8 7 15 15 15 8 0 15 -7 15 -15z m50 -60 c0 -43 -4 -75 -10 -75 -6 0
-10 32 -10 75 0 43 4 75 10 75 6 0 10 -32 10 -75z m460 60 c0 -8 -7 -15 -15
-15 -8 0 -15 7 -15 15 0 8 7 15 15 15 8 0 15 -7 15 -15z m240 -59 l0 -74 -36
1 c-46 2 -62 24 -48 64 7 22 16 28 37 28 23 -1 27 3 27 27 0 15 5 28 10 28 6
0 10 -31 10 -74z m-1030 51 c0 -7 -11 -13 -27 -12 -37 0 -39 -20 -4 -35 57
-23 48 -84 -12 -78 -41 4 -45 23 -5 23 41 0 45 16 8 37 -36 21 -47 43 -30 63
15 19 70 20 70 2z m640 -12 c6 -14 15 -37 21 -52 l11 -28 20 53 c29 77 48 70
48 -18 0 -40 -4 -70 -10 -70 -5 0 -10 24 -11 53 l0 52 -21 -52 c-11 -29 -24
-53 -28 -53 -4 0 -17 24 -28 53 l-21 52 0 -52 c-1 -29 -5 -53 -11 -53 -6 0
-10 30 -10 70 0 56 3 70 15 70 9 0 20 -11 25 -25z m-590 -65 c0 -27 -4 -50
-10 -50 -5 0 -10 23 -10 50 0 28 5 50 10 50 6 0 10 -22 10 -50z m105 39 c3 -5
15 -3 25 4 31 19 54 -2 58 -52 2 -22 -1 -41 -7 -41 -5 0 -11 17 -13 38 -2 29
-7 37 -23 37 -16 0 -21 -8 -23 -37 -2 -21 -7 -38 -12 -38 -5 0 -10 17 -12 38
-2 29 -7 37 -23 37 -16 0 -21 -8 -23 -37 -5 -55 -22 -47 -22 10 l0 48 35 1
c19 1 37 -3 40 -8z m125 -39 c0 -27 -4 -50 -10 -50 -5 0 -10 23 -10 50 0 28 5
50 10 50 6 0 10 -22 10 -50z m158 -1 l3 -46 -36 -1 c-23 -1 -38 4 -42 13 -7
20 14 45 38 45 11 0 19 5 19 11 0 7 -10 9 -25 7 -14 -3 -25 -2 -25 2 0 14 15
21 40 18 22 -3 25 -8 28 -49z m82 41 c0 -4 -9 -10 -20 -13 -15 -4 -20 -14 -20
-41 0 -20 -4 -36 -10 -36 -5 0 -10 22 -10 48 0 47 1 49 30 50 17 0 30 -3 30
-8z m270 -40 c0 -27 -4 -50 -10 -50 -5 0 -10 23 -10 50 0 28 5 50 10 50 6 0
10 -22 10 -50z m108 37 c14 -11 17 -87 3 -87 -6 0 -11 17 -13 38 -2 29 -7 37
-23 37 -16 0 -21 -8 -23 -37 -5 -55 -22 -46 -22 10 0 48 0 49 33 49 17 0 38
-4 45 -10z m222 -1 c0 -9 -7 -12 -20 -9 -11 3 -20 1 -20 -5 0 -5 9 -12 20 -15
26 -7 37 -36 19 -48 -22 -13 -59 -11 -59 5 0 9 8 12 25 8 30 -5 34 13 5 21
-26 7 -37 36 -19 48 21 13 49 11 49 -5z m-889 -431 c24 -9 54 -25 66 -37 22
-21 23 -28 23 -189 l0 -167 -29 -24 c-57 -48 -162 -60 -236 -27 l-30 13 45 4
c24 2 50 8 57 14 18 15 18 313 0 348 -10 21 -22 26 -67 30 l-55 6 35 16 c19 8
42 18 50 21 30 11 98 7 141 -8z m3151 -83 c21 -21 23 -31 23 -142 0 -178 30
-165 -365 -165 -391 0 -364 -11 -368 153 -3 117 6 148 48 169 19 10 98 13 332
11 305 -3 308 -3 330 -26z m-2742 -42 c0 -33 -4 -60 -10 -60 -6 0 -10 27 -10
60 0 33 4 60 10 60 6 0 10 -27 10 -60z m270 2 l0 -59 -35 -1 c-29 -1 -36 3
-41 23 -7 29 10 55 37 55 12 0 19 7 19 20 0 11 5 20 10 20 6 0 10 -26 10 -58z
m40 48 c0 -5 -4 -10 -10 -10 -5 0 -10 5 -10 10 0 6 5 10 10 10 6 0 10 -4 10
-10z m-350 -10 c0 -5 -7 -7 -15 -4 -21 8 -45 -14 -45 -41 0 -27 24 -49 45 -41
8 3 15 1 15 -4 0 -16 -47 -11 -64 6 -21 20 -20 53 1 76 17 19 63 25 63 8z
m118 -63 c3 -37 2 -38 -25 -35 -35 4 -45 37 -14 45 26 7 27 20 4 27 -11 3 -7
4 7 3 21 -2 25 -8 28 -40z m42 7 c0 -45 24 -42 28 4 5 46 22 40 22 -7 0 -38
-1 -39 -32 -38 -30 2 -33 5 -36 40 -2 21 1 37 7 37 6 0 11 -16 11 -36z m190
-4 c0 -22 -4 -40 -10 -40 -5 0 -10 18 -10 40 0 22 5 40 10 40 6 0 10 -18 10
-40z m40 4 c0 -45 24 -42 28 4 5 46 22 40 22 -7 0 -38 -1 -39 -32 -38 -30 2
-33 5 -36 40 -2 21 1 37 7 37 6 0 11 -16 11 -36z m-990 10 c0 -9 -5 -12 -12
-8 -8 5 -9 2 -5 -9 3 -10 2 -17 -3 -17 -14 0 -22 19 -16 35 7 20 36 19 36 -1z
m-50 -9 c0 -8 -4 -15 -10 -15 -5 0 -10 7 -10 15 0 8 5 15 10 15 6 0 10 -7 10
-15z m427 -147 c-2 -13 -4 -3 -4 22 0 25 2 35 4 23 2 -13 2 -33 0 -45z m-379
30 c7 -7 12 -20 12 -30 0 -13 -8 -18 -31 -18 -39 0 -34 -22 7 -31 21 -5 23 -7
9 -9 -49 -6 -65 7 -65 52 0 39 43 61 68 36z m-10238 -428 c0 -33 -4 -60 -10
-60 -6 0 -10 27 -10 60 0 33 4 60 10 60 6 0 10 -27 10 -60z m270 2 l0 -59 -35
-1 c-29 -1 -36 3 -41 23 -7 29 10 55 37 55 12 0 19 7 19 20 0 11 5 20 10 20 6
0 10 -26 10 -58z m40 48 c0 -5 -4 -10 -10 -10 -5 0 -10 5 -10 10 0 6 5 10 10
10 6 0 10 -4 10 -10z m-350 -10 c0 -5 -7 -7 -15 -4 -21 8 -45 -14 -45 -41 0
-27 24 -49 45 -41 8 3 15 1 15 -4 0 -16 -47 -11 -64 6 -21 20 -20 53 1 76 17
19 63 25 63 8z m118 -63 c3 -37 2 -38 -25 -35 -35 4 -45 37 -14 45 26 7 27 20
4 27 -11 3 -7 4 7 3 21 -2 25 -8 28 -40z m42 7 c0 -45 24 -42 28 4 5 46 22 40
22 -7 0 -38 -1 -39 -32 -38 -30 2 -33 5 -36 40 -2 21 1 37 7 37 6 0 11 -16 11
-36z m190 -4 c0 -22 -4 -40 -10 -40 -5 0 -10 18 -10 40 0 22 5 40 10 40 6 0
10 -18 10 -40z m40 4 c0 -45 24 -42 28 4 5 46 22 40 22 -7 0 -38 -1 -39 -32
-38 -30 2 -33 5 -36 40 -2 21 1 37 7 37 6 0 11 -16 11 -36z m10121 -179 c24
-9 52 -23 62 -33 18 -16 18 -17 -4 -22 -12 -3 -24 -11 -25 -18 -1 -7 0 -8 3
-2 8 17 52 11 74 -11 16 -16 18 -23 9 -29 -9 -6 -8 -9 6 -13 14 -3 12 -5 -8
-6 -22 -1 -25 -5 -20 -23 3 -14 1 -19 -6 -14 -8 5 -10 2 -6 -8 4 -10 19 -16
40 -16 32 0 34 -2 34 -34 0 -18 -7 -53 -15 -77 -19 -52 -95 -135 -107 -116 -6
9 -8 8 -8 -4 0 -18 -59 -39 -112 -39 -43 0 -115 24 -141 48 -18 16 -18 17 4
22 12 3 24 11 25 18 1 7 0 8 -3 2 -2 -5 -17 -10 -33 -10 -30 0 -60 32 -75 79
-7 22 -5 23 37 20 39 -4 44 -2 40 14 -5 18 -42 24 -42 7 0 -5 -9 -10 -20 -10
-11 0 -20 2 -20 4 0 2 -3 13 -6 23 -5 14 -4 15 4 4 7 -9 16 -11 28 -6 11 4 27
7 38 6 11 -2 17 2 14 11 -3 8 -20 13 -46 12 -23 -1 -42 2 -42 7 0 5 6 9 13 9
8 0 7 4 -3 10 -9 6 -11 10 -3 10 7 0 10 6 7 13 -8 22 12 61 57 111 31 33 45
43 51 34 6 -10 8 -9 8 3 0 35 118 50 191 24z m-10584 -132 c-2 -16 -4 -3 -4
27 0 30 2 43 4 28 2 -16 2 -40 0 -55z m310 0 c-2 -16 -4 -3 -4 27 0 30 2 43 4
28 2 -16 2 -40 0 -55z m13425 49 c21 -21 23 -31 23 -142 0 -178 30 -165 -365
-165 -391 0 -364 -11 -368 153 -3 117 6 148 48 169 19 10 98 13 332 11 305 -3
308 -3 330 -26z m-2772 -1 c0 -5 -9 -7 -20 -4 -11 3 -27 0 -35 -7 -28 -23 -13
-80 22 -80 17 0 17 37 1 43 -7 3 -3 6 10 6 18 1 22 -4 22 -29 0 -27 -3 -30
-29 -30 -54 0 -80 53 -44 92 16 18 73 25 73 9z m-10844 -41 l2 -35 -5 33 c-5
40 -25 38 -34 -4 l-7 -29 -1 33 c-1 41 -23 39 -32 -4 -6 -28 -7 -28 -8 7 -1
35 -1 35 42 35 41 -1 42 -2 43 -36z m41 -12 c-2 -13 -4 -5 -4 17 -1 22 1 32 4
23 2 -10 2 -28 0 -40z m118 17 c0 -23 -4 -30 -20 -30 -11 0 -23 -9 -27 -20 -3
-12 -6 0 -7 31 -1 49 0 51 27 50 23 -1 27 -5 27 -31z m103 -3 c3 -30 1 -33
-19 -30 -30 4 -37 28 -10 35 26 7 27 20 4 27 -14 4 -14 4 2 3 15 -2 21 -11 23
-35z m55 28 c-13 -5 -23 -16 -23 -25 0 -9 10 -20 23 -25 22 -10 22 -10 -3 -7
-43 4 -34 68 9 66 11 0 9 -3 -6 -9z m75 -12 c2 -11 -5 -18 -20 -20 l-23 -5 25
-11 25 -12 -25 3 c-26 2 -37 25 -26 53 8 20 40 14 44 -8z m10542 -13 c26 -32
-13 -81 -47 -59 -35 22 -23 74 17 74 10 0 23 -7 30 -15z m94 9 c28 -11 18 -34
-15 -34 -20 0 -29 -4 -26 -12 2 -7 14 -13 26 -12 11 0 21 -3 21 -8 0 -12 -44
-10 -58 4 -35 35 4 80 52 62z m63 -6 c-10 -5 -17 -21 -17 -38 0 -17 -4 -30
-10 -30 -5 0 -10 17 -10 39 0 35 2 39 27 39 21 0 23 -2 10 -10z m-727 -818 c0
-5 -2 -10 -4 -10 -3 0 -8 5 -11 10 -3 6 -1 10 4 10 6 0 11 -4 11 -10z m3252
-28 c21 -21 23 -31 23 -142 0 -178 30 -165 -365 -165 -391 0 -364 -11 -368
153 -3 117 6 148 48 169 19 10 98 13 332 11 305 -3 308 -3 330 -26z m-2742
-42 c0 -33 -4 -60 -10 -60 -6 0 -10 27 -10 60 0 33 4 60 10 60 6 0 10 -27 10
-60z m270 2 l0 -59 -35 -1 c-29 -1 -36 3 -41 23 -7 29 10 55 37 55 12 0 19 7
19 20 0 11 5 20 10 20 6 0 10 -26 10 -58z m40 48 c0 -5 -4 -10 -10 -10 -5 0
-10 5 -10 10 0 6 5 10 10 10 6 0 10 -4 10 -10z m-350 -10 c0 -5 -7 -7 -15 -4
-21 8 -45 -14 -45 -41 0 -27 24 -49 45 -41 8 3 15 1 15 -4 0 -16 -47 -11 -64
6 -21 20 -20 53 1 76 17 19 63 25 63 8z m118 -63 c3 -37 2 -38 -25 -35 -35 4
-45 37 -14 45 26 7 27 20 4 27 -11 3 -7 4 7 3 21 -2 25 -8 28 -40z m42 7 c0
-45 24 -42 28 4 5 46 22 40 22 -7 0 -38 -1 -39 -32 -38 -30 2 -33 5 -36 40 -2
21 1 37 7 37 6 0 11 -16 11 -36z m190 -4 c0 -22 -4 -40 -10 -40 -5 0 -10 18
-10 40 0 22 5 40 10 40 6 0 10 -18 10 -40z m40 4 c0 -45 24 -42 28 4 5 46 22
40 22 -7 0 -38 -1 -39 -32 -38 -30 2 -33 5 -36 40 -2 21 1 37 7 37 6 0 11 -16
11 -36z m-725 -174 c3 -5 -1 -10 -9 -10 -9 0 -16 5 -16 10 0 6 4 10 9 10 6 0
13 -4 16 -10z m5 -60 c0 -5 -5 -10 -11 -10 -5 0 -7 5 -4 10 3 6 8 10 11 10 2
0 4 -4 4 -10z m0 -46 c0 -8 -19 -13 -24 -6 -3 5 1 9 9 9 8 0 15 -2 15 -3z
m-54 -459 c66 -20 118 -64 148 -130 45 -93 27 -190 -47 -263 -100 -98 -244
-95 -340 7 -119 127 -63 334 105 386 56 18 75 18 134 0z m3166 -83 c21 -21 23
-31 23 -142 0 -178 30 -165 -365 -165 -391 0 -364 -11 -368 153 -3 117 6 148
48 169 19 10 98 13 332 11 305 -3 308 -3 330 -26z m-2592 8 c0 -5 -4 -10 -10
-10 -5 0 -10 5 -10 10 0 6 5 10 10 10 6 0 10 -4 10 -10z m100 -48 l0 -59 -35
-1 c-29 -1 -36 3 -41 23 -7 29 10 55 37 55 12 0 19 7 19 20 0 11 5 20 10 20 6
0 10 -26 10 -58z m-293 -4 c21 -55 21 -76 -1 -45 -7 9 -21 17 -31 17 -10 0
-24 -8 -31 -17 -22 -31 -22 -10 -1 45 11 28 25 52 32 52 7 0 21 -24 32 -52z
m151 -20 c2 -22 -1 -38 -7 -38 -6 0 -11 16 -11 36 0 45 -24 42 -28 -4 -4 -44
-22 -40 -22 4 0 45 -24 42 -28 -4 -5 -45 -22 -40 -22 7 l0 38 58 -1 57 -1 3
-37z m42 2 c0 -22 -4 -40 -10 -40 -5 0 -10 18 -10 40 0 22 5 40 10 40 6 0 10
-18 10 -40z m-11030 -120 c0 -33 -4 -60 -10 -60 -6 0 -10 27 -10 60 0 33 4 60
10 60 6 0 10 -27 10 -60z m270 2 l0 -59 -35 -1 c-29 -1 -36 3 -41 23 -7 29 10
55 37 55 12 0 19 7 19 20 0 11 5 20 10 20 6 0 10 -26 10 -58z m40 48 c0 -5 -4
-10 -10 -10 -5 0 -10 5 -10 10 0 6 5 10 10 10 6 0 10 -4 10 -10z m-350 -10 c0
-5 -7 -7 -15 -4 -21 8 -45 -14 -45 -41 0 -27 24 -49 45 -41 8 3 15 1 15 -4 0
-16 -47 -11 -64 6 -21 20 -20 53 1 76 17 19 63 25 63 8z m118 -63 c3 -37 2
-38 -25 -35 -35 4 -45 37 -14 45 26 7 27 20 4 27 -11 3 -7 4 7 3 21 -2 25 -8
28 -40z m42 7 c0 -45 24 -42 28 4 5 46 22 40 22 -7 0 -38 -1 -39 -32 -38 -30
2 -33 5 -36 40 -2 21 1 37 7 37 6 0 11 -16 11 -36z m190 -4 c0 -22 -4 -40 -10
-40 -5 0 -10 18 -10 40 0 22 5 40 10 40 6 0 10 -18 10 -40z m40 4 c0 -45 24
-42 28 4 5 46 22 40 22 -7 0 -38 -1 -39 -32 -38 -30 2 -33 5 -36 40 -2 21 1
37 7 37 6 0 11 -16 11 -36z m-4720 -13 c5 -11 10 -52 10 -91 0 -99 -8 -110
-76 -110 -39 0 -56 4 -60 15 -4 8 -16 15 -29 15 -28 0 -35 17 -35 80 0 63 7
80 35 80 13 0 25 7 29 15 4 11 21 15 60 15 44 0 57 -4 66 -19z m238 -144 c25
-4 24 -4 -5 -6 l-33 -1 2 58 2 57 3 -52 c4 -47 6 -52 31 -56z m431 65 c-12 -5
-11 -59 1 -65 6 -3 5 -4 -2 -3 -13 3 -27 61 -20 83 3 9 7 9 17 0 7 -7 9 -13 4
-15z m-331 -4 c17 -17 15 -43 -4 -59 -31 -26 -70 25 -44 56 15 18 32 19 48 3z
m100 -42 c-3 -52 -27 -81 -48 -60 -8 8 -4 10 12 10 14 -1 24 6 26 16 2 13 -1
16 -12 12 -20 -8 -46 13 -46 35 0 25 20 41 47 39 22 -2 24 -6 21 -52z m80 42
c17 -17 15 -43 -4 -59 -31 -26 -70 25 -44 56 15 18 32 19 48 3z m67 -53 c15 0
22 9 26 35 l6 35 2 -40 c1 -35 -2 -41 -21 -42 -32 -3 -48 15 -47 51 l2 31 6
-35 c4 -26 11 -35 26 -35z m3700 -125 c17 0 25 7 28 23 2 12 4 -3 4 -33 0 -30
-2 -43 -4 -27 -3 21 -10 27 -28 27 -18 0 -25 -6 -28 -27 -2 -16 -4 -3 -4 27 0
30 2 45 4 33 3 -16 11 -23 28 -23z m142 -37 c-2 -16 -4 -3 -4 27 0 30 2 43 4
28 2 -16 2 -40 0 -55z m30 0 c-2 -16 -4 -3 -4 27 0 30 2 43 4 28 2 -16 2 -40
0 -55z m-59 25 c2 -11 -5 -18 -20 -20 l-23 -5 25 -11 25 -12 -25 3 c-26 2 -37
25 -26 53 8 20 40 14 44 -8z m137 -13 c0 -25 -4 -30 -25 -30 -16 0 -26 6 -28
18 -6 30 6 49 30 45 18 -2 23 -9 23 -33z m80 0 c0 -25 -4 -30 -25 -30 -16 0
-26 6 -28 18 -6 30 6 49 30 45 18 -2 23 -9 23 -33z"/>
<path d="M1374 9146 c-9 -24 4 -48 23 -44 12 2 18 12 18 28 0 29 -32 41 -41
16z"/>
<path d="M17370 9170 c0 -15 5 -20 18 -18 9 2 17 10 17 18 0 8 -8 16 -17 18
-13 2 -18 -3 -18 -18z"/>
<path d="M1115 9150 c-3 -5 3 -10 14 -10 12 0 21 5 21 10 0 6 -6 10 -14 10 -8
0 -18 -4 -21 -10z"/>
<path d="M1245 9119 c-4 -6 -5 -13 -2 -16 7 -7 27 6 27 18 0 12 -17 12 -25 -2z"/>
<path d="M17455 9160 c-3 -5 1 -10 9 -10 9 0 16 5 16 10 0 6 -4 10 -9 10 -6 0
-13 -4 -16 -10z"/>
<path d="M17633 9154 c-8 -21 13 -42 28 -27 13 13 5 43 -11 43 -6 0 -13 -7
-17 -16z"/>
<path d="M17780 9130 c0 -5 7 -10 15 -10 8 0 15 5 15 10 0 6 -7 10 -15 10 -8
0 -15 -4 -15 -10z"/>
<path d="M17920 9130 c0 -5 7 -10 15 -10 8 0 15 5 15 10 0 6 -7 10 -15 10 -8
0 -15 -4 -15 -10z"/>
<path d="M18123 9154 c-8 -21 13 -42 28 -27 13 13 5 43 -11 43 -6 0 -13 -7
-17 -16z"/>
<path d="M16014 8176 c-9 -24 4 -48 23 -44 12 2 18 12 18 28 0 29 -32 41 -41
16z"/>
<path d="M15394 8176 c-9 -24 4 -48 23 -44 12 2 18 12 18 28 0 29 -32 41 -41
16z"/>
<path d="M15514 8176 c-9 -24 4 -48 23 -44 12 2 18 12 18 28 0 29 -32 41 -41
16z"/>
<path d="M15635 8180 c-4 -6 5 -10 20 -10 15 0 24 4 20 10 -3 6 -12 10 -20 10
-8 0 -17 -4 -20 -10z"/>
<path d="M15905 8180 c-4 -6 5 -10 20 -10 15 0 24 4 20 10 -3 6 -12 10 -20 10
-8 0 -17 -4 -20 -10z"/>
<path d="M16314 8176 c-10 -26 4 -48 28 -44 17 2 23 10 23 28 0 18 -6 26 -23
28 -13 2 -25 -3 -28 -12z"/>
<path d="M17205 8180 c-4 -6 5 -10 20 -10 15 0 24 4 20 10 -3 6 -12 10 -20 10
-8 0 -17 -4 -20 -10z"/>
<path d="M467 8124 c-38 -25 -38 -25 -35 -87 l3 -62 85 0 85 0 3 62 3 62 -40
26 c-49 30 -56 30 -104 -1z m93 -124 c0 -5 -18 -10 -40 -10 -22 0 -40 5 -40
10 0 6 18 10 40 10 22 0 40 -4 40 -10z"/>
<path d="M5444 8036 c-9 -24 4 -48 23 -44 12 2 18 12 18 28 0 29 -32 41 -41
16z"/>
<path d="M934 8056 c-9 -24 4 -48 23 -44 12 2 18 12 18 28 0 29 -32 41 -41 16z"/>
<path d="M1165 8060 c-3 -5 3 -10 14 -10 12 0 21 5 21 10 0 6 -6 10 -14 10 -8
0 -18 -4 -21 -10z"/>
<path d="M5165 8009 c-4 -6 -5 -13 -2 -16 7 -7 27 6 27 18 0 12 -17 12 -25 -2z"/>
<path d="M12614 7936 c-9 -24 4 -48 23 -44 12 2 18 12 18 28 0 29 -32 41 -41
16z"/>
<path d="M16984 7636 c-8 -22 3 -49 19 -43 6 2 12 14 12 27 0 27 -22 39 -31
16z"/>
<path d="M15845 7640 c-3 -5 3 -10 14 -10 12 0 21 5 21 10 0 6 -6 10 -14 10
-8 0 -18 -4 -21 -10z"/>
<path d="M15930 7605 c0 -8 5 -15 10 -15 6 0 10 7 10 15 0 8 -4 15 -10 15 -5
0 -10 -7 -10 -15z"/>
<path d="M16014 7636 c-8 -22 3 -49 19 -43 6 2 12 14 12 27 0 27 -22 39 -31
16z"/>
<path d="M16205 7640 c-3 -5 3 -10 14 -10 12 0 21 5 21 10 0 6 -6 10 -14 10
-8 0 -18 -4 -21 -10z"/>
<path d="M16334 7636 c-8 -22 3 -49 19 -43 6 2 12 14 12 27 0 27 -22 39 -31
16z"/>
<path d="M16615 7640 c-3 -5 3 -10 14 -10 12 0 21 5 21 10 0 6 -6 10 -14 10
-8 0 -18 -4 -21 -10z"/>
<path d="M16704 7636 c-8 -22 3 -49 19 -43 6 2 12 14 12 27 0 27 -22 39 -31
16z"/>
<path d="M16805 7640 c-3 -5 3 -10 14 -10 12 0 21 5 21 10 0 6 -6 10 -14 10
-8 0 -18 -4 -21 -10z"/>
<path d="M475 7338 c-66 -38 -57 -130 15 -153 51 -16 110 27 110 79 -1 65 -70
105 -125 74z"/>
<path d="M915 7260 c-3 -5 3 -10 14 -10 12 0 21 5 21 10 0 6 -6 10 -14 10 -8
0 -18 -4 -21 -10z"/>
<path d="M995 7229 c-4 -6 -4 -13 -1 -16 8 -8 36 5 36 17 0 13 -27 13 -35 -1z"/>
<path d="M4105 7190 c-3 -5 3 -10 14 -10 12 0 21 5 21 10 0 6 -6 10 -14 10 -8
0 -18 -4 -21 -10z"/>
<path d="M4264 7186 c-9 -24 4 -48 23 -44 12 2 18 12 18 28 0 29 -32 41 -41
16z"/>
<path d="M15950 6765 c0 -8 5 -15 10 -15 6 0 10 7 10 15 0 8 -4 15 -10 15 -5
0 -10 -7 -10 -15z"/>
<path d="M16115 6800 c-3 -5 3 -10 14 -10 12 0 21 5 21 10 0 6 -6 10 -14 10
-8 0 -18 -4 -21 -10z"/>
<path d="M16294 6796 c-8 -22 3 -49 19 -43 6 2 12 14 12 27 0 27 -22 39 -31
16z"/>
<path d="M16395 6800 c-3 -5 3 -10 14 -10 12 0 21 5 21 10 0 6 -6 10 -14 10
-8 0 -18 -4 -21 -10z"/>
<path d="M442 6528 c-24 -24 -14 -69 27 -109 21 -22 46 -39 56 -39 10 0 35 18
57 39 32 33 39 46 36 72 -4 43 -28 57 -70 41 -21 -8 -36 -8 -42 -2 -14 14 -49
13 -64 -2z"/>
<path d="M840 6481 c0 -5 -3 -16 -6 -25 -4 -12 0 -16 16 -16 16 0 20 4 16 16
-3 9 -6 20 -6 25 0 5 -4 9 -10 9 -5 0 -10 -4 -10 -9z"/>
<path d="M5594 5966 c-8 -22 3 -49 19 -43 6 2 12 14 12 27 0 27 -22 39 -31 16z"/>
<path d="M11834 5966 c-8 -22 3 -49 19 -43 6 2 12 14 12 27 0 27 -22 39 -31
16z"/>
<path d="M8400 5990 c0 -15 5 -20 18 -18 9 2 17 10 17 18 0 8 -8 16 -17 18
-13 2 -18 -3 -18 -18z"/>
<path d="M5425 5970 c-3 -5 3 -10 14 -10 12 0 21 5 21 10 0 6 -6 10 -14 10 -8
0 -18 -4 -21 -10z"/>
<path d="M5510 5935 c0 -8 5 -15 10 -15 6 0 10 7 10 15 0 8 -4 15 -10 15 -5 0
-10 -7 -10 -15z"/>
<path d="M8505 5970 c-3 -5 3 -10 14 -10 12 0 21 5 21 10 0 6 -6 10 -14 10 -8
0 -18 -4 -21 -10z"/>
<path d="M8594 5966 c-8 -22 3 -49 19 -43 6 2 12 14 12 27 0 27 -22 39 -31 16z"/>
<path d="M8775 5970 c-3 -5 3 -10 14 -10 12 0 21 5 21 10 0 6 -6 10 -14 10 -8
0 -18 -4 -21 -10z"/>
<path d="M11460 5935 c0 -8 5 -15 10 -15 6 0 10 7 10 15 0 8 -4 15 -10 15 -5
0 -10 -7 -10 -15z"/>
<path d="M11544 5966 c-8 -22 3 -49 19 -43 6 2 12 14 12 27 0 27 -22 39 -31
16z"/>
<path d="M11644 5966 c-8 -22 3 -49 19 -43 6 2 12 14 12 27 0 27 -22 39 -31
16z"/>
<path d="M11745 5970 c-3 -5 3 -10 14 -10 12 0 21 5 21 10 0 6 -6 10 -14 10
-8 0 -18 -4 -21 -10z"/>
<path d="M443 5663 c-16 -6 -17 -65 -1 -81 16 -16 144 -16 154 0 11 17 -27 40
-55 33 -18 -5 -32 1 -55 23 -17 16 -37 27 -43 25z"/>
<path d="M1704 5656 c-9 -24 4 -48 23 -44 12 2 18 12 18 28 0 29 -32 41 -41
16z"/>
<path d="M985 5660 c-3 -5 3 -10 14 -10 12 0 21 5 21 10 0 6 -6 10 -14 10 -8
0 -18 -4 -21 -10z"/>
<path d="M1065 5629 c-4 -6 -4 -13 -1 -16 8 -8 36 5 36 17 0 13 -27 13 -35 -1z"/>
<path d="M1195 5660 c-3 -5 3 -10 14 -10 12 0 21 5 21 10 0 6 -6 10 -14 10 -8
0 -18 -4 -21 -10z"/>
<path d="M1545 5660 c-3 -5 3 -10 14 -10 12 0 21 5 21 10 0 6 -6 10 -14 10 -8
0 -18 -4 -21 -10z"/>
<path d="M1625 5629 c-4 -6 -4 -13 -1 -16 8 -8 36 5 36 17 0 13 -27 13 -35 -1z"/>
<path d="M5194 4966 c-8 -22 3 -49 19 -43 6 2 12 14 12 27 0 27 -22 39 -31 16z"/>
<path d="M5020 4935 c0 -8 5 -15 10 -15 6 0 10 7 10 15 0 8 -4 15 -10 15 -5 0
-10 -7 -10 -15z"/>
<path d="M494 4936 c-10 -26 4 -48 28 -44 17 2 23 10 23 28 0 18 -6 26 -23 28
-13 2 -25 -3 -28 -12z"/>
<path d="M924 4856 c-9 -24 4 -48 23 -44 12 2 18 12 18 28 0 29 -32 41 -41 16z"/>
<path d="M1605 4860 c-3 -5 3 -10 14 -10 12 0 21 5 21 10 0 6 -6 10 -14 10 -8
0 -18 -4 -21 -10z"/>
<path d="M480 4825 c-17 -21 4 -45 40 -45 15 0 33 7 40 15 17 21 -4 45 -40 45
-15 0 -33 -7 -40 -15z"/>
<path d="M4880 4695 c-26 -31 13 -82 44 -56 19 16 21 42 4 59 -16 16 -33 15
-48 -3z"/>
<path d="M5593 4664 c-8 -21 13 -42 28 -27 13 13 5 43 -11 43 -6 0 -13 -7 -17
-16z"/>
<path d="M5090 4640 c0 -5 7 -10 15 -10 8 0 15 5 15 10 0 6 -7 10 -15 10 -8 0
-15 -4 -15 -10z"/>
<path d="M5163 4664 c-8 -21 13 -42 28 -27 13 13 5 43 -11 43 -6 0 -13 -7 -17
-16z"/>
<path d="M5243 4664 c-8 -21 13 -42 28 -27 13 13 5 43 -11 43 -6 0 -13 -7 -17
-16z"/>
<path d="M5373 4664 c-8 -21 13 -42 28 -27 13 13 5 43 -11 43 -6 0 -13 -7 -17
-16z"/>
<path d="M5525 4670 c-3 -5 1 -10 9 -10 9 0 16 5 16 10 0 6 -4 10 -9 10 -6 0
-13 -4 -16 -10z"/>
<path d="M4510 3910 c-10 -18 -8 -20 24 -20 29 0 33 3 29 20 -3 11 -14 20 -24
20 -10 0 -23 -9 -29 -20z"/>
<path d="M16184 3846 c-9 -24 4 -48 23 -44 12 2 18 12 18 28 0 29 -32 41 -41
16z"/>
<path d="M15600 3810 c0 -5 6 -10 14 -10 8 0 18 5 21 10 3 6 -3 10 -14 10 -12
0 -21 -4 -21 -10z"/>
<path d="M16074 3306 c-8 -22 3 -49 19 -43 6 2 12 14 12 27 0 27 -22 39 -31
16z"/>
<path d="M15900 3275 c0 -8 5 -15 10 -15 6 0 10 7 10 15 0 8 -4 15 -10 15 -5
0 -10 -7 -10 -15z"/>
<path d="M15175 3160 c-3 -5 3 -10 14 -10 12 0 21 5 21 10 0 6 -6 10 -14 10
-8 0 -18 -4 -21 -10z"/>
<path d="M5194 2746 c-8 -22 3 -49 19 -43 6 2 12 14 12 27 0 27 -22 39 -31 16z"/>
<path d="M5020 2715 c0 -8 5 -15 10 -15 6 0 10 7 10 15 0 8 -4 15 -10 15 -5 0
-10 -7 -10 -15z"/>
<path d="M15280 2510 c0 -5 7 -10 16 -10 8 0 12 5 9 10 -3 6 -10 10 -16 10 -5
0 -9 -4 -9 -10z"/>
<path d="M15335 2510 c3 -5 19 -10 35 -10 16 0 32 5 35 10 4 6 -10 10 -35 10
-25 0 -39 -4 -35 -10z"/>
<path d="M15436 2512 c-3 -5 1 -9 9 -9 8 0 15 4 15 9 0 4 -4 8 -9 8 -6 0 -12
-4 -15 -8z"/>
<path d="M15350 2409 c0 -4 14 -7 30 -7 35 1 33 8 -4 12 -14 2 -26 0 -26 -5z"/>
<path d="M15170 2389 c0 -7 9 -9 21 -6 13 3 19 1 16 -6 -2 -7 -14 -11 -25 -11
-12 1 -22 -3 -22 -7 0 -14 46 -10 59 4 8 10 7 17 -1 25 -15 15 -48 16 -48 1z"/>
<path d="M15367 2351 c3 -13 -1 -21 -14 -24 -10 -3 1 -4 25 -4 26 0 38 3 30 9
-7 4 -9 8 -4 8 14 0 -15 30 -29 30 -8 0 -11 -8 -8 -19z"/>
<path d="M15296 2215 c-3 -9 -6 -22 -5 -28 0 -7 5 -1 10 12 5 13 8 26 5 28 -2
2 -6 -3 -10 -12z"/>
<path d="M15393 2204 c-3 -8 -1 -20 5 -26 9 -9 10 -5 7 11 -3 19 -1 22 15 18
11 -3 18 -1 14 4 -9 14 -34 10 -41 -7z"/>
<path d="M15548 2203 c7 -3 16 -2 19 1 4 3 -2 6 -13 5 -11 0 -14 -3 -6 -6z"/>
<path d="M15443 2155 c0 -8 4 -15 9 -15 4 0 8 4 8 9 0 6 -4 12 -8 15 -5 3 -9
-1 -9 -9z"/>
<path d="M15280 2150 c0 -5 5 -10 11 -10 5 0 7 5 4 10 -3 6 -8 10 -11 10 -2 0
-4 -4 -4 -10z"/>
<path d="M5103 2444 c-8 -21 13 -42 28 -27 13 13 5 43 -11 43 -6 0 -13 -7 -17
-16z"/>
<path d="M5210 2420 c0 -5 7 -10 15 -10 8 0 15 5 15 10 0 6 -7 10 -15 10 -8 0
-15 -4 -15 -10z"/>
<path d="M5345 2450 c-3 -5 1 -10 9 -10 9 0 16 5 16 10 0 6 -4 10 -9 10 -6 0
-13 -4 -16 -10z"/>
<path d="M15874 2426 c-8 -22 3 -49 19 -43 6 2 12 14 12 27 0 27 -22 39 -31
16z"/>
<path d="M15975 2430 c-3 -5 3 -10 14 -10 12 0 21 5 21 10 0 6 -6 10 -14 10
-8 0 -18 -4 -21 -10z"/>
<path d="M16074 1546 c-8 -22 3 -49 19 -43 6 2 12 14 12 27 0 27 -22 39 -31
16z"/>
<path d="M15900 1515 c0 -8 5 -15 10 -15 6 0 10 7 10 15 0 8 -4 15 -10 15 -5
0 -10 -7 -10 -15z"/>
<path d="M15331 616 c-9 -11 -9 -15 1 -19 7 -3 -2 -4 -19 -2 -25 3 -33 0 -33
-12 0 -12 7 -14 30 -10 16 4 31 3 34 -1 4 -7 -9 -11 -51 -14 -22 -2 -23 -28
-2 -36 20 -8 20 -8 -3 -19 -13 -6 -32 -14 -42 -17 -10 -4 -16 -10 -12 -13 10
-10 266 -11 272 -1 3 5 0 15 -6 23 -6 8 -9 18 -6 24 3 5 -1 12 -10 15 -8 3
-12 2 -9 -4 8 -13 -5 -13 -25 0 -8 5 -10 10 -3 10 20 0 33 56 17 77 -11 15
-15 15 -23 4 -7 -11 -9 -11 -14 0 -4 10 -6 9 -6 -3 -1 -12 -6 -15 -18 -11 -17
7 -17 6 -1 -18 17 -27 9 -57 -11 -44 -9 5 -9 10 -1 20 8 9 6 14 -5 19 -9 3
-13 11 -9 17 3 6 0 15 -7 20 -19 12 -25 11 -38 -5z m83 -92 c25 -9 19 -20 -11
-21 -20 0 -22 1 -8 4 l20 6 -20 8 c-11 4 -15 8 -8 8 6 1 18 -2 27 -5z"/>
<path d="M16054 666 c-8 -22 3 -49 19 -43 6 2 12 14 12 27 0 27 -22 39 -31 16z"/>
<path d="M15777 686 c-11 -27 -8 -36 8 -36 16 0 17 5 6 34 -7 18 -8 18 -14 2z"/>
<path d="M5194 526 c-8 -22 3 -49 19 -43 6 2 12 14 12 27 0 27 -22 39 -31 16z"/>
<path d="M5020 495 c0 -8 5 -15 10 -15 6 0 10 7 10 15 0 8 -4 15 -10 15 -5 0
-10 -7 -10 -15z"/>
<path d="M490 473 c-1 -24 -2 -26 -13 -12 -23 30 -37 10 -37 -51 0 -42 4 -59
15 -64 9 -3 15 0 15 9 0 24 18 17 22 -7 3 -20 10 -23 56 -26 l53 -3 -3 88 -3
88 -52 3 c-52 3 -53 3 -53 -25z m0 -43 c0 -5 16 -10 35 -10 19 0 35 -4 35 -10
0 -5 -15 -10 -34 -10 -19 0 -37 -6 -40 -12 -3 -9 -9 -7 -20 6 -12 14 -13 23
-5 33 13 15 29 17 29 3z"/>
<path d="M904 406 c-9 -24 4 -48 23 -44 12 2 18 12 18 28 0 29 -32 41 -41 16z"/>
<path d="M994 406 c-9 -24 4 -48 23 -44 12 2 18 12 18 28 0 29 -32 41 -41 16z"/>
<path d="M1084 406 c-9 -24 4 -48 23 -44 12 2 18 12 18 28 0 29 -32 41 -41 16z"/>
<path d="M4975 230 c-3 -5 1 -10 9 -10 9 0 16 5 16 10 0 6 -4 10 -9 10 -6 0
-13 -4 -16 -10z"/>
<path d="M5103 224 c-8 -21 13 -42 28 -27 13 13 5 43 -11 43 -6 0 -13 -7 -17
-16z"/>
<path d="M5183 224 c-8 -21 13 -42 28 -27 13 13 5 43 -11 43 -6 0 -13 -7 -17
-16z"/>
</g>
</svg>
